%TF.GenerationSoftware,KiCad,Pcbnew,9.0.2*%
%TF.CreationDate,2025-08-01T17:29:50-07:00*%
%TF.ProjectId,jp21_pathfinder,6a703231-5f70-4617-9468-66696e646572,rev?*%
%TF.SameCoordinates,Original*%
%TF.FileFunction,Soldermask,Bot*%
%TF.FilePolarity,Negative*%
%FSLAX46Y46*%
G04 Gerber Fmt 4.6, Leading zero omitted, Abs format (unit mm)*
G04 Created by KiCad (PCBNEW 9.0.2) date 2025-08-01 17:29:50*
%MOMM*%
%LPD*%
G01*
G04 APERTURE LIST*
G04 Aperture macros list*
%AMRoundRect*
0 Rectangle with rounded corners*
0 $1 Rounding radius*
0 $2 $3 $4 $5 $6 $7 $8 $9 X,Y pos of 4 corners*
0 Add a 4 corners polygon primitive as box body*
4,1,4,$2,$3,$4,$5,$6,$7,$8,$9,$2,$3,0*
0 Add four circle primitives for the rounded corners*
1,1,$1+$1,$2,$3*
1,1,$1+$1,$4,$5*
1,1,$1+$1,$6,$7*
1,1,$1+$1,$8,$9*
0 Add four rect primitives between the rounded corners*
20,1,$1+$1,$2,$3,$4,$5,0*
20,1,$1+$1,$4,$5,$6,$7,0*
20,1,$1+$1,$6,$7,$8,$9,0*
20,1,$1+$1,$8,$9,$2,$3,0*%
G04 Aperture macros list end*
%ADD10C,1.700000*%
%ADD11C,4.000000*%
%ADD12C,2.200000*%
%ADD13C,1.524000*%
%ADD14C,2.019000*%
%ADD15RoundRect,0.102000X-0.907500X-0.907500X0.907500X-0.907500X0.907500X0.907500X-0.907500X0.907500X0*%
%ADD16C,1.400000*%
G04 APERTURE END LIST*
D10*
%TO.C,SW3*%
X128380000Y-119910000D03*
D11*
X133460000Y-119910000D03*
D10*
X138540000Y-119910000D03*
D12*
X136000000Y-114830000D03*
X129650000Y-117370000D03*
%TD*%
D10*
%TO.C,SW4*%
X147430000Y-119910000D03*
D11*
X152510000Y-119910000D03*
D10*
X157590000Y-119910000D03*
D12*
X155050000Y-114830000D03*
X148700000Y-117370000D03*
%TD*%
D10*
%TO.C,SW2*%
X147430000Y-100860000D03*
D11*
X152510000Y-100860000D03*
D10*
X157590000Y-100860000D03*
D12*
X155050000Y-95780000D03*
X148700000Y-98320000D03*
%TD*%
D10*
%TO.C,SW1*%
X128380000Y-100860000D03*
D11*
X133460000Y-100860000D03*
D10*
X138540000Y-100860000D03*
D12*
X136000000Y-95780000D03*
X129650000Y-98320000D03*
%TD*%
D13*
%TO.C,U1*%
X150601250Y-62312500D03*
X150601250Y-64852500D03*
X150601250Y-67392500D03*
X150601250Y-69932500D03*
X150601250Y-72472500D03*
X150601250Y-75012500D03*
X150601250Y-77552500D03*
X135361250Y-77552500D03*
X135361250Y-75012500D03*
X135361250Y-72472500D03*
X135361250Y-69932500D03*
X135361250Y-67392500D03*
X135361250Y-64852500D03*
X135361250Y-62312500D03*
%TD*%
D14*
%TO.C,D1*%
X134731250Y-86222500D03*
D15*
X132191250Y-86222500D03*
%TD*%
D14*
%TO.C,D2*%
X153931250Y-86222500D03*
D15*
X151391250Y-86222500D03*
%TD*%
D16*
%TO.C,R4*%
X157361250Y-132122500D03*
X157361250Y-137202500D03*
%TD*%
%TO.C,R3*%
X138161250Y-132082500D03*
X138161250Y-137162500D03*
%TD*%
%TO.C,R2*%
X157561250Y-83582500D03*
X157561250Y-88662500D03*
%TD*%
%TO.C,R1*%
X138361250Y-83682500D03*
X138361250Y-88762500D03*
%TD*%
D15*
%TO.C,D4*%
X151261250Y-134622500D03*
D14*
X153801250Y-134622500D03*
%TD*%
D15*
%TO.C,D3*%
X132091250Y-134622500D03*
D14*
X134631250Y-134622500D03*
%TD*%
M02*
