M48
; DRILL file {KiCad 9.0.2} date 2025-08-01T17:31:18-0700
; FORMAT={-:-/ absolute / metric / decimal}
; #@! TF.CreationDate,2025-08-01T17:31:18-07:00
; #@! TF.GenerationSoftware,Kicad,Pcbnew,9.0.2
; #@! TF.FileFunction,Plated,1,2,PTH
FMAT,2
METRIC
; #@! TA.AperFunction,Plated,PTH,ViaDrill
T1C0.300
; #@! TA.AperFunction,Plated,PTH,ComponentDrill
T2C0.700
; #@! TA.AperFunction,Plated,PTH,ComponentDrill
T3C0.889
; #@! TA.AperFunction,Plated,PTH,ComponentDrill
T4C1.210
; #@! TA.AperFunction,Plated,PTH,ComponentDrill
T5C1.500
%
G90
G05
T1
X141.611Y-79.263
X145.711Y-86.252
T2
X138.161Y-132.082
X138.161Y-137.162
X138.361Y-83.682
X138.361Y-88.763
X157.361Y-132.123
X157.361Y-137.202
X157.561Y-83.582
X157.561Y-88.662
T3
X135.361Y-62.312
X135.361Y-64.852
X135.361Y-67.392
X135.361Y-69.932
X135.361Y-72.472
X135.361Y-75.013
X135.361Y-77.552
X150.601Y-62.312
X150.601Y-64.852
X150.601Y-67.392
X150.601Y-69.932
X150.601Y-72.472
X150.601Y-75.013
X150.601Y-77.552
T4
X132.091Y-134.623
X132.191Y-86.222
X134.631Y-134.623
X134.731Y-86.222
X151.261Y-134.623
X151.391Y-86.222
X153.801Y-134.623
X153.931Y-86.222
T5
X129.65Y-98.32
X129.65Y-117.37
X136.0Y-95.78
X136.0Y-114.83
X148.7Y-98.32
X148.7Y-117.37
X155.05Y-95.78
X155.05Y-114.83
M30
