%TF.GenerationSoftware,KiCad,Pcbnew,9.0.2*%
%TF.CreationDate,2025-08-01T17:29:50-07:00*%
%TF.ProjectId,jp21_pathfinder,6a703231-5f70-4617-9468-66696e646572,rev?*%
%TF.SameCoordinates,Original*%
%TF.FileFunction,Legend,Top*%
%TF.FilePolarity,Positive*%
%FSLAX46Y46*%
G04 Gerber Fmt 4.6, Leading zero omitted, Abs format (unit mm)*
G04 Created by KiCad (PCBNEW 9.0.2) date 2025-08-01 17:29:50*
%MOMM*%
%LPD*%
G01*
G04 APERTURE LIST*
%ADD10C,0.300000*%
%ADD11C,0.100000*%
%ADD12C,0.150000*%
%ADD13C,0.101600*%
%ADD14C,0.000000*%
%ADD15C,0.120000*%
%ADD16C,0.504000*%
%ADD17C,0.127000*%
%ADD18C,0.200000*%
G04 APERTURE END LIST*
D10*
X129110225Y-86930828D02*
X128253082Y-86930828D01*
X128681653Y-86930828D02*
X128681653Y-85430828D01*
X128681653Y-85430828D02*
X128538796Y-85645114D01*
X128538796Y-85645114D02*
X128395939Y-85787971D01*
X128395939Y-85787971D02*
X128253082Y-85859400D01*
X147987368Y-134370828D02*
X147987368Y-135370828D01*
X147630225Y-133799400D02*
X147273082Y-134870828D01*
X147273082Y-134870828D02*
X148201653Y-134870828D01*
X127881653Y-133800828D02*
X128810225Y-133800828D01*
X128810225Y-133800828D02*
X128310225Y-134372257D01*
X128310225Y-134372257D02*
X128524510Y-134372257D01*
X128524510Y-134372257D02*
X128667368Y-134443685D01*
X128667368Y-134443685D02*
X128738796Y-134515114D01*
X128738796Y-134515114D02*
X128810225Y-134657971D01*
X128810225Y-134657971D02*
X128810225Y-135015114D01*
X128810225Y-135015114D02*
X128738796Y-135157971D01*
X128738796Y-135157971D02*
X128667368Y-135229400D01*
X128667368Y-135229400D02*
X128524510Y-135300828D01*
X128524510Y-135300828D02*
X128095939Y-135300828D01*
X128095939Y-135300828D02*
X127953082Y-135229400D01*
X127953082Y-135229400D02*
X127881653Y-135157971D01*
X147543082Y-85463685D02*
X147614510Y-85392257D01*
X147614510Y-85392257D02*
X147757368Y-85320828D01*
X147757368Y-85320828D02*
X148114510Y-85320828D01*
X148114510Y-85320828D02*
X148257368Y-85392257D01*
X148257368Y-85392257D02*
X148328796Y-85463685D01*
X148328796Y-85463685D02*
X148400225Y-85606542D01*
X148400225Y-85606542D02*
X148400225Y-85749400D01*
X148400225Y-85749400D02*
X148328796Y-85963685D01*
X148328796Y-85963685D02*
X147471653Y-86820828D01*
X147471653Y-86820828D02*
X148400225Y-86820828D01*
D11*
X117663884Y-62405752D02*
X117663884Y-63262895D01*
X117663884Y-63262895D02*
X117616265Y-63358133D01*
X117616265Y-63358133D02*
X117521027Y-63405752D01*
X117521027Y-63405752D02*
X117473408Y-63405752D01*
X117663884Y-62072419D02*
X117616265Y-62120038D01*
X117616265Y-62120038D02*
X117663884Y-62167657D01*
X117663884Y-62167657D02*
X117711503Y-62120038D01*
X117711503Y-62120038D02*
X117663884Y-62072419D01*
X117663884Y-62072419D02*
X117663884Y-62167657D01*
X118140074Y-62405752D02*
X118140074Y-63405752D01*
X118140074Y-62453371D02*
X118235312Y-62405752D01*
X118235312Y-62405752D02*
X118425788Y-62405752D01*
X118425788Y-62405752D02*
X118521026Y-62453371D01*
X118521026Y-62453371D02*
X118568645Y-62500990D01*
X118568645Y-62500990D02*
X118616264Y-62596228D01*
X118616264Y-62596228D02*
X118616264Y-62881942D01*
X118616264Y-62881942D02*
X118568645Y-62977180D01*
X118568645Y-62977180D02*
X118521026Y-63024800D01*
X118521026Y-63024800D02*
X118425788Y-63072419D01*
X118425788Y-63072419D02*
X118235312Y-63072419D01*
X118235312Y-63072419D02*
X118140074Y-63024800D01*
X118997217Y-62167657D02*
X119044836Y-62120038D01*
X119044836Y-62120038D02*
X119140074Y-62072419D01*
X119140074Y-62072419D02*
X119378169Y-62072419D01*
X119378169Y-62072419D02*
X119473407Y-62120038D01*
X119473407Y-62120038D02*
X119521026Y-62167657D01*
X119521026Y-62167657D02*
X119568645Y-62262895D01*
X119568645Y-62262895D02*
X119568645Y-62358133D01*
X119568645Y-62358133D02*
X119521026Y-62500990D01*
X119521026Y-62500990D02*
X118949598Y-63072419D01*
X118949598Y-63072419D02*
X119568645Y-63072419D01*
X120521026Y-63072419D02*
X119949598Y-63072419D01*
X120235312Y-63072419D02*
X120235312Y-62072419D01*
X120235312Y-62072419D02*
X120140074Y-62215276D01*
X120140074Y-62215276D02*
X120044836Y-62310514D01*
X120044836Y-62310514D02*
X119949598Y-62358133D01*
X120997217Y-62072419D02*
X120901979Y-62262895D01*
X121378169Y-63024800D02*
X121473407Y-63072419D01*
X121473407Y-63072419D02*
X121663883Y-63072419D01*
X121663883Y-63072419D02*
X121759121Y-63024800D01*
X121759121Y-63024800D02*
X121806740Y-62929561D01*
X121806740Y-62929561D02*
X121806740Y-62881942D01*
X121806740Y-62881942D02*
X121759121Y-62786704D01*
X121759121Y-62786704D02*
X121663883Y-62739085D01*
X121663883Y-62739085D02*
X121521026Y-62739085D01*
X121521026Y-62739085D02*
X121425788Y-62691466D01*
X121425788Y-62691466D02*
X121378169Y-62596228D01*
X121378169Y-62596228D02*
X121378169Y-62548609D01*
X121378169Y-62548609D02*
X121425788Y-62453371D01*
X121425788Y-62453371D02*
X121521026Y-62405752D01*
X121521026Y-62405752D02*
X121663883Y-62405752D01*
X121663883Y-62405752D02*
X121759121Y-62453371D01*
X122997217Y-62405752D02*
X122997217Y-63405752D01*
X122997217Y-62453371D02*
X123092455Y-62405752D01*
X123092455Y-62405752D02*
X123282931Y-62405752D01*
X123282931Y-62405752D02*
X123378169Y-62453371D01*
X123378169Y-62453371D02*
X123425788Y-62500990D01*
X123425788Y-62500990D02*
X123473407Y-62596228D01*
X123473407Y-62596228D02*
X123473407Y-62881942D01*
X123473407Y-62881942D02*
X123425788Y-62977180D01*
X123425788Y-62977180D02*
X123378169Y-63024800D01*
X123378169Y-63024800D02*
X123282931Y-63072419D01*
X123282931Y-63072419D02*
X123092455Y-63072419D01*
X123092455Y-63072419D02*
X122997217Y-63024800D01*
X124330550Y-63072419D02*
X124330550Y-62548609D01*
X124330550Y-62548609D02*
X124282931Y-62453371D01*
X124282931Y-62453371D02*
X124187693Y-62405752D01*
X124187693Y-62405752D02*
X123997217Y-62405752D01*
X123997217Y-62405752D02*
X123901979Y-62453371D01*
X124330550Y-63024800D02*
X124235312Y-63072419D01*
X124235312Y-63072419D02*
X123997217Y-63072419D01*
X123997217Y-63072419D02*
X123901979Y-63024800D01*
X123901979Y-63024800D02*
X123854360Y-62929561D01*
X123854360Y-62929561D02*
X123854360Y-62834323D01*
X123854360Y-62834323D02*
X123901979Y-62739085D01*
X123901979Y-62739085D02*
X123997217Y-62691466D01*
X123997217Y-62691466D02*
X124235312Y-62691466D01*
X124235312Y-62691466D02*
X124330550Y-62643847D01*
X124663884Y-62405752D02*
X125044836Y-62405752D01*
X124806741Y-62072419D02*
X124806741Y-62929561D01*
X124806741Y-62929561D02*
X124854360Y-63024800D01*
X124854360Y-63024800D02*
X124949598Y-63072419D01*
X124949598Y-63072419D02*
X125044836Y-63072419D01*
X125378170Y-63072419D02*
X125378170Y-62072419D01*
X125806741Y-63072419D02*
X125806741Y-62548609D01*
X125806741Y-62548609D02*
X125759122Y-62453371D01*
X125759122Y-62453371D02*
X125663884Y-62405752D01*
X125663884Y-62405752D02*
X125521027Y-62405752D01*
X125521027Y-62405752D02*
X125425789Y-62453371D01*
X125425789Y-62453371D02*
X125378170Y-62500990D01*
X126140075Y-62405752D02*
X126521027Y-62405752D01*
X126282932Y-63072419D02*
X126282932Y-62215276D01*
X126282932Y-62215276D02*
X126330551Y-62120038D01*
X126330551Y-62120038D02*
X126425789Y-62072419D01*
X126425789Y-62072419D02*
X126521027Y-62072419D01*
X126854361Y-63072419D02*
X126854361Y-62405752D01*
X126854361Y-62072419D02*
X126806742Y-62120038D01*
X126806742Y-62120038D02*
X126854361Y-62167657D01*
X126854361Y-62167657D02*
X126901980Y-62120038D01*
X126901980Y-62120038D02*
X126854361Y-62072419D01*
X126854361Y-62072419D02*
X126854361Y-62167657D01*
X127330551Y-62405752D02*
X127330551Y-63072419D01*
X127330551Y-62500990D02*
X127378170Y-62453371D01*
X127378170Y-62453371D02*
X127473408Y-62405752D01*
X127473408Y-62405752D02*
X127616265Y-62405752D01*
X127616265Y-62405752D02*
X127711503Y-62453371D01*
X127711503Y-62453371D02*
X127759122Y-62548609D01*
X127759122Y-62548609D02*
X127759122Y-63072419D01*
X128663884Y-63072419D02*
X128663884Y-62072419D01*
X128663884Y-63024800D02*
X128568646Y-63072419D01*
X128568646Y-63072419D02*
X128378170Y-63072419D01*
X128378170Y-63072419D02*
X128282932Y-63024800D01*
X128282932Y-63024800D02*
X128235313Y-62977180D01*
X128235313Y-62977180D02*
X128187694Y-62881942D01*
X128187694Y-62881942D02*
X128187694Y-62596228D01*
X128187694Y-62596228D02*
X128235313Y-62500990D01*
X128235313Y-62500990D02*
X128282932Y-62453371D01*
X128282932Y-62453371D02*
X128378170Y-62405752D01*
X128378170Y-62405752D02*
X128568646Y-62405752D01*
X128568646Y-62405752D02*
X128663884Y-62453371D01*
X129521027Y-63024800D02*
X129425789Y-63072419D01*
X129425789Y-63072419D02*
X129235313Y-63072419D01*
X129235313Y-63072419D02*
X129140075Y-63024800D01*
X129140075Y-63024800D02*
X129092456Y-62929561D01*
X129092456Y-62929561D02*
X129092456Y-62548609D01*
X129092456Y-62548609D02*
X129140075Y-62453371D01*
X129140075Y-62453371D02*
X129235313Y-62405752D01*
X129235313Y-62405752D02*
X129425789Y-62405752D01*
X129425789Y-62405752D02*
X129521027Y-62453371D01*
X129521027Y-62453371D02*
X129568646Y-62548609D01*
X129568646Y-62548609D02*
X129568646Y-62643847D01*
X129568646Y-62643847D02*
X129092456Y-62739085D01*
X129997218Y-63072419D02*
X129997218Y-62405752D01*
X129997218Y-62596228D02*
X130044837Y-62500990D01*
X130044837Y-62500990D02*
X130092456Y-62453371D01*
X130092456Y-62453371D02*
X130187694Y-62405752D01*
X130187694Y-62405752D02*
X130282932Y-62405752D01*
X131378171Y-62977180D02*
X131425790Y-63024800D01*
X131425790Y-63024800D02*
X131378171Y-63072419D01*
X131378171Y-63072419D02*
X131330552Y-63024800D01*
X131330552Y-63024800D02*
X131378171Y-62977180D01*
X131378171Y-62977180D02*
X131378171Y-63072419D01*
X131378171Y-62453371D02*
X131425790Y-62500990D01*
X131425790Y-62500990D02*
X131378171Y-62548609D01*
X131378171Y-62548609D02*
X131330552Y-62500990D01*
X131330552Y-62500990D02*
X131378171Y-62453371D01*
X131378171Y-62453371D02*
X131378171Y-62548609D01*
X131759123Y-63453371D02*
X131806742Y-63405752D01*
X131806742Y-63405752D02*
X131901980Y-63262895D01*
X131901980Y-63262895D02*
X131949599Y-63167657D01*
X131949599Y-63167657D02*
X131997218Y-63024800D01*
X131997218Y-63024800D02*
X132044837Y-62786704D01*
X132044837Y-62786704D02*
X132044837Y-62596228D01*
X132044837Y-62596228D02*
X131997218Y-62358133D01*
X131997218Y-62358133D02*
X131949599Y-62215276D01*
X131949599Y-62215276D02*
X131901980Y-62120038D01*
X131901980Y-62120038D02*
X131806742Y-61977180D01*
X131806742Y-61977180D02*
X131759123Y-61929561D01*
X139138646Y-71082419D02*
X139805312Y-72082419D01*
X139805312Y-71082419D02*
X139138646Y-72082419D01*
X140186265Y-72082419D02*
X140186265Y-71082419D01*
X140614836Y-71796704D02*
X141091026Y-71796704D01*
X140519598Y-72082419D02*
X140852931Y-71082419D01*
X140852931Y-71082419D02*
X141186264Y-72082419D01*
X141710074Y-71082419D02*
X141900550Y-71082419D01*
X141900550Y-71082419D02*
X141995788Y-71130038D01*
X141995788Y-71130038D02*
X142091026Y-71225276D01*
X142091026Y-71225276D02*
X142138645Y-71415752D01*
X142138645Y-71415752D02*
X142138645Y-71749085D01*
X142138645Y-71749085D02*
X142091026Y-71939561D01*
X142091026Y-71939561D02*
X141995788Y-72034800D01*
X141995788Y-72034800D02*
X141900550Y-72082419D01*
X141900550Y-72082419D02*
X141710074Y-72082419D01*
X141710074Y-72082419D02*
X141614836Y-72034800D01*
X141614836Y-72034800D02*
X141519598Y-71939561D01*
X141519598Y-71939561D02*
X141471979Y-71749085D01*
X141471979Y-71749085D02*
X141471979Y-71415752D01*
X141471979Y-71415752D02*
X141519598Y-71225276D01*
X141519598Y-71225276D02*
X141614836Y-71130038D01*
X141614836Y-71130038D02*
X141710074Y-71082419D01*
X143329122Y-72082419D02*
X143329122Y-71082419D01*
X143329122Y-71558609D02*
X143900550Y-71558609D01*
X143900550Y-72082419D02*
X143900550Y-71082419D01*
X144376741Y-71558609D02*
X144710074Y-71558609D01*
X144852931Y-72082419D02*
X144376741Y-72082419D01*
X144376741Y-72082419D02*
X144376741Y-71082419D01*
X144376741Y-71082419D02*
X144852931Y-71082419D01*
X145852931Y-72082419D02*
X145519598Y-71606228D01*
X145281503Y-72082419D02*
X145281503Y-71082419D01*
X145281503Y-71082419D02*
X145662455Y-71082419D01*
X145662455Y-71082419D02*
X145757693Y-71130038D01*
X145757693Y-71130038D02*
X145805312Y-71177657D01*
X145805312Y-71177657D02*
X145852931Y-71272895D01*
X145852931Y-71272895D02*
X145852931Y-71415752D01*
X145852931Y-71415752D02*
X145805312Y-71510990D01*
X145805312Y-71510990D02*
X145757693Y-71558609D01*
X145757693Y-71558609D02*
X145662455Y-71606228D01*
X145662455Y-71606228D02*
X145281503Y-71606228D01*
X146281503Y-71558609D02*
X146614836Y-71558609D01*
X146757693Y-72082419D02*
X146281503Y-72082419D01*
X146281503Y-72082419D02*
X146281503Y-71082419D01*
X146281503Y-71082419D02*
X146757693Y-71082419D01*
D12*
X132126667Y-112443200D02*
X132269524Y-112490819D01*
X132269524Y-112490819D02*
X132507619Y-112490819D01*
X132507619Y-112490819D02*
X132602857Y-112443200D01*
X132602857Y-112443200D02*
X132650476Y-112395580D01*
X132650476Y-112395580D02*
X132698095Y-112300342D01*
X132698095Y-112300342D02*
X132698095Y-112205104D01*
X132698095Y-112205104D02*
X132650476Y-112109866D01*
X132650476Y-112109866D02*
X132602857Y-112062247D01*
X132602857Y-112062247D02*
X132507619Y-112014628D01*
X132507619Y-112014628D02*
X132317143Y-111967009D01*
X132317143Y-111967009D02*
X132221905Y-111919390D01*
X132221905Y-111919390D02*
X132174286Y-111871771D01*
X132174286Y-111871771D02*
X132126667Y-111776533D01*
X132126667Y-111776533D02*
X132126667Y-111681295D01*
X132126667Y-111681295D02*
X132174286Y-111586057D01*
X132174286Y-111586057D02*
X132221905Y-111538438D01*
X132221905Y-111538438D02*
X132317143Y-111490819D01*
X132317143Y-111490819D02*
X132555238Y-111490819D01*
X132555238Y-111490819D02*
X132698095Y-111538438D01*
X133031429Y-111490819D02*
X133269524Y-112490819D01*
X133269524Y-112490819D02*
X133460000Y-111776533D01*
X133460000Y-111776533D02*
X133650476Y-112490819D01*
X133650476Y-112490819D02*
X133888572Y-111490819D01*
X134174286Y-111490819D02*
X134793333Y-111490819D01*
X134793333Y-111490819D02*
X134460000Y-111871771D01*
X134460000Y-111871771D02*
X134602857Y-111871771D01*
X134602857Y-111871771D02*
X134698095Y-111919390D01*
X134698095Y-111919390D02*
X134745714Y-111967009D01*
X134745714Y-111967009D02*
X134793333Y-112062247D01*
X134793333Y-112062247D02*
X134793333Y-112300342D01*
X134793333Y-112300342D02*
X134745714Y-112395580D01*
X134745714Y-112395580D02*
X134698095Y-112443200D01*
X134698095Y-112443200D02*
X134602857Y-112490819D01*
X134602857Y-112490819D02*
X134317143Y-112490819D01*
X134317143Y-112490819D02*
X134221905Y-112443200D01*
X134221905Y-112443200D02*
X134174286Y-112395580D01*
X151176667Y-112443200D02*
X151319524Y-112490819D01*
X151319524Y-112490819D02*
X151557619Y-112490819D01*
X151557619Y-112490819D02*
X151652857Y-112443200D01*
X151652857Y-112443200D02*
X151700476Y-112395580D01*
X151700476Y-112395580D02*
X151748095Y-112300342D01*
X151748095Y-112300342D02*
X151748095Y-112205104D01*
X151748095Y-112205104D02*
X151700476Y-112109866D01*
X151700476Y-112109866D02*
X151652857Y-112062247D01*
X151652857Y-112062247D02*
X151557619Y-112014628D01*
X151557619Y-112014628D02*
X151367143Y-111967009D01*
X151367143Y-111967009D02*
X151271905Y-111919390D01*
X151271905Y-111919390D02*
X151224286Y-111871771D01*
X151224286Y-111871771D02*
X151176667Y-111776533D01*
X151176667Y-111776533D02*
X151176667Y-111681295D01*
X151176667Y-111681295D02*
X151224286Y-111586057D01*
X151224286Y-111586057D02*
X151271905Y-111538438D01*
X151271905Y-111538438D02*
X151367143Y-111490819D01*
X151367143Y-111490819D02*
X151605238Y-111490819D01*
X151605238Y-111490819D02*
X151748095Y-111538438D01*
X152081429Y-111490819D02*
X152319524Y-112490819D01*
X152319524Y-112490819D02*
X152510000Y-111776533D01*
X152510000Y-111776533D02*
X152700476Y-112490819D01*
X152700476Y-112490819D02*
X152938572Y-111490819D01*
X153748095Y-111824152D02*
X153748095Y-112490819D01*
X153510000Y-111443200D02*
X153271905Y-112157485D01*
X153271905Y-112157485D02*
X153890952Y-112157485D01*
X151176667Y-93393200D02*
X151319524Y-93440819D01*
X151319524Y-93440819D02*
X151557619Y-93440819D01*
X151557619Y-93440819D02*
X151652857Y-93393200D01*
X151652857Y-93393200D02*
X151700476Y-93345580D01*
X151700476Y-93345580D02*
X151748095Y-93250342D01*
X151748095Y-93250342D02*
X151748095Y-93155104D01*
X151748095Y-93155104D02*
X151700476Y-93059866D01*
X151700476Y-93059866D02*
X151652857Y-93012247D01*
X151652857Y-93012247D02*
X151557619Y-92964628D01*
X151557619Y-92964628D02*
X151367143Y-92917009D01*
X151367143Y-92917009D02*
X151271905Y-92869390D01*
X151271905Y-92869390D02*
X151224286Y-92821771D01*
X151224286Y-92821771D02*
X151176667Y-92726533D01*
X151176667Y-92726533D02*
X151176667Y-92631295D01*
X151176667Y-92631295D02*
X151224286Y-92536057D01*
X151224286Y-92536057D02*
X151271905Y-92488438D01*
X151271905Y-92488438D02*
X151367143Y-92440819D01*
X151367143Y-92440819D02*
X151605238Y-92440819D01*
X151605238Y-92440819D02*
X151748095Y-92488438D01*
X152081429Y-92440819D02*
X152319524Y-93440819D01*
X152319524Y-93440819D02*
X152510000Y-92726533D01*
X152510000Y-92726533D02*
X152700476Y-93440819D01*
X152700476Y-93440819D02*
X152938572Y-92440819D01*
X153271905Y-92536057D02*
X153319524Y-92488438D01*
X153319524Y-92488438D02*
X153414762Y-92440819D01*
X153414762Y-92440819D02*
X153652857Y-92440819D01*
X153652857Y-92440819D02*
X153748095Y-92488438D01*
X153748095Y-92488438D02*
X153795714Y-92536057D01*
X153795714Y-92536057D02*
X153843333Y-92631295D01*
X153843333Y-92631295D02*
X153843333Y-92726533D01*
X153843333Y-92726533D02*
X153795714Y-92869390D01*
X153795714Y-92869390D02*
X153224286Y-93440819D01*
X153224286Y-93440819D02*
X153843333Y-93440819D01*
X132126667Y-93393200D02*
X132269524Y-93440819D01*
X132269524Y-93440819D02*
X132507619Y-93440819D01*
X132507619Y-93440819D02*
X132602857Y-93393200D01*
X132602857Y-93393200D02*
X132650476Y-93345580D01*
X132650476Y-93345580D02*
X132698095Y-93250342D01*
X132698095Y-93250342D02*
X132698095Y-93155104D01*
X132698095Y-93155104D02*
X132650476Y-93059866D01*
X132650476Y-93059866D02*
X132602857Y-93012247D01*
X132602857Y-93012247D02*
X132507619Y-92964628D01*
X132507619Y-92964628D02*
X132317143Y-92917009D01*
X132317143Y-92917009D02*
X132221905Y-92869390D01*
X132221905Y-92869390D02*
X132174286Y-92821771D01*
X132174286Y-92821771D02*
X132126667Y-92726533D01*
X132126667Y-92726533D02*
X132126667Y-92631295D01*
X132126667Y-92631295D02*
X132174286Y-92536057D01*
X132174286Y-92536057D02*
X132221905Y-92488438D01*
X132221905Y-92488438D02*
X132317143Y-92440819D01*
X132317143Y-92440819D02*
X132555238Y-92440819D01*
X132555238Y-92440819D02*
X132698095Y-92488438D01*
X133031429Y-92440819D02*
X133269524Y-93440819D01*
X133269524Y-93440819D02*
X133460000Y-92726533D01*
X133460000Y-92726533D02*
X133650476Y-93440819D01*
X133650476Y-93440819D02*
X133888572Y-92440819D01*
X134793333Y-93440819D02*
X134221905Y-93440819D01*
X134507619Y-93440819D02*
X134507619Y-92440819D01*
X134507619Y-92440819D02*
X134412381Y-92583676D01*
X134412381Y-92583676D02*
X134317143Y-92678914D01*
X134317143Y-92678914D02*
X134221905Y-92726533D01*
D13*
X133997440Y-57585979D02*
X133997440Y-58100026D01*
X133997440Y-58100026D02*
X134027678Y-58160502D01*
X134027678Y-58160502D02*
X134057916Y-58190741D01*
X134057916Y-58190741D02*
X134118392Y-58220979D01*
X134118392Y-58220979D02*
X134239345Y-58220979D01*
X134239345Y-58220979D02*
X134299821Y-58190741D01*
X134299821Y-58190741D02*
X134330059Y-58160502D01*
X134330059Y-58160502D02*
X134360297Y-58100026D01*
X134360297Y-58100026D02*
X134360297Y-57585979D01*
X134995297Y-58220979D02*
X134632440Y-58220979D01*
X134813868Y-58220979D02*
X134813868Y-57585979D01*
X134813868Y-57585979D02*
X134753392Y-57676693D01*
X134753392Y-57676693D02*
X134692916Y-57737169D01*
X134692916Y-57737169D02*
X134632440Y-57767407D01*
D12*
X132910774Y-82876795D02*
X132910774Y-82076795D01*
X132910774Y-82076795D02*
X133101250Y-82076795D01*
X133101250Y-82076795D02*
X133215536Y-82114890D01*
X133215536Y-82114890D02*
X133291726Y-82191080D01*
X133291726Y-82191080D02*
X133329821Y-82267271D01*
X133329821Y-82267271D02*
X133367917Y-82419652D01*
X133367917Y-82419652D02*
X133367917Y-82533938D01*
X133367917Y-82533938D02*
X133329821Y-82686319D01*
X133329821Y-82686319D02*
X133291726Y-82762509D01*
X133291726Y-82762509D02*
X133215536Y-82838700D01*
X133215536Y-82838700D02*
X133101250Y-82876795D01*
X133101250Y-82876795D02*
X132910774Y-82876795D01*
X134129821Y-82876795D02*
X133672678Y-82876795D01*
X133901250Y-82876795D02*
X133901250Y-82076795D01*
X133901250Y-82076795D02*
X133825059Y-82191080D01*
X133825059Y-82191080D02*
X133748869Y-82267271D01*
X133748869Y-82267271D02*
X133672678Y-82305366D01*
X152110774Y-82876795D02*
X152110774Y-82076795D01*
X152110774Y-82076795D02*
X152301250Y-82076795D01*
X152301250Y-82076795D02*
X152415536Y-82114890D01*
X152415536Y-82114890D02*
X152491726Y-82191080D01*
X152491726Y-82191080D02*
X152529821Y-82267271D01*
X152529821Y-82267271D02*
X152567917Y-82419652D01*
X152567917Y-82419652D02*
X152567917Y-82533938D01*
X152567917Y-82533938D02*
X152529821Y-82686319D01*
X152529821Y-82686319D02*
X152491726Y-82762509D01*
X152491726Y-82762509D02*
X152415536Y-82838700D01*
X152415536Y-82838700D02*
X152301250Y-82876795D01*
X152301250Y-82876795D02*
X152110774Y-82876795D01*
X152872678Y-82152985D02*
X152910774Y-82114890D01*
X152910774Y-82114890D02*
X152986964Y-82076795D01*
X152986964Y-82076795D02*
X153177440Y-82076795D01*
X153177440Y-82076795D02*
X153253631Y-82114890D01*
X153253631Y-82114890D02*
X153291726Y-82152985D01*
X153291726Y-82152985D02*
X153329821Y-82229176D01*
X153329821Y-82229176D02*
X153329821Y-82305366D01*
X153329821Y-82305366D02*
X153291726Y-82419652D01*
X153291726Y-82419652D02*
X152834583Y-82876795D01*
X152834583Y-82876795D02*
X153329821Y-82876795D01*
X159736069Y-134829166D02*
X159259878Y-135162499D01*
X159736069Y-135400594D02*
X158736069Y-135400594D01*
X158736069Y-135400594D02*
X158736069Y-135019642D01*
X158736069Y-135019642D02*
X158783688Y-134924404D01*
X158783688Y-134924404D02*
X158831307Y-134876785D01*
X158831307Y-134876785D02*
X158926545Y-134829166D01*
X158926545Y-134829166D02*
X159069402Y-134829166D01*
X159069402Y-134829166D02*
X159164640Y-134876785D01*
X159164640Y-134876785D02*
X159212259Y-134924404D01*
X159212259Y-134924404D02*
X159259878Y-135019642D01*
X159259878Y-135019642D02*
X159259878Y-135400594D01*
X159069402Y-133972023D02*
X159736069Y-133972023D01*
X158688450Y-134210118D02*
X159402735Y-134448213D01*
X159402735Y-134448213D02*
X159402735Y-133829166D01*
X140536069Y-134789166D02*
X140059878Y-135122499D01*
X140536069Y-135360594D02*
X139536069Y-135360594D01*
X139536069Y-135360594D02*
X139536069Y-134979642D01*
X139536069Y-134979642D02*
X139583688Y-134884404D01*
X139583688Y-134884404D02*
X139631307Y-134836785D01*
X139631307Y-134836785D02*
X139726545Y-134789166D01*
X139726545Y-134789166D02*
X139869402Y-134789166D01*
X139869402Y-134789166D02*
X139964640Y-134836785D01*
X139964640Y-134836785D02*
X140012259Y-134884404D01*
X140012259Y-134884404D02*
X140059878Y-134979642D01*
X140059878Y-134979642D02*
X140059878Y-135360594D01*
X139536069Y-134455832D02*
X139536069Y-133836785D01*
X139536069Y-133836785D02*
X139917021Y-134170118D01*
X139917021Y-134170118D02*
X139917021Y-134027261D01*
X139917021Y-134027261D02*
X139964640Y-133932023D01*
X139964640Y-133932023D02*
X140012259Y-133884404D01*
X140012259Y-133884404D02*
X140107497Y-133836785D01*
X140107497Y-133836785D02*
X140345592Y-133836785D01*
X140345592Y-133836785D02*
X140440830Y-133884404D01*
X140440830Y-133884404D02*
X140488450Y-133932023D01*
X140488450Y-133932023D02*
X140536069Y-134027261D01*
X140536069Y-134027261D02*
X140536069Y-134312975D01*
X140536069Y-134312975D02*
X140488450Y-134408213D01*
X140488450Y-134408213D02*
X140440830Y-134455832D01*
X159936069Y-86289166D02*
X159459878Y-86622499D01*
X159936069Y-86860594D02*
X158936069Y-86860594D01*
X158936069Y-86860594D02*
X158936069Y-86479642D01*
X158936069Y-86479642D02*
X158983688Y-86384404D01*
X158983688Y-86384404D02*
X159031307Y-86336785D01*
X159031307Y-86336785D02*
X159126545Y-86289166D01*
X159126545Y-86289166D02*
X159269402Y-86289166D01*
X159269402Y-86289166D02*
X159364640Y-86336785D01*
X159364640Y-86336785D02*
X159412259Y-86384404D01*
X159412259Y-86384404D02*
X159459878Y-86479642D01*
X159459878Y-86479642D02*
X159459878Y-86860594D01*
X159031307Y-85908213D02*
X158983688Y-85860594D01*
X158983688Y-85860594D02*
X158936069Y-85765356D01*
X158936069Y-85765356D02*
X158936069Y-85527261D01*
X158936069Y-85527261D02*
X158983688Y-85432023D01*
X158983688Y-85432023D02*
X159031307Y-85384404D01*
X159031307Y-85384404D02*
X159126545Y-85336785D01*
X159126545Y-85336785D02*
X159221783Y-85336785D01*
X159221783Y-85336785D02*
X159364640Y-85384404D01*
X159364640Y-85384404D02*
X159936069Y-85955832D01*
X159936069Y-85955832D02*
X159936069Y-85336785D01*
X140736069Y-86389166D02*
X140259878Y-86722499D01*
X140736069Y-86960594D02*
X139736069Y-86960594D01*
X139736069Y-86960594D02*
X139736069Y-86579642D01*
X139736069Y-86579642D02*
X139783688Y-86484404D01*
X139783688Y-86484404D02*
X139831307Y-86436785D01*
X139831307Y-86436785D02*
X139926545Y-86389166D01*
X139926545Y-86389166D02*
X140069402Y-86389166D01*
X140069402Y-86389166D02*
X140164640Y-86436785D01*
X140164640Y-86436785D02*
X140212259Y-86484404D01*
X140212259Y-86484404D02*
X140259878Y-86579642D01*
X140259878Y-86579642D02*
X140259878Y-86960594D01*
X140736069Y-85436785D02*
X140736069Y-86008213D01*
X140736069Y-85722499D02*
X139736069Y-85722499D01*
X139736069Y-85722499D02*
X139878926Y-85817737D01*
X139878926Y-85817737D02*
X139974164Y-85912975D01*
X139974164Y-85912975D02*
X140021783Y-86008213D01*
X151980774Y-131276795D02*
X151980774Y-130476795D01*
X151980774Y-130476795D02*
X152171250Y-130476795D01*
X152171250Y-130476795D02*
X152285536Y-130514890D01*
X152285536Y-130514890D02*
X152361726Y-130591080D01*
X152361726Y-130591080D02*
X152399821Y-130667271D01*
X152399821Y-130667271D02*
X152437917Y-130819652D01*
X152437917Y-130819652D02*
X152437917Y-130933938D01*
X152437917Y-130933938D02*
X152399821Y-131086319D01*
X152399821Y-131086319D02*
X152361726Y-131162509D01*
X152361726Y-131162509D02*
X152285536Y-131238700D01*
X152285536Y-131238700D02*
X152171250Y-131276795D01*
X152171250Y-131276795D02*
X151980774Y-131276795D01*
X153123631Y-130743461D02*
X153123631Y-131276795D01*
X152933155Y-130438700D02*
X152742678Y-131010128D01*
X152742678Y-131010128D02*
X153237917Y-131010128D01*
X132810774Y-131276795D02*
X132810774Y-130476795D01*
X132810774Y-130476795D02*
X133001250Y-130476795D01*
X133001250Y-130476795D02*
X133115536Y-130514890D01*
X133115536Y-130514890D02*
X133191726Y-130591080D01*
X133191726Y-130591080D02*
X133229821Y-130667271D01*
X133229821Y-130667271D02*
X133267917Y-130819652D01*
X133267917Y-130819652D02*
X133267917Y-130933938D01*
X133267917Y-130933938D02*
X133229821Y-131086319D01*
X133229821Y-131086319D02*
X133191726Y-131162509D01*
X133191726Y-131162509D02*
X133115536Y-131238700D01*
X133115536Y-131238700D02*
X133001250Y-131276795D01*
X133001250Y-131276795D02*
X132810774Y-131276795D01*
X133534583Y-130476795D02*
X134029821Y-130476795D01*
X134029821Y-130476795D02*
X133763155Y-130781557D01*
X133763155Y-130781557D02*
X133877440Y-130781557D01*
X133877440Y-130781557D02*
X133953631Y-130819652D01*
X133953631Y-130819652D02*
X133991726Y-130857747D01*
X133991726Y-130857747D02*
X134029821Y-130933938D01*
X134029821Y-130933938D02*
X134029821Y-131124414D01*
X134029821Y-131124414D02*
X133991726Y-131200604D01*
X133991726Y-131200604D02*
X133953631Y-131238700D01*
X133953631Y-131238700D02*
X133877440Y-131276795D01*
X133877440Y-131276795D02*
X133648869Y-131276795D01*
X133648869Y-131276795D02*
X133572678Y-131238700D01*
X133572678Y-131238700D02*
X133534583Y-131200604D01*
D14*
%TO.C,G\u002A\u002A\u002A*%
G36*
X119053481Y-136394556D02*
G01*
X119218324Y-136456272D01*
X119355653Y-136573764D01*
X119393914Y-136628132D01*
X119460585Y-136799095D01*
X119463168Y-136969588D01*
X119411941Y-137128569D01*
X119317185Y-137264997D01*
X119189177Y-137367831D01*
X119038199Y-137426029D01*
X118874529Y-137428549D01*
X118708486Y-137364376D01*
X118539906Y-137223850D01*
X118443351Y-137057770D01*
X118420687Y-136871411D01*
X118467651Y-136684308D01*
X118568209Y-136533492D01*
X118710990Y-136434223D01*
X118878559Y-136387559D01*
X119053481Y-136394556D01*
G37*
G36*
X120893749Y-136527707D02*
G01*
X121020090Y-136629003D01*
X121137803Y-136802119D01*
X121177520Y-136979378D01*
X121139211Y-137160619D01*
X121125516Y-137190635D01*
X121004178Y-137360897D01*
X120844774Y-137467976D01*
X120659648Y-137507214D01*
X120461145Y-137473952D01*
X120418871Y-137457300D01*
X120284893Y-137360229D01*
X120189505Y-137215328D01*
X120138454Y-137044663D01*
X120137485Y-136870304D01*
X120192341Y-136714318D01*
X120216398Y-136679570D01*
X120365160Y-136544792D01*
X120538687Y-136473860D01*
X120720408Y-136467817D01*
X120893749Y-136527707D01*
G37*
G36*
X121921865Y-137890893D02*
G01*
X122074047Y-138011932D01*
X122174749Y-138168888D01*
X122208515Y-138253617D01*
X122230191Y-138337428D01*
X122241376Y-138438361D01*
X122243669Y-138574460D01*
X122238667Y-138763766D01*
X122235253Y-138851771D01*
X122224800Y-139068482D01*
X122211616Y-139226525D01*
X122192244Y-139345380D01*
X122163221Y-139444529D01*
X122121087Y-139543452D01*
X122107313Y-139572039D01*
X121961010Y-139805810D01*
X121760797Y-140035120D01*
X121528977Y-140238200D01*
X121287852Y-140393279D01*
X121243544Y-140415185D01*
X121124849Y-140468488D01*
X121024099Y-140504701D01*
X120920418Y-140527589D01*
X120792933Y-140540920D01*
X120620766Y-140548461D01*
X120486486Y-140551792D01*
X120207359Y-140552441D01*
X119998431Y-140540207D01*
X119852742Y-140514630D01*
X119833356Y-140508790D01*
X119578463Y-140398793D01*
X119329681Y-140233878D01*
X119073555Y-140004874D01*
X119031397Y-139962088D01*
X118790832Y-139696792D01*
X118612020Y-139455677D01*
X118488305Y-139225131D01*
X118413032Y-138991542D01*
X118379544Y-138741299D01*
X118376332Y-138622405D01*
X118399575Y-138366585D01*
X118470071Y-138172467D01*
X118588972Y-138038646D01*
X118757431Y-137963716D01*
X118931238Y-137945227D01*
X119126567Y-137981393D01*
X119292447Y-138081685D01*
X119418078Y-138234334D01*
X119492662Y-138427571D01*
X119508705Y-138574628D01*
X119539469Y-138711783D01*
X119620655Y-138873566D01*
X119737765Y-139041090D01*
X119876301Y-139195466D01*
X120021767Y-139317808D01*
X120123769Y-139375937D01*
X120330642Y-139427613D01*
X120549312Y-139419659D01*
X120755729Y-139356497D01*
X120925841Y-139242552D01*
X120943095Y-139225232D01*
X120997410Y-139164254D01*
X121033293Y-139106076D01*
X121055507Y-139032156D01*
X121068816Y-138923954D01*
X121077982Y-138762927D01*
X121081223Y-138687543D01*
X121101003Y-138423384D01*
X121138276Y-138223719D01*
X121197610Y-138075963D01*
X121283574Y-137967530D01*
X121364720Y-137906620D01*
X121551079Y-137833017D01*
X121742169Y-137829515D01*
X121921865Y-137890893D01*
G37*
D15*
%TO.C,SW3*%
X126475000Y-112925000D02*
X140445000Y-112925000D01*
X126475000Y-126895000D02*
X126475000Y-112925000D01*
X140445000Y-112925000D02*
X140445000Y-126895000D01*
X140445000Y-126895000D02*
X126475000Y-126895000D01*
%TO.C,SW4*%
X145525000Y-112925000D02*
X159495000Y-112925000D01*
X145525000Y-126895000D02*
X145525000Y-112925000D01*
X159495000Y-112925000D02*
X159495000Y-126895000D01*
X159495000Y-126895000D02*
X145525000Y-126895000D01*
%TO.C,SW2*%
X145525000Y-93875000D02*
X159495000Y-93875000D01*
X145525000Y-107845000D02*
X145525000Y-93875000D01*
X159495000Y-93875000D02*
X159495000Y-107845000D01*
X159495000Y-107845000D02*
X145525000Y-107845000D01*
%TO.C,SW1*%
X126475000Y-93875000D02*
X140445000Y-93875000D01*
X126475000Y-107845000D02*
X126475000Y-93875000D01*
X140445000Y-93875000D02*
X140445000Y-107845000D01*
X140445000Y-107845000D02*
X126475000Y-107845000D01*
%TO.C,U1*%
D16*
X135426250Y-60512500D02*
G75*
G02*
X134922250Y-60512500I-252000J0D01*
G01*
X134922250Y-60512500D02*
G75*
G02*
X135426250Y-60512500I252000J0D01*
G01*
X134283250Y-59632500D02*
G75*
G02*
X133779250Y-59632500I-252000J0D01*
G01*
X133779250Y-59632500D02*
G75*
G02*
X134283250Y-59632500I252000J0D01*
G01*
D17*
X151871250Y-78441500D02*
G75*
G02*
X149966250Y-80346500I-1905000J0D01*
G01*
X149966250Y-59391500D02*
G75*
G02*
X151871250Y-61296500I0J-1905000D01*
G01*
X146985250Y-57981500D02*
G75*
G02*
X147485250Y-58481500I0J-500000D01*
G01*
X138489978Y-58481228D02*
G75*
G02*
X138989978Y-57981501I500018J-291D01*
G01*
X135996250Y-80346500D02*
G75*
G02*
X134091250Y-78441500I1J1905001D01*
G01*
X134091250Y-61296500D02*
G75*
G02*
X135996250Y-59391500I1905001J-1D01*
G01*
X151871250Y-78441500D02*
X151871250Y-61296500D01*
X149966250Y-59391500D02*
X135996250Y-59391500D01*
D11*
X149966250Y-59391500D02*
X135996250Y-59391500D01*
D17*
X147485250Y-58481500D02*
X147485250Y-59391500D01*
X138989978Y-57981500D02*
X146985250Y-57981500D01*
X138486250Y-59391500D02*
X138489978Y-58481228D01*
X135996250Y-80346500D02*
X149966250Y-80346500D01*
X134091250Y-78441500D02*
X134091250Y-61296500D01*
%TO.C,D1*%
X130961250Y-84656500D02*
G75*
G02*
X130961250Y-87788500I2506124J-1566000D01*
G01*
X130961250Y-84656500D02*
X130961250Y-87788500D01*
D18*
X130361250Y-86222500D02*
G75*
G02*
X130161250Y-86222500I-100000J0D01*
G01*
X130161250Y-86222500D02*
G75*
G02*
X130361250Y-86222500I100000J0D01*
G01*
D17*
%TO.C,D2*%
X150161250Y-84656500D02*
G75*
G02*
X150161250Y-87788500I2506124J-1566000D01*
G01*
X150161250Y-84656500D02*
X150161250Y-87788500D01*
D18*
X149561250Y-86222500D02*
G75*
G02*
X149361250Y-86222500I-100000J0D01*
G01*
X149361250Y-86222500D02*
G75*
G02*
X149561250Y-86222500I100000J0D01*
G01*
D15*
%TO.C,R4*%
X158281250Y-132742500D02*
X158281250Y-136582500D01*
X156441250Y-132742500D02*
X156441250Y-136582500D01*
%TO.C,R3*%
X139081250Y-132702500D02*
X139081250Y-136542500D01*
X137241250Y-132702500D02*
X137241250Y-136542500D01*
%TO.C,R2*%
X158481250Y-84202500D02*
X158481250Y-88042500D01*
X156641250Y-84202500D02*
X156641250Y-88042500D01*
%TO.C,R1*%
X139281250Y-84302500D02*
X139281250Y-88142500D01*
X137441250Y-84302500D02*
X137441250Y-88142500D01*
D18*
%TO.C,D4*%
X149431250Y-134622500D02*
G75*
G02*
X149231250Y-134622500I-100000J0D01*
G01*
X149231250Y-134622500D02*
G75*
G02*
X149431250Y-134622500I100000J0D01*
G01*
D17*
X150031250Y-133056500D02*
X150031250Y-136188500D01*
X150031250Y-133056500D02*
G75*
G02*
X150031250Y-136188500I2506124J-1566000D01*
G01*
D18*
%TO.C,D3*%
X130261250Y-134622500D02*
G75*
G02*
X130061250Y-134622500I-100000J0D01*
G01*
X130061250Y-134622500D02*
G75*
G02*
X130261250Y-134622500I100000J0D01*
G01*
D17*
X130861250Y-133056500D02*
X130861250Y-136188500D01*
X130861250Y-133056500D02*
G75*
G02*
X130861250Y-136188500I2506124J-1566000D01*
G01*
%TD*%
M02*
