%TF.GenerationSoftware,KiCad,Pcbnew,9.0.2*%
%TF.CreationDate,2025-08-01T17:29:50-07:00*%
%TF.ProjectId,jp21_pathfinder,6a703231-5f70-4617-9468-66696e646572,rev?*%
%TF.SameCoordinates,Original*%
%TF.FileFunction,Legend,Bot*%
%TF.FilePolarity,Positive*%
%FSLAX46Y46*%
G04 Gerber Fmt 4.6, Leading zero omitted, Abs format (unit mm)*
G04 Created by KiCad (PCBNEW 9.0.2) date 2025-08-01 17:29:50*
%MOMM*%
%LPD*%
G01*
G04 APERTURE LIST*
%ADD10C,0.125000*%
%ADD11C,0.000000*%
G04 APERTURE END LIST*
D10*
X126551097Y-66804452D02*
X126551097Y-67471119D01*
X126979668Y-66804452D02*
X126979668Y-67328261D01*
X126979668Y-67328261D02*
X126932049Y-67423500D01*
X126932049Y-67423500D02*
X126836811Y-67471119D01*
X126836811Y-67471119D02*
X126693954Y-67471119D01*
X126693954Y-67471119D02*
X126598716Y-67423500D01*
X126598716Y-67423500D02*
X126551097Y-67375880D01*
X126074906Y-66804452D02*
X126074906Y-67804452D01*
X126074906Y-66852071D02*
X125979668Y-66804452D01*
X125979668Y-66804452D02*
X125789192Y-66804452D01*
X125789192Y-66804452D02*
X125693954Y-66852071D01*
X125693954Y-66852071D02*
X125646335Y-66899690D01*
X125646335Y-66899690D02*
X125598716Y-66994928D01*
X125598716Y-66994928D02*
X125598716Y-67280642D01*
X125598716Y-67280642D02*
X125646335Y-67375880D01*
X125646335Y-67375880D02*
X125693954Y-67423500D01*
X125693954Y-67423500D02*
X125789192Y-67471119D01*
X125789192Y-67471119D02*
X125979668Y-67471119D01*
X125979668Y-67471119D02*
X126074906Y-67423500D01*
X124741573Y-67471119D02*
X124741573Y-66471119D01*
X124741573Y-67423500D02*
X124836811Y-67471119D01*
X124836811Y-67471119D02*
X125027287Y-67471119D01*
X125027287Y-67471119D02*
X125122525Y-67423500D01*
X125122525Y-67423500D02*
X125170144Y-67375880D01*
X125170144Y-67375880D02*
X125217763Y-67280642D01*
X125217763Y-67280642D02*
X125217763Y-66994928D01*
X125217763Y-66994928D02*
X125170144Y-66899690D01*
X125170144Y-66899690D02*
X125122525Y-66852071D01*
X125122525Y-66852071D02*
X125027287Y-66804452D01*
X125027287Y-66804452D02*
X124836811Y-66804452D01*
X124836811Y-66804452D02*
X124741573Y-66852071D01*
X123836811Y-67471119D02*
X123836811Y-66947309D01*
X123836811Y-66947309D02*
X123884430Y-66852071D01*
X123884430Y-66852071D02*
X123979668Y-66804452D01*
X123979668Y-66804452D02*
X124170144Y-66804452D01*
X124170144Y-66804452D02*
X124265382Y-66852071D01*
X123836811Y-67423500D02*
X123932049Y-67471119D01*
X123932049Y-67471119D02*
X124170144Y-67471119D01*
X124170144Y-67471119D02*
X124265382Y-67423500D01*
X124265382Y-67423500D02*
X124313001Y-67328261D01*
X124313001Y-67328261D02*
X124313001Y-67233023D01*
X124313001Y-67233023D02*
X124265382Y-67137785D01*
X124265382Y-67137785D02*
X124170144Y-67090166D01*
X124170144Y-67090166D02*
X123932049Y-67090166D01*
X123932049Y-67090166D02*
X123836811Y-67042547D01*
X123503477Y-66804452D02*
X123122525Y-66804452D01*
X123360620Y-66471119D02*
X123360620Y-67328261D01*
X123360620Y-67328261D02*
X123313001Y-67423500D01*
X123313001Y-67423500D02*
X123217763Y-67471119D01*
X123217763Y-67471119D02*
X123122525Y-67471119D01*
X122408239Y-67423500D02*
X122503477Y-67471119D01*
X122503477Y-67471119D02*
X122693953Y-67471119D01*
X122693953Y-67471119D02*
X122789191Y-67423500D01*
X122789191Y-67423500D02*
X122836810Y-67328261D01*
X122836810Y-67328261D02*
X122836810Y-66947309D01*
X122836810Y-66947309D02*
X122789191Y-66852071D01*
X122789191Y-66852071D02*
X122693953Y-66804452D01*
X122693953Y-66804452D02*
X122503477Y-66804452D01*
X122503477Y-66804452D02*
X122408239Y-66852071D01*
X122408239Y-66852071D02*
X122360620Y-66947309D01*
X122360620Y-66947309D02*
X122360620Y-67042547D01*
X122360620Y-67042547D02*
X122836810Y-67137785D01*
X121503477Y-67471119D02*
X121503477Y-66471119D01*
X121503477Y-67423500D02*
X121598715Y-67471119D01*
X121598715Y-67471119D02*
X121789191Y-67471119D01*
X121789191Y-67471119D02*
X121884429Y-67423500D01*
X121884429Y-67423500D02*
X121932048Y-67375880D01*
X121932048Y-67375880D02*
X121979667Y-67280642D01*
X121979667Y-67280642D02*
X121979667Y-66994928D01*
X121979667Y-66994928D02*
X121932048Y-66899690D01*
X121932048Y-66899690D02*
X121884429Y-66852071D01*
X121884429Y-66852071D02*
X121789191Y-66804452D01*
X121789191Y-66804452D02*
X121598715Y-66804452D01*
X121598715Y-66804452D02*
X121503477Y-66852071D01*
X120265381Y-67471119D02*
X120265381Y-66804452D01*
X120265381Y-66471119D02*
X120313000Y-66518738D01*
X120313000Y-66518738D02*
X120265381Y-66566357D01*
X120265381Y-66566357D02*
X120217762Y-66518738D01*
X120217762Y-66518738D02*
X120265381Y-66471119D01*
X120265381Y-66471119D02*
X120265381Y-66566357D01*
X119789191Y-66804452D02*
X119789191Y-67471119D01*
X119789191Y-66899690D02*
X119741572Y-66852071D01*
X119741572Y-66852071D02*
X119646334Y-66804452D01*
X119646334Y-66804452D02*
X119503477Y-66804452D01*
X119503477Y-66804452D02*
X119408239Y-66852071D01*
X119408239Y-66852071D02*
X119360620Y-66947309D01*
X119360620Y-66947309D02*
X119360620Y-67471119D01*
X119027286Y-66804452D02*
X118646334Y-66804452D01*
X118884429Y-67471119D02*
X118884429Y-66613976D01*
X118884429Y-66613976D02*
X118836810Y-66518738D01*
X118836810Y-66518738D02*
X118741572Y-66471119D01*
X118741572Y-66471119D02*
X118646334Y-66471119D01*
X118170143Y-67471119D02*
X118265381Y-67423500D01*
X118265381Y-67423500D02*
X118313000Y-67375880D01*
X118313000Y-67375880D02*
X118360619Y-67280642D01*
X118360619Y-67280642D02*
X118360619Y-66994928D01*
X118360619Y-66994928D02*
X118313000Y-66899690D01*
X118313000Y-66899690D02*
X118265381Y-66852071D01*
X118265381Y-66852071D02*
X118170143Y-66804452D01*
X118170143Y-66804452D02*
X118027286Y-66804452D01*
X118027286Y-66804452D02*
X117932048Y-66852071D01*
X117932048Y-66852071D02*
X117884429Y-66899690D01*
X117884429Y-66899690D02*
X117836810Y-66994928D01*
X117836810Y-66994928D02*
X117836810Y-67280642D01*
X117836810Y-67280642D02*
X117884429Y-67375880D01*
X117884429Y-67375880D02*
X117932048Y-67423500D01*
X117932048Y-67423500D02*
X118027286Y-67471119D01*
X118027286Y-67471119D02*
X118170143Y-67471119D01*
X117408238Y-67375880D02*
X117360619Y-67423500D01*
X117360619Y-67423500D02*
X117408238Y-67471119D01*
X117408238Y-67471119D02*
X117455857Y-67423500D01*
X117455857Y-67423500D02*
X117408238Y-67375880D01*
X117408238Y-67375880D02*
X117408238Y-67471119D01*
X117408238Y-67090166D02*
X117455857Y-66518738D01*
X117455857Y-66518738D02*
X117408238Y-66471119D01*
X117408238Y-66471119D02*
X117360619Y-66518738D01*
X117360619Y-66518738D02*
X117408238Y-67090166D01*
X117408238Y-67090166D02*
X117408238Y-66471119D01*
X126979668Y-72571119D02*
X126979668Y-71571119D01*
X126551097Y-72571119D02*
X126551097Y-72047309D01*
X126551097Y-72047309D02*
X126598716Y-71952071D01*
X126598716Y-71952071D02*
X126693954Y-71904452D01*
X126693954Y-71904452D02*
X126836811Y-71904452D01*
X126836811Y-71904452D02*
X126932049Y-71952071D01*
X126932049Y-71952071D02*
X126979668Y-71999690D01*
X125646335Y-72571119D02*
X125646335Y-72047309D01*
X125646335Y-72047309D02*
X125693954Y-71952071D01*
X125693954Y-71952071D02*
X125789192Y-71904452D01*
X125789192Y-71904452D02*
X125979668Y-71904452D01*
X125979668Y-71904452D02*
X126074906Y-71952071D01*
X125646335Y-72523500D02*
X125741573Y-72571119D01*
X125741573Y-72571119D02*
X125979668Y-72571119D01*
X125979668Y-72571119D02*
X126074906Y-72523500D01*
X126074906Y-72523500D02*
X126122525Y-72428261D01*
X126122525Y-72428261D02*
X126122525Y-72333023D01*
X126122525Y-72333023D02*
X126074906Y-72237785D01*
X126074906Y-72237785D02*
X125979668Y-72190166D01*
X125979668Y-72190166D02*
X125741573Y-72190166D01*
X125741573Y-72190166D02*
X125646335Y-72142547D01*
X124741573Y-72523500D02*
X124836811Y-72571119D01*
X124836811Y-72571119D02*
X125027287Y-72571119D01*
X125027287Y-72571119D02*
X125122525Y-72523500D01*
X125122525Y-72523500D02*
X125170144Y-72475880D01*
X125170144Y-72475880D02*
X125217763Y-72380642D01*
X125217763Y-72380642D02*
X125217763Y-72094928D01*
X125217763Y-72094928D02*
X125170144Y-71999690D01*
X125170144Y-71999690D02*
X125122525Y-71952071D01*
X125122525Y-71952071D02*
X125027287Y-71904452D01*
X125027287Y-71904452D02*
X124836811Y-71904452D01*
X124836811Y-71904452D02*
X124741573Y-71952071D01*
X124313001Y-72571119D02*
X124313001Y-71571119D01*
X124217763Y-72190166D02*
X123932049Y-72571119D01*
X123932049Y-71904452D02*
X124313001Y-72285404D01*
X122313001Y-72523500D02*
X122408239Y-72571119D01*
X122408239Y-72571119D02*
X122598715Y-72571119D01*
X122598715Y-72571119D02*
X122693953Y-72523500D01*
X122693953Y-72523500D02*
X122741572Y-72475880D01*
X122741572Y-72475880D02*
X122789191Y-72380642D01*
X122789191Y-72380642D02*
X122789191Y-72094928D01*
X122789191Y-72094928D02*
X122741572Y-71999690D01*
X122741572Y-71999690D02*
X122693953Y-71952071D01*
X122693953Y-71952071D02*
X122598715Y-71904452D01*
X122598715Y-71904452D02*
X122408239Y-71904452D01*
X122408239Y-71904452D02*
X122313001Y-71952071D01*
X121741572Y-72571119D02*
X121836810Y-72523500D01*
X121836810Y-72523500D02*
X121884429Y-72428261D01*
X121884429Y-72428261D02*
X121884429Y-71571119D01*
X120932048Y-71904452D02*
X120932048Y-72571119D01*
X121360619Y-71904452D02*
X121360619Y-72428261D01*
X121360619Y-72428261D02*
X121313000Y-72523500D01*
X121313000Y-72523500D02*
X121217762Y-72571119D01*
X121217762Y-72571119D02*
X121074905Y-72571119D01*
X121074905Y-72571119D02*
X120979667Y-72523500D01*
X120979667Y-72523500D02*
X120932048Y-72475880D01*
X120455857Y-72571119D02*
X120455857Y-71571119D01*
X120455857Y-71952071D02*
X120360619Y-71904452D01*
X120360619Y-71904452D02*
X120170143Y-71904452D01*
X120170143Y-71904452D02*
X120074905Y-71952071D01*
X120074905Y-71952071D02*
X120027286Y-71999690D01*
X120027286Y-71999690D02*
X119979667Y-72094928D01*
X119979667Y-72094928D02*
X119979667Y-72380642D01*
X119979667Y-72380642D02*
X120027286Y-72475880D01*
X120027286Y-72475880D02*
X120074905Y-72523500D01*
X120074905Y-72523500D02*
X120170143Y-72571119D01*
X120170143Y-72571119D02*
X120360619Y-72571119D01*
X120360619Y-72571119D02*
X120455857Y-72523500D01*
X119551095Y-72475880D02*
X119503476Y-72523500D01*
X119503476Y-72523500D02*
X119551095Y-72571119D01*
X119551095Y-72571119D02*
X119598714Y-72523500D01*
X119598714Y-72523500D02*
X119551095Y-72475880D01*
X119551095Y-72475880D02*
X119551095Y-72571119D01*
X119551095Y-72190166D02*
X119598714Y-71618738D01*
X119598714Y-71618738D02*
X119551095Y-71571119D01*
X119551095Y-71571119D02*
X119503476Y-71618738D01*
X119503476Y-71618738D02*
X119551095Y-72190166D01*
X119551095Y-72190166D02*
X119551095Y-71571119D01*
D11*
%TO.C,G\u002A\u002A\u002A*%
G36*
X132000000Y-69000000D02*
G01*
X131740000Y-69000000D01*
X131480000Y-69000000D01*
X131480000Y-68730000D01*
X131480000Y-68540000D01*
X131560000Y-68540000D01*
X131560000Y-68730000D01*
X131560000Y-68920000D01*
X131750000Y-68920000D01*
X131940000Y-68920000D01*
X131940000Y-68730000D01*
X131940000Y-68540000D01*
X131750000Y-68540000D01*
X131560000Y-68540000D01*
X131480000Y-68540000D01*
X131480000Y-68460000D01*
X131740000Y-68460000D01*
X132000000Y-68460000D01*
X132000000Y-68730000D01*
X132000000Y-69000000D01*
G37*
G36*
X128918264Y-65186431D02*
G01*
X128920000Y-65250000D01*
X128919574Y-65288591D01*
X128915159Y-65334582D01*
X128903116Y-65355225D01*
X128880000Y-65360000D01*
X128862284Y-65362206D01*
X128847871Y-65376762D01*
X128841460Y-65412977D01*
X128840000Y-65480000D01*
X128840000Y-65600000D01*
X128920000Y-65600000D01*
X128966176Y-65597735D01*
X128993292Y-65586169D01*
X129000000Y-65560000D01*
X128993427Y-65534142D01*
X128960000Y-65520000D01*
X128934143Y-65513426D01*
X128920000Y-65480000D01*
X128926574Y-65454142D01*
X128960000Y-65440000D01*
X128985858Y-65446573D01*
X129000000Y-65480000D01*
X129005569Y-65503326D01*
X129030000Y-65520000D01*
X129047495Y-65512575D01*
X129060000Y-65480000D01*
X129066574Y-65454142D01*
X129100000Y-65440000D01*
X129125858Y-65433426D01*
X129140000Y-65400000D01*
X129137712Y-65381942D01*
X129118246Y-65364474D01*
X129070000Y-65360000D01*
X129063625Y-65359945D01*
X129015180Y-65352188D01*
X129000000Y-65330000D01*
X129003437Y-65318483D01*
X129024436Y-65307250D01*
X129070880Y-65301571D01*
X129150000Y-65300000D01*
X129177002Y-65299937D01*
X129243247Y-65298209D01*
X129280303Y-65292451D01*
X129296458Y-65280451D01*
X129300000Y-65260000D01*
X129293427Y-65234142D01*
X129260000Y-65220000D01*
X129234143Y-65213426D01*
X129220000Y-65180000D01*
X129226574Y-65154142D01*
X129260000Y-65140000D01*
X129285858Y-65146573D01*
X129300000Y-65180000D01*
X129305569Y-65203326D01*
X129330000Y-65220000D01*
X129347495Y-65212575D01*
X129360000Y-65180000D01*
X129366574Y-65154142D01*
X129400000Y-65140000D01*
X129418058Y-65137711D01*
X129435526Y-65118245D01*
X129440000Y-65070000D01*
X129440179Y-65049344D01*
X129446016Y-65015203D01*
X129468779Y-65002119D01*
X129520000Y-65000000D01*
X129543000Y-65000544D01*
X129586790Y-65009140D01*
X129600000Y-65030000D01*
X129607425Y-65047494D01*
X129640000Y-65060000D01*
X129665858Y-65066573D01*
X129680000Y-65100000D01*
X129685569Y-65123326D01*
X129710000Y-65140000D01*
X129712733Y-65139873D01*
X129733495Y-65121773D01*
X129740000Y-65070000D01*
X129741308Y-65038398D01*
X129752432Y-65007830D01*
X129780000Y-65000000D01*
X129798058Y-65002288D01*
X129815526Y-65021754D01*
X129820000Y-65070000D01*
X129818693Y-65101601D01*
X129807569Y-65132169D01*
X129780000Y-65140000D01*
X129754143Y-65146573D01*
X129740000Y-65180000D01*
X129746574Y-65205857D01*
X129780000Y-65220000D01*
X129805858Y-65226573D01*
X129820000Y-65260000D01*
X129813427Y-65285857D01*
X129780000Y-65300000D01*
X129756674Y-65305568D01*
X129740000Y-65330000D01*
X129747425Y-65347494D01*
X129780000Y-65360000D01*
X129803327Y-65354431D01*
X129820000Y-65330000D01*
X129829511Y-65312144D01*
X129863664Y-65302693D01*
X129930000Y-65300000D01*
X129968592Y-65299573D01*
X130014583Y-65295158D01*
X130035226Y-65283115D01*
X130040000Y-65260000D01*
X130037712Y-65241942D01*
X130018246Y-65224474D01*
X129970000Y-65220000D01*
X130120000Y-65220000D01*
X130122265Y-65266175D01*
X130133831Y-65293291D01*
X130160000Y-65300000D01*
X130183088Y-65295470D01*
X130196646Y-65272338D01*
X130200000Y-65220000D01*
X130197736Y-65173824D01*
X130186170Y-65146708D01*
X130160000Y-65140000D01*
X130136913Y-65144529D01*
X130123355Y-65167661D01*
X130120000Y-65220000D01*
X129970000Y-65220000D01*
X129938399Y-65218692D01*
X129907831Y-65207568D01*
X129900000Y-65180000D01*
X129901174Y-65165966D01*
X129913316Y-65149242D01*
X129946432Y-65141736D01*
X130010000Y-65140000D01*
X130120000Y-65140000D01*
X130120000Y-65070000D01*
X130120000Y-65000000D01*
X130230000Y-65000000D01*
X130295472Y-65002593D01*
X130330125Y-65011908D01*
X130340000Y-65030000D01*
X130347425Y-65047494D01*
X130380000Y-65060000D01*
X130403327Y-65054431D01*
X130420000Y-65030000D01*
X130421452Y-65021375D01*
X130444374Y-65004953D01*
X130500000Y-65000000D01*
X130523000Y-65000544D01*
X130566790Y-65009140D01*
X130580000Y-65030000D01*
X130578549Y-65038624D01*
X130555627Y-65055046D01*
X130500000Y-65060000D01*
X130453825Y-65062264D01*
X130426709Y-65073830D01*
X130420000Y-65100000D01*
X130413427Y-65125857D01*
X130380000Y-65140000D01*
X130354143Y-65133426D01*
X130340000Y-65100000D01*
X130334432Y-65076673D01*
X130310000Y-65060000D01*
X130292506Y-65067424D01*
X130280000Y-65100000D01*
X130285569Y-65123326D01*
X130310000Y-65140000D01*
X130327495Y-65147424D01*
X130340000Y-65180000D01*
X130334432Y-65203326D01*
X130310000Y-65220000D01*
X130292506Y-65227424D01*
X130280000Y-65260000D01*
X130273427Y-65285857D01*
X130240000Y-65300000D01*
X130232800Y-65300235D01*
X130215135Y-65306713D01*
X130205253Y-65328307D01*
X130200945Y-65373306D01*
X130200000Y-65450000D01*
X130200063Y-65477001D01*
X130200141Y-65480000D01*
X130201791Y-65543246D01*
X130207549Y-65580302D01*
X130219549Y-65596457D01*
X130240000Y-65600000D01*
X130263327Y-65605568D01*
X130280000Y-65630000D01*
X130283485Y-65643990D01*
X130310000Y-65660000D01*
X130323991Y-65656515D01*
X130340000Y-65630000D01*
X130347425Y-65612505D01*
X130380000Y-65600000D01*
X130397717Y-65597793D01*
X130412130Y-65583237D01*
X130418014Y-65550000D01*
X130500000Y-65550000D01*
X130500427Y-65588591D01*
X130504842Y-65634582D01*
X130516885Y-65655225D01*
X130540000Y-65660000D01*
X130554034Y-65658826D01*
X130570758Y-65646684D01*
X130578264Y-65613568D01*
X130578635Y-65600000D01*
X130660000Y-65600000D01*
X130660000Y-65670000D01*
X130660009Y-65675328D01*
X130663844Y-65719436D01*
X130683084Y-65736903D01*
X130730000Y-65740000D01*
X130761602Y-65738692D01*
X130792170Y-65727568D01*
X130800000Y-65700000D01*
X130806574Y-65674142D01*
X130840000Y-65660000D01*
X130863327Y-65654431D01*
X130880000Y-65630000D01*
X130870490Y-65612144D01*
X130836337Y-65602693D01*
X130770000Y-65600000D01*
X130660000Y-65600000D01*
X130578635Y-65600000D01*
X130580000Y-65550000D01*
X130579574Y-65511408D01*
X130575159Y-65465417D01*
X130563116Y-65444774D01*
X130540000Y-65440000D01*
X130525967Y-65441173D01*
X130509243Y-65453315D01*
X130501737Y-65486431D01*
X130500000Y-65550000D01*
X130418014Y-65550000D01*
X130418541Y-65547022D01*
X130420000Y-65480000D01*
X130419265Y-65426849D01*
X130414413Y-65383612D01*
X130402341Y-65364378D01*
X130380000Y-65360000D01*
X130362284Y-65362206D01*
X130347871Y-65376762D01*
X130341460Y-65412977D01*
X130340000Y-65480000D01*
X130339941Y-65494458D01*
X130336773Y-65558114D01*
X130327420Y-65590784D01*
X130310000Y-65600000D01*
X130298484Y-65596563D01*
X130287251Y-65575564D01*
X130281572Y-65529120D01*
X130280000Y-65450000D01*
X130280688Y-65392418D01*
X130284888Y-65336252D01*
X130294176Y-65307857D01*
X130310000Y-65300000D01*
X130327495Y-65292575D01*
X130340000Y-65260000D01*
X130346574Y-65234142D01*
X130380000Y-65220000D01*
X130398058Y-65222288D01*
X130415526Y-65241754D01*
X130420000Y-65290000D01*
X130421308Y-65321601D01*
X130432432Y-65352169D01*
X130460000Y-65360000D01*
X130478058Y-65357711D01*
X130495526Y-65338245D01*
X130500000Y-65290000D01*
X130501308Y-65258398D01*
X130512432Y-65227830D01*
X130540000Y-65220000D01*
X130554034Y-65221173D01*
X130570758Y-65233315D01*
X130578264Y-65266431D01*
X130580000Y-65330000D01*
X130580427Y-65368591D01*
X130584842Y-65414582D01*
X130596885Y-65435225D01*
X130620000Y-65440000D01*
X130645858Y-65446573D01*
X130660000Y-65480000D01*
X130665569Y-65503326D01*
X130690000Y-65520000D01*
X130707495Y-65512575D01*
X130720000Y-65480000D01*
X130800000Y-65480000D01*
X130806574Y-65505857D01*
X130840000Y-65520000D01*
X130865858Y-65513426D01*
X130880000Y-65480000D01*
X130873427Y-65454142D01*
X130840000Y-65440000D01*
X130814143Y-65446573D01*
X130800000Y-65480000D01*
X130720000Y-65480000D01*
X130726574Y-65454142D01*
X130760000Y-65440000D01*
X130785858Y-65433426D01*
X130800000Y-65400000D01*
X130797712Y-65381942D01*
X130778246Y-65364474D01*
X130730000Y-65360000D01*
X130660000Y-65360000D01*
X130660000Y-65210000D01*
X130660000Y-65060000D01*
X130730000Y-65060000D01*
X130761602Y-65061307D01*
X130792170Y-65072431D01*
X130800000Y-65100000D01*
X130793427Y-65125857D01*
X130760000Y-65140000D01*
X130736913Y-65144529D01*
X130723355Y-65167661D01*
X130720000Y-65220000D01*
X130722265Y-65266175D01*
X130733831Y-65293291D01*
X130760000Y-65300000D01*
X130783327Y-65305568D01*
X130800000Y-65330000D01*
X130807425Y-65347494D01*
X130840000Y-65360000D01*
X130865858Y-65366573D01*
X130880000Y-65400000D01*
X130886574Y-65425857D01*
X130920000Y-65440000D01*
X130943088Y-65444529D01*
X130956646Y-65467661D01*
X130957437Y-65480000D01*
X130960000Y-65520000D01*
X130960545Y-65542999D01*
X130961919Y-65550000D01*
X130969141Y-65586789D01*
X130990000Y-65600000D01*
X131007856Y-65609510D01*
X131013526Y-65630000D01*
X131017307Y-65643663D01*
X131020000Y-65710000D01*
X131020427Y-65748591D01*
X131024842Y-65794582D01*
X131036885Y-65815225D01*
X131060000Y-65820000D01*
X131085858Y-65813426D01*
X131100000Y-65780000D01*
X131106574Y-65754142D01*
X131140000Y-65740000D01*
X131158058Y-65737711D01*
X131175526Y-65718245D01*
X131180000Y-65670000D01*
X131179822Y-65649344D01*
X131173985Y-65615203D01*
X131151222Y-65602119D01*
X131100000Y-65600000D01*
X131020000Y-65600000D01*
X131020000Y-65520000D01*
X131022265Y-65473824D01*
X131033831Y-65446708D01*
X131060000Y-65440000D01*
X131085858Y-65446573D01*
X131100000Y-65480000D01*
X131106574Y-65505857D01*
X131140000Y-65520000D01*
X131154034Y-65518826D01*
X131170758Y-65506684D01*
X131178264Y-65473568D01*
X131179181Y-65440000D01*
X131260000Y-65440000D01*
X131262265Y-65486175D01*
X131273831Y-65513291D01*
X131300000Y-65520000D01*
X131323088Y-65515470D01*
X131336646Y-65492338D01*
X131340000Y-65440000D01*
X131337736Y-65393824D01*
X131326170Y-65366708D01*
X131300000Y-65360000D01*
X131276913Y-65364529D01*
X131263355Y-65387661D01*
X131260000Y-65440000D01*
X131179181Y-65440000D01*
X131180000Y-65410000D01*
X131180000Y-65300000D01*
X131260000Y-65300000D01*
X131306176Y-65297735D01*
X131333292Y-65286169D01*
X131340000Y-65260000D01*
X131335471Y-65236912D01*
X131312339Y-65223354D01*
X131260000Y-65220000D01*
X131213825Y-65217735D01*
X131186709Y-65206169D01*
X131180000Y-65180000D01*
X131184530Y-65156912D01*
X131207662Y-65143354D01*
X131260000Y-65140000D01*
X131283607Y-65139843D01*
X131322625Y-65134736D01*
X131337579Y-65114818D01*
X131340000Y-65070000D01*
X131340055Y-65063624D01*
X131347812Y-65015179D01*
X131370000Y-65000000D01*
X131372733Y-65000126D01*
X131393495Y-65018226D01*
X131400000Y-65070000D01*
X131399946Y-65076375D01*
X131392189Y-65124820D01*
X131370000Y-65140000D01*
X131352506Y-65147424D01*
X131340000Y-65180000D01*
X131345569Y-65203326D01*
X131370000Y-65220000D01*
X131381517Y-65223436D01*
X131392750Y-65244435D01*
X131398429Y-65290879D01*
X131400000Y-65370000D01*
X131399313Y-65427581D01*
X131398384Y-65440000D01*
X131395113Y-65483747D01*
X131385825Y-65512142D01*
X131370000Y-65520000D01*
X131352506Y-65527424D01*
X131340000Y-65560000D01*
X131333427Y-65585857D01*
X131300000Y-65600000D01*
X131276674Y-65605568D01*
X131260000Y-65630000D01*
X131267425Y-65647494D01*
X131300000Y-65660000D01*
X131325858Y-65666573D01*
X131340000Y-65700000D01*
X131345569Y-65723326D01*
X131370000Y-65740000D01*
X131387495Y-65747424D01*
X131400000Y-65780000D01*
X131406574Y-65805857D01*
X131440000Y-65820000D01*
X131465858Y-65813426D01*
X131480000Y-65780000D01*
X131486574Y-65754142D01*
X131520000Y-65740000D01*
X131545858Y-65746573D01*
X131560000Y-65780000D01*
X131553427Y-65805857D01*
X131520000Y-65820000D01*
X131494143Y-65826573D01*
X131480000Y-65860000D01*
X131486574Y-65885857D01*
X131520000Y-65900000D01*
X131545858Y-65906573D01*
X131560000Y-65940000D01*
X131553427Y-65965857D01*
X131520000Y-65980000D01*
X131496674Y-65985568D01*
X131480000Y-66010000D01*
X131472576Y-66027494D01*
X131440000Y-66040000D01*
X131416674Y-66034431D01*
X131400000Y-66010000D01*
X131396516Y-65996009D01*
X131370000Y-65980000D01*
X131352506Y-65972575D01*
X131340000Y-65940000D01*
X131345569Y-65916673D01*
X131370000Y-65900000D01*
X131387495Y-65892575D01*
X131400000Y-65860000D01*
X131397712Y-65841942D01*
X131378246Y-65824474D01*
X131330000Y-65820000D01*
X131298399Y-65818692D01*
X131267831Y-65807568D01*
X131260000Y-65780000D01*
X131253427Y-65754142D01*
X131220000Y-65740000D01*
X131202284Y-65742206D01*
X131187871Y-65756762D01*
X131181460Y-65792977D01*
X131180000Y-65860000D01*
X131180000Y-65980000D01*
X131260000Y-65980000D01*
X131283607Y-65980156D01*
X131322625Y-65985263D01*
X131337579Y-66005181D01*
X131340000Y-66050000D01*
X131338693Y-66081601D01*
X131327569Y-66112169D01*
X131300000Y-66120000D01*
X131285967Y-66121173D01*
X131269243Y-66133315D01*
X131261737Y-66166431D01*
X131260000Y-66230000D01*
X131259574Y-66268591D01*
X131255159Y-66314582D01*
X131243116Y-66335225D01*
X131220000Y-66340000D01*
X131196674Y-66334431D01*
X131180000Y-66310000D01*
X131178549Y-66301375D01*
X131155627Y-66284953D01*
X131100000Y-66280000D01*
X131076394Y-66280156D01*
X131037376Y-66285263D01*
X131022422Y-66305181D01*
X131020000Y-66350000D01*
X131021308Y-66381601D01*
X131032432Y-66412169D01*
X131060000Y-66420000D01*
X131085858Y-66413426D01*
X131100000Y-66380000D01*
X131106574Y-66354142D01*
X131140000Y-66340000D01*
X131163088Y-66344529D01*
X131176646Y-66367661D01*
X131180000Y-66420000D01*
X131180000Y-66500000D01*
X131100000Y-66500000D01*
X131053825Y-66502264D01*
X131026709Y-66513830D01*
X131020000Y-66540000D01*
X131014432Y-66563326D01*
X130990000Y-66580000D01*
X130972506Y-66587424D01*
X130960000Y-66620000D01*
X130953427Y-66645857D01*
X130920000Y-66660000D01*
X130896674Y-66665568D01*
X130880000Y-66690000D01*
X130887425Y-66707494D01*
X130920000Y-66720000D01*
X130943327Y-66714431D01*
X130960000Y-66690000D01*
X130963485Y-66676009D01*
X130990000Y-66660000D01*
X131007495Y-66652575D01*
X131020000Y-66620000D01*
X131024530Y-66596912D01*
X131047662Y-66583354D01*
X131100000Y-66580000D01*
X131146176Y-66582264D01*
X131173292Y-66593830D01*
X131180000Y-66620000D01*
X131184530Y-66643087D01*
X131207662Y-66656645D01*
X131260000Y-66660000D01*
X131340000Y-66660000D01*
X131340000Y-66620000D01*
X131400000Y-66620000D01*
X131404530Y-66643087D01*
X131427662Y-66656645D01*
X131480000Y-66660000D01*
X131526176Y-66657735D01*
X131553292Y-66646169D01*
X131560000Y-66620000D01*
X131558038Y-66610000D01*
X131640000Y-66610000D01*
X131640396Y-66620000D01*
X131642594Y-66675471D01*
X131651909Y-66710124D01*
X131670000Y-66720000D01*
X131678625Y-66721451D01*
X131695047Y-66744373D01*
X131696438Y-66760000D01*
X131700000Y-66800000D01*
X131702265Y-66846175D01*
X131713831Y-66873291D01*
X131740000Y-66880000D01*
X131765858Y-66886573D01*
X131780000Y-66920000D01*
X131773427Y-66945857D01*
X131740000Y-66960000D01*
X131716674Y-66965568D01*
X131700000Y-66990000D01*
X131707425Y-67007494D01*
X131740000Y-67020000D01*
X131763327Y-67014431D01*
X131780000Y-66990000D01*
X131781452Y-66981375D01*
X131804374Y-66964953D01*
X131860000Y-66960000D01*
X131940000Y-66960000D01*
X131940000Y-66880000D01*
X131940000Y-66800000D01*
X131860000Y-66800000D01*
X131813825Y-66797735D01*
X131786709Y-66786169D01*
X131780000Y-66760000D01*
X131786574Y-66734142D01*
X131820000Y-66720000D01*
X131843327Y-66714431D01*
X131860000Y-66690000D01*
X131852576Y-66672505D01*
X131820000Y-66660000D01*
X131796674Y-66665568D01*
X131780000Y-66690000D01*
X131772576Y-66707494D01*
X131740000Y-66720000D01*
X131725967Y-66718826D01*
X131709243Y-66706684D01*
X131701737Y-66673568D01*
X131700000Y-66610000D01*
X131697407Y-66544528D01*
X131688092Y-66509875D01*
X131670000Y-66500000D01*
X131652145Y-66509510D01*
X131642694Y-66543663D01*
X131640000Y-66610000D01*
X131558038Y-66610000D01*
X131555471Y-66596912D01*
X131532339Y-66583354D01*
X131480000Y-66580000D01*
X131433825Y-66582264D01*
X131406709Y-66593830D01*
X131400000Y-66620000D01*
X131340000Y-66620000D01*
X131340000Y-66580000D01*
X131337736Y-66533824D01*
X131326170Y-66506708D01*
X131300000Y-66500000D01*
X131274143Y-66493426D01*
X131260000Y-66460000D01*
X131262289Y-66441942D01*
X131281755Y-66424474D01*
X131330000Y-66420000D01*
X131361602Y-66421307D01*
X131392170Y-66432431D01*
X131400000Y-66460000D01*
X131404530Y-66483087D01*
X131427662Y-66496645D01*
X131480000Y-66500000D01*
X131526176Y-66497735D01*
X131553292Y-66486169D01*
X131560000Y-66460000D01*
X131553427Y-66434142D01*
X131520000Y-66420000D01*
X131494143Y-66413426D01*
X131480000Y-66380000D01*
X131486574Y-66354142D01*
X131520000Y-66340000D01*
X131543327Y-66334431D01*
X131560000Y-66310000D01*
X131552576Y-66292505D01*
X131520000Y-66280000D01*
X131496674Y-66285568D01*
X131480000Y-66310000D01*
X131472576Y-66327494D01*
X131440000Y-66340000D01*
X131416674Y-66334431D01*
X131400000Y-66310000D01*
X131396516Y-66296009D01*
X131370000Y-66280000D01*
X131352506Y-66272575D01*
X131340000Y-66240000D01*
X131345569Y-66216673D01*
X131370000Y-66200000D01*
X131387495Y-66192575D01*
X131400000Y-66160000D01*
X131406574Y-66134142D01*
X131440000Y-66120000D01*
X131465858Y-66113426D01*
X131480000Y-66080000D01*
X131484530Y-66056912D01*
X131507662Y-66043354D01*
X131560000Y-66040000D01*
X131583000Y-66039455D01*
X131626790Y-66030859D01*
X131640000Y-66010000D01*
X131643485Y-65996009D01*
X131670000Y-65980000D01*
X131687495Y-65972575D01*
X131700000Y-65940000D01*
X131694432Y-65916673D01*
X131670000Y-65900000D01*
X131652506Y-65892575D01*
X131640000Y-65860000D01*
X131700000Y-65860000D01*
X131706574Y-65885857D01*
X131740000Y-65900000D01*
X131765858Y-65893426D01*
X131780000Y-65860000D01*
X131773427Y-65834142D01*
X131740000Y-65820000D01*
X131714143Y-65826573D01*
X131700000Y-65860000D01*
X131640000Y-65860000D01*
X131645569Y-65836673D01*
X131670000Y-65820000D01*
X131687856Y-65810489D01*
X131697307Y-65776336D01*
X131700000Y-65710000D01*
X131700427Y-65671408D01*
X131704842Y-65625417D01*
X131716885Y-65604774D01*
X131740000Y-65600000D01*
X131758058Y-65602288D01*
X131775526Y-65621754D01*
X131780000Y-65670000D01*
X131781308Y-65701601D01*
X131792432Y-65732169D01*
X131820000Y-65740000D01*
X131845858Y-65733426D01*
X131860000Y-65700000D01*
X131866574Y-65674142D01*
X131900000Y-65660000D01*
X131925858Y-65666573D01*
X131940000Y-65700000D01*
X131933427Y-65725857D01*
X131900000Y-65740000D01*
X131876913Y-65744529D01*
X131863355Y-65767661D01*
X131860000Y-65820000D01*
X131861962Y-65860000D01*
X131862265Y-65866175D01*
X131873831Y-65893291D01*
X131900000Y-65900000D01*
X131925858Y-65906573D01*
X131940000Y-65940000D01*
X131933427Y-65965857D01*
X131900000Y-65980000D01*
X131874143Y-65973426D01*
X131860000Y-65940000D01*
X131853427Y-65914142D01*
X131820000Y-65900000D01*
X131794143Y-65906573D01*
X131780000Y-65940000D01*
X131773427Y-65965857D01*
X131740000Y-65980000D01*
X131721943Y-65982288D01*
X131704475Y-66001754D01*
X131700000Y-66050000D01*
X131700000Y-66120000D01*
X131590000Y-66120000D01*
X131551409Y-66120426D01*
X131505418Y-66124841D01*
X131484775Y-66136884D01*
X131480000Y-66160000D01*
X131481174Y-66174033D01*
X131493316Y-66190757D01*
X131526432Y-66198263D01*
X131590000Y-66200000D01*
X131628592Y-66200426D01*
X131674583Y-66204841D01*
X131695226Y-66216884D01*
X131700000Y-66240000D01*
X131694432Y-66263326D01*
X131670000Y-66280000D01*
X131667268Y-66280126D01*
X131646506Y-66298226D01*
X131640000Y-66350000D01*
X131640055Y-66356375D01*
X131647812Y-66404820D01*
X131670000Y-66420000D01*
X131687495Y-66412575D01*
X131700000Y-66380000D01*
X131706574Y-66354142D01*
X131740000Y-66340000D01*
X131758058Y-66337711D01*
X131775526Y-66318245D01*
X131780000Y-66270000D01*
X131781308Y-66238398D01*
X131792432Y-66207830D01*
X131820000Y-66200000D01*
X131845858Y-66193426D01*
X131860000Y-66160000D01*
X131862289Y-66141942D01*
X131881755Y-66124474D01*
X131930000Y-66120000D01*
X131961602Y-66121307D01*
X131992170Y-66132431D01*
X132000000Y-66160000D01*
X131994432Y-66183326D01*
X131970000Y-66200000D01*
X131952506Y-66207424D01*
X131940000Y-66240000D01*
X131945569Y-66263326D01*
X131970000Y-66280000D01*
X131972733Y-66280126D01*
X131993495Y-66298226D01*
X132000000Y-66350000D01*
X131999946Y-66356375D01*
X131992189Y-66404820D01*
X131970000Y-66420000D01*
X131952506Y-66412575D01*
X131940000Y-66380000D01*
X131935471Y-66356912D01*
X131912339Y-66343354D01*
X131860000Y-66340000D01*
X131813825Y-66342264D01*
X131786709Y-66353830D01*
X131780000Y-66380000D01*
X131786574Y-66405857D01*
X131820000Y-66420000D01*
X131845858Y-66426573D01*
X131860000Y-66460000D01*
X131866574Y-66485857D01*
X131900000Y-66500000D01*
X131925858Y-66506573D01*
X131940000Y-66540000D01*
X131945569Y-66563326D01*
X131970000Y-66580000D01*
X131987495Y-66587424D01*
X132000000Y-66620000D01*
X131994432Y-66643326D01*
X131970000Y-66660000D01*
X131967268Y-66660126D01*
X131946506Y-66678226D01*
X131940000Y-66730000D01*
X131940055Y-66736375D01*
X131947812Y-66784820D01*
X131970000Y-66800000D01*
X131987856Y-66809510D01*
X131997307Y-66843663D01*
X132000000Y-66910000D01*
X132000000Y-67020000D01*
X131890000Y-67020000D01*
X131851409Y-67020426D01*
X131805418Y-67024841D01*
X131784775Y-67036884D01*
X131780000Y-67060000D01*
X131773427Y-67085857D01*
X131740000Y-67100000D01*
X131714143Y-67106573D01*
X131700000Y-67140000D01*
X131694432Y-67163326D01*
X131670000Y-67180000D01*
X131652506Y-67187424D01*
X131640000Y-67220000D01*
X131645569Y-67243326D01*
X131670000Y-67260000D01*
X131683991Y-67263484D01*
X131700000Y-67290000D01*
X131701452Y-67298624D01*
X131724374Y-67315046D01*
X131780000Y-67320000D01*
X131803000Y-67319455D01*
X131846790Y-67310859D01*
X131860000Y-67290000D01*
X131852576Y-67272505D01*
X131820000Y-67260000D01*
X131794143Y-67253426D01*
X131780000Y-67220000D01*
X131784530Y-67196912D01*
X131807662Y-67183354D01*
X131860000Y-67180000D01*
X131940000Y-67180000D01*
X131940000Y-67290000D01*
X131942594Y-67355471D01*
X131943811Y-67360000D01*
X131951909Y-67390124D01*
X131970000Y-67400000D01*
X131973615Y-67400236D01*
X131989529Y-67412911D01*
X131997697Y-67450321D01*
X132000000Y-67520000D01*
X131999941Y-67534458D01*
X131996773Y-67598114D01*
X131987420Y-67630784D01*
X131970000Y-67640000D01*
X131961376Y-67638548D01*
X131944954Y-67615626D01*
X131940000Y-67560000D01*
X131937736Y-67513824D01*
X131926170Y-67486708D01*
X131900000Y-67480000D01*
X131874143Y-67486573D01*
X131860000Y-67520000D01*
X131853427Y-67545857D01*
X131820000Y-67560000D01*
X131794143Y-67553426D01*
X131780000Y-67520000D01*
X131786574Y-67494142D01*
X131820000Y-67480000D01*
X131845858Y-67473426D01*
X131860000Y-67440000D01*
X131855471Y-67416912D01*
X131832339Y-67403354D01*
X131780000Y-67400000D01*
X131700000Y-67400000D01*
X131700000Y-67520000D01*
X131700000Y-67640000D01*
X131780000Y-67640000D01*
X131803000Y-67640544D01*
X131846790Y-67649140D01*
X131860000Y-67670000D01*
X131858549Y-67678624D01*
X131835627Y-67695046D01*
X131780000Y-67700000D01*
X131733825Y-67702264D01*
X131706709Y-67713830D01*
X131700000Y-67740000D01*
X131694432Y-67763326D01*
X131670000Y-67780000D01*
X131652506Y-67787424D01*
X131640000Y-67820000D01*
X131633427Y-67845857D01*
X131600000Y-67860000D01*
X131574143Y-67866573D01*
X131560000Y-67900000D01*
X131553427Y-67925857D01*
X131520000Y-67940000D01*
X131494143Y-67933426D01*
X131480000Y-67900000D01*
X131486574Y-67874142D01*
X131520000Y-67860000D01*
X131545858Y-67853426D01*
X131560000Y-67820000D01*
X131553427Y-67794142D01*
X131520000Y-67780000D01*
X131494143Y-67773426D01*
X131480000Y-67740000D01*
X131484530Y-67716912D01*
X131507662Y-67703354D01*
X131560000Y-67700000D01*
X131583000Y-67699455D01*
X131626790Y-67690859D01*
X131640000Y-67670000D01*
X131638549Y-67661375D01*
X131615627Y-67644953D01*
X131560000Y-67640000D01*
X131513825Y-67637735D01*
X131486709Y-67626169D01*
X131480000Y-67600000D01*
X131484530Y-67576912D01*
X131507662Y-67563354D01*
X131560000Y-67560000D01*
X131606176Y-67557735D01*
X131633292Y-67546169D01*
X131640000Y-67520000D01*
X131639765Y-67512799D01*
X131633287Y-67495134D01*
X131611693Y-67485252D01*
X131566694Y-67480944D01*
X131490000Y-67480000D01*
X131340000Y-67480000D01*
X131340000Y-67370000D01*
X131339890Y-67360000D01*
X131400000Y-67360000D01*
X131400236Y-67367200D01*
X131406714Y-67384865D01*
X131428308Y-67394747D01*
X131473307Y-67399055D01*
X131550000Y-67400000D01*
X131577002Y-67399937D01*
X131643247Y-67398209D01*
X131680303Y-67392451D01*
X131696458Y-67380451D01*
X131700000Y-67360000D01*
X131694432Y-67336673D01*
X131670000Y-67320000D01*
X131656010Y-67316515D01*
X131640000Y-67290000D01*
X131632576Y-67272505D01*
X131600000Y-67260000D01*
X131576674Y-67265568D01*
X131560000Y-67290000D01*
X131558549Y-67298624D01*
X131535627Y-67315046D01*
X131480000Y-67320000D01*
X131433825Y-67322264D01*
X131406709Y-67333830D01*
X131400000Y-67360000D01*
X131339890Y-67360000D01*
X131339574Y-67331408D01*
X131335159Y-67285417D01*
X131323116Y-67264774D01*
X131300000Y-67260000D01*
X131292800Y-67260235D01*
X131275135Y-67266713D01*
X131265253Y-67288307D01*
X131260945Y-67333306D01*
X131260000Y-67410000D01*
X131260000Y-67560000D01*
X131330000Y-67560000D01*
X131400000Y-67560000D01*
X131400000Y-67750000D01*
X131399935Y-67777556D01*
X131398209Y-67858683D01*
X131393351Y-67908329D01*
X131384301Y-67933200D01*
X131370000Y-67940000D01*
X131361376Y-67938548D01*
X131344954Y-67915626D01*
X131340000Y-67860000D01*
X131340000Y-67780000D01*
X131220000Y-67780000D01*
X131166850Y-67780735D01*
X131123613Y-67785587D01*
X131104379Y-67797659D01*
X131100000Y-67820000D01*
X131093427Y-67845857D01*
X131060000Y-67860000D01*
X131041943Y-67862288D01*
X131024475Y-67881754D01*
X131020000Y-67930000D01*
X131019946Y-67936375D01*
X131012189Y-67984820D01*
X130990000Y-68000000D01*
X130972506Y-68007424D01*
X130960000Y-68040000D01*
X130965569Y-68063326D01*
X130990000Y-68080000D01*
X131007495Y-68087424D01*
X131020000Y-68120000D01*
X131024530Y-68143087D01*
X131047662Y-68156645D01*
X131100000Y-68160000D01*
X131146176Y-68162264D01*
X131173292Y-68173830D01*
X131180000Y-68200000D01*
X131186574Y-68225857D01*
X131220000Y-68240000D01*
X131245858Y-68233426D01*
X131260000Y-68200000D01*
X131266574Y-68174142D01*
X131300000Y-68160000D01*
X131325858Y-68166573D01*
X131340000Y-68200000D01*
X131345569Y-68223326D01*
X131370000Y-68240000D01*
X131387495Y-68247424D01*
X131400000Y-68280000D01*
X131394432Y-68303326D01*
X131370000Y-68320000D01*
X131356010Y-68323484D01*
X131340000Y-68350000D01*
X131343485Y-68363990D01*
X131370000Y-68380000D01*
X131387495Y-68387424D01*
X131400000Y-68420000D01*
X131397712Y-68438057D01*
X131378246Y-68455525D01*
X131330000Y-68460000D01*
X131298399Y-68458692D01*
X131267831Y-68447568D01*
X131260000Y-68420000D01*
X131253427Y-68394142D01*
X131220000Y-68380000D01*
X131196913Y-68384529D01*
X131183355Y-68407661D01*
X131180000Y-68460000D01*
X131180000Y-68540000D01*
X131070000Y-68540000D01*
X131031409Y-68539573D01*
X130985418Y-68535158D01*
X130964775Y-68523115D01*
X130960000Y-68500000D01*
X130953427Y-68474142D01*
X130920000Y-68460000D01*
X130894143Y-68466573D01*
X130880000Y-68500000D01*
X130873427Y-68525857D01*
X130840000Y-68540000D01*
X130814143Y-68546573D01*
X130800000Y-68580000D01*
X130806574Y-68605857D01*
X130840000Y-68620000D01*
X130863327Y-68625568D01*
X130880000Y-68650000D01*
X130872576Y-68667494D01*
X130840000Y-68680000D01*
X130816674Y-68674431D01*
X130800000Y-68650000D01*
X130792576Y-68632505D01*
X130760000Y-68620000D01*
X130741943Y-68622288D01*
X130724475Y-68641754D01*
X130720000Y-68690000D01*
X130720000Y-68760000D01*
X130840000Y-68760000D01*
X130893151Y-68760735D01*
X130936388Y-68765587D01*
X130955622Y-68777659D01*
X130960000Y-68800000D01*
X130953427Y-68825857D01*
X130920000Y-68840000D01*
X130894143Y-68846573D01*
X130880000Y-68880000D01*
X130886574Y-68905857D01*
X130920000Y-68920000D01*
X130945858Y-68913426D01*
X130960000Y-68880000D01*
X130965569Y-68856673D01*
X130990000Y-68840000D01*
X130998625Y-68838548D01*
X131015047Y-68815626D01*
X131016438Y-68800000D01*
X131100000Y-68800000D01*
X131104530Y-68823087D01*
X131127662Y-68836645D01*
X131180000Y-68840000D01*
X131260000Y-68840000D01*
X131260000Y-68760000D01*
X131257736Y-68713824D01*
X131246170Y-68686708D01*
X131220000Y-68680000D01*
X131194143Y-68686573D01*
X131180000Y-68720000D01*
X131173427Y-68745857D01*
X131140000Y-68760000D01*
X131114143Y-68766573D01*
X131100000Y-68800000D01*
X131016438Y-68800000D01*
X131020000Y-68760000D01*
X131019456Y-68737000D01*
X131010860Y-68693210D01*
X130990000Y-68680000D01*
X130976010Y-68676515D01*
X130960000Y-68650000D01*
X130960418Y-68645648D01*
X130971344Y-68632839D01*
X131002112Y-68625000D01*
X131059429Y-68621073D01*
X131150000Y-68620000D01*
X131177557Y-68620065D01*
X131258684Y-68621791D01*
X131308330Y-68626649D01*
X131333201Y-68635699D01*
X131340000Y-68650000D01*
X131343485Y-68663990D01*
X131370000Y-68680000D01*
X131387495Y-68687424D01*
X131400000Y-68720000D01*
X131394432Y-68743326D01*
X131370000Y-68760000D01*
X131361376Y-68761451D01*
X131344954Y-68784373D01*
X131340000Y-68840000D01*
X131337736Y-68886175D01*
X131326170Y-68913291D01*
X131300000Y-68920000D01*
X131274143Y-68926573D01*
X131260000Y-68960000D01*
X131253427Y-68985857D01*
X131220000Y-69000000D01*
X131194143Y-68993426D01*
X131180000Y-68960000D01*
X131173427Y-68934142D01*
X131140000Y-68920000D01*
X131114143Y-68926573D01*
X131100000Y-68960000D01*
X131097466Y-68977839D01*
X131084621Y-68989877D01*
X131054042Y-68996542D01*
X130998308Y-68999395D01*
X130910000Y-69000000D01*
X130825265Y-68999466D01*
X130768082Y-68996762D01*
X130736423Y-68990324D01*
X130722870Y-68978591D01*
X130720000Y-68960000D01*
X130726574Y-68934142D01*
X130760000Y-68920000D01*
X130785858Y-68913426D01*
X130800000Y-68880000D01*
X130797712Y-68861942D01*
X130778246Y-68844474D01*
X130730000Y-68840000D01*
X130698399Y-68841307D01*
X130667831Y-68852431D01*
X130660000Y-68880000D01*
X130655471Y-68903087D01*
X130632339Y-68916645D01*
X130580000Y-68920000D01*
X130533825Y-68922264D01*
X130506709Y-68933830D01*
X130500000Y-68960000D01*
X130493427Y-68985857D01*
X130460000Y-69000000D01*
X130434143Y-68993426D01*
X130420000Y-68960000D01*
X130419765Y-68952799D01*
X130413287Y-68935134D01*
X130391693Y-68925252D01*
X130346694Y-68920944D01*
X130270000Y-68920000D01*
X130242999Y-68920062D01*
X130176754Y-68921790D01*
X130139698Y-68927548D01*
X130123543Y-68939548D01*
X130120000Y-68960000D01*
X130117712Y-68978057D01*
X130098246Y-68995525D01*
X130050000Y-69000000D01*
X130018399Y-68998692D01*
X129987831Y-68987568D01*
X129980000Y-68960000D01*
X129973427Y-68934142D01*
X129940000Y-68920000D01*
X129914143Y-68926573D01*
X129900000Y-68960000D01*
X129893427Y-68985857D01*
X129860000Y-69000000D01*
X129836913Y-68995470D01*
X129823355Y-68972338D01*
X129820000Y-68920000D01*
X129819844Y-68896393D01*
X129814737Y-68857375D01*
X129794819Y-68842421D01*
X129750000Y-68840000D01*
X129718399Y-68841307D01*
X129687831Y-68852431D01*
X129680000Y-68880000D01*
X129685569Y-68903326D01*
X129710000Y-68920000D01*
X129727495Y-68927424D01*
X129740000Y-68960000D01*
X129734432Y-68983326D01*
X129710000Y-69000000D01*
X129692506Y-68992575D01*
X129680000Y-68960000D01*
X129673427Y-68934142D01*
X129640000Y-68920000D01*
X129614143Y-68926573D01*
X129600000Y-68960000D01*
X129593427Y-68985857D01*
X129560000Y-69000000D01*
X129536913Y-68995470D01*
X129523355Y-68972338D01*
X129520000Y-68920000D01*
X129520000Y-68840000D01*
X129410000Y-68840000D01*
X129371409Y-68839573D01*
X129325418Y-68835158D01*
X129304775Y-68823115D01*
X129300000Y-68800000D01*
X129305569Y-68776673D01*
X129330000Y-68760000D01*
X129347495Y-68752575D01*
X129360000Y-68720000D01*
X129357712Y-68701942D01*
X129338246Y-68684474D01*
X129290000Y-68680000D01*
X129220000Y-68680000D01*
X129220000Y-68570000D01*
X129219574Y-68531408D01*
X129215159Y-68485417D01*
X129206165Y-68470000D01*
X129300000Y-68470000D01*
X129300688Y-68527581D01*
X129304888Y-68583747D01*
X129314176Y-68612142D01*
X129330000Y-68620000D01*
X129347495Y-68612575D01*
X129348483Y-68610000D01*
X129520000Y-68610000D01*
X129521308Y-68641601D01*
X129532432Y-68672169D01*
X129560000Y-68680000D01*
X129578058Y-68677711D01*
X129595526Y-68658245D01*
X129600000Y-68610000D01*
X129598693Y-68578398D01*
X129587569Y-68547830D01*
X129560000Y-68540000D01*
X129541943Y-68542288D01*
X129524475Y-68561754D01*
X129520000Y-68610000D01*
X129348483Y-68610000D01*
X129360000Y-68580000D01*
X129366574Y-68554142D01*
X129400000Y-68540000D01*
X129425858Y-68533426D01*
X129440000Y-68500000D01*
X129433427Y-68474142D01*
X129400000Y-68460000D01*
X129374143Y-68453426D01*
X129360000Y-68420000D01*
X129364530Y-68396912D01*
X129387662Y-68383354D01*
X129440000Y-68380000D01*
X129486176Y-68382264D01*
X129513292Y-68393830D01*
X129520000Y-68420000D01*
X129526574Y-68445857D01*
X129560000Y-68460000D01*
X129585858Y-68453426D01*
X129600000Y-68420000D01*
X129606574Y-68394142D01*
X129640000Y-68380000D01*
X129663327Y-68374431D01*
X129680000Y-68350000D01*
X129672576Y-68332505D01*
X129640000Y-68320000D01*
X129616674Y-68325568D01*
X129600000Y-68350000D01*
X129592576Y-68367494D01*
X129560000Y-68380000D01*
X129536674Y-68374431D01*
X129520000Y-68350000D01*
X129512576Y-68332505D01*
X129480000Y-68320000D01*
X129454143Y-68313426D01*
X129440000Y-68280000D01*
X129433427Y-68254142D01*
X129400000Y-68240000D01*
X129374143Y-68246573D01*
X129360000Y-68280000D01*
X129354432Y-68303326D01*
X129330000Y-68320000D01*
X129318484Y-68323436D01*
X129307251Y-68344435D01*
X129301572Y-68390879D01*
X129300000Y-68470000D01*
X129206165Y-68470000D01*
X129203116Y-68464774D01*
X129180000Y-68460000D01*
X129161943Y-68457711D01*
X129144475Y-68438245D01*
X129140000Y-68390000D01*
X129141308Y-68358398D01*
X129152432Y-68327830D01*
X129180000Y-68320000D01*
X129205858Y-68313426D01*
X129220000Y-68280000D01*
X129226574Y-68254142D01*
X129260000Y-68240000D01*
X129285858Y-68233426D01*
X129300000Y-68200000D01*
X129297794Y-68182283D01*
X129283238Y-68167870D01*
X129247023Y-68161459D01*
X129180000Y-68160000D01*
X129060000Y-68160000D01*
X129060000Y-68350000D01*
X129059935Y-68377556D01*
X129058209Y-68458683D01*
X129053351Y-68508329D01*
X129044301Y-68533200D01*
X129030000Y-68540000D01*
X129027268Y-68540126D01*
X129006506Y-68558226D01*
X129000000Y-68610000D01*
X129000055Y-68616375D01*
X129007812Y-68664820D01*
X129030000Y-68680000D01*
X129047495Y-68687424D01*
X129060000Y-68720000D01*
X129054432Y-68743326D01*
X129030000Y-68760000D01*
X129021376Y-68761451D01*
X129004954Y-68784373D01*
X129000000Y-68840000D01*
X128997736Y-68886175D01*
X128986170Y-68913291D01*
X128960000Y-68920000D01*
X128934143Y-68926573D01*
X128920000Y-68960000D01*
X128917794Y-68977716D01*
X128903238Y-68992129D01*
X128867023Y-68998540D01*
X128800000Y-69000000D01*
X128746850Y-68999264D01*
X128703613Y-68994412D01*
X128684379Y-68982340D01*
X128680000Y-68960000D01*
X128686574Y-68934142D01*
X128720000Y-68920000D01*
X128745858Y-68913426D01*
X128760000Y-68880000D01*
X128766574Y-68854142D01*
X128800000Y-68840000D01*
X128825858Y-68833426D01*
X128840000Y-68800000D01*
X128846574Y-68774142D01*
X128880000Y-68760000D01*
X128898058Y-68757711D01*
X128915526Y-68738245D01*
X128920000Y-68690000D01*
X128920000Y-68620000D01*
X128800000Y-68620000D01*
X128785542Y-68620059D01*
X128721886Y-68623227D01*
X128689216Y-68632580D01*
X128680000Y-68650000D01*
X128676516Y-68663990D01*
X128650000Y-68680000D01*
X128636713Y-68685093D01*
X128626540Y-68708637D01*
X128621414Y-68757905D01*
X128620000Y-68840000D01*
X128620000Y-69000000D01*
X128540000Y-69000000D01*
X128493825Y-68997735D01*
X128466709Y-68986169D01*
X128460000Y-68960000D01*
X128453427Y-68934142D01*
X128420000Y-68920000D01*
X128394143Y-68926573D01*
X128380000Y-68960000D01*
X128374432Y-68983326D01*
X128350000Y-69000000D01*
X128332506Y-68992575D01*
X128320000Y-68960000D01*
X128313427Y-68934142D01*
X128280000Y-68920000D01*
X128256913Y-68915470D01*
X128243355Y-68892338D01*
X128240000Y-68840000D01*
X128242265Y-68793824D01*
X128253831Y-68766708D01*
X128280000Y-68760000D01*
X128305858Y-68753426D01*
X128320000Y-68720000D01*
X128380000Y-68720000D01*
X128386574Y-68745857D01*
X128420000Y-68760000D01*
X128443088Y-68764529D01*
X128456646Y-68787661D01*
X128460000Y-68840000D01*
X128462265Y-68886175D01*
X128473831Y-68913291D01*
X128500000Y-68920000D01*
X128523088Y-68915470D01*
X128536646Y-68892338D01*
X128540000Y-68840000D01*
X128537736Y-68793824D01*
X128526170Y-68766708D01*
X128500000Y-68760000D01*
X128474143Y-68753426D01*
X128460000Y-68720000D01*
X128453427Y-68694142D01*
X128420000Y-68680000D01*
X128394143Y-68686573D01*
X128380000Y-68720000D01*
X128320000Y-68720000D01*
X128313427Y-68694142D01*
X128280000Y-68680000D01*
X128256674Y-68674431D01*
X128240000Y-68650000D01*
X128232576Y-68632505D01*
X128200000Y-68620000D01*
X128176674Y-68625568D01*
X128160000Y-68650000D01*
X128152576Y-68667494D01*
X128120000Y-68680000D01*
X128094143Y-68686573D01*
X128080000Y-68720000D01*
X128086574Y-68745857D01*
X128120000Y-68760000D01*
X128137717Y-68762206D01*
X128152130Y-68776762D01*
X128158541Y-68812977D01*
X128160000Y-68880000D01*
X128159265Y-68933150D01*
X128154413Y-68976387D01*
X128142341Y-68995621D01*
X128120000Y-69000000D01*
X128096913Y-68995470D01*
X128083355Y-68972338D01*
X128080000Y-68920000D01*
X128077736Y-68873824D01*
X128066170Y-68846708D01*
X128040000Y-68840000D01*
X128032800Y-68839764D01*
X128015135Y-68833286D01*
X128005253Y-68811692D01*
X128000945Y-68766693D01*
X128000000Y-68690000D01*
X128000063Y-68662998D01*
X128001791Y-68596753D01*
X128004394Y-68580000D01*
X128080000Y-68580000D01*
X128086574Y-68605857D01*
X128120000Y-68620000D01*
X128145858Y-68613426D01*
X128160000Y-68580000D01*
X128153427Y-68554142D01*
X128120000Y-68540000D01*
X128094143Y-68546573D01*
X128080000Y-68580000D01*
X128004394Y-68580000D01*
X128007549Y-68559697D01*
X128019549Y-68543542D01*
X128040000Y-68540000D01*
X128065858Y-68533426D01*
X128080000Y-68500000D01*
X128073427Y-68474142D01*
X128040000Y-68460000D01*
X128014143Y-68453426D01*
X128000000Y-68420000D01*
X128160000Y-68420000D01*
X128166574Y-68445857D01*
X128200000Y-68460000D01*
X128223088Y-68464529D01*
X128236646Y-68487661D01*
X128240000Y-68540000D01*
X128241962Y-68580000D01*
X128242265Y-68586175D01*
X128253831Y-68613291D01*
X128280000Y-68620000D01*
X128380000Y-68620000D01*
X128500000Y-68620000D01*
X128620000Y-68620000D01*
X128620000Y-68500000D01*
X128620000Y-68380000D01*
X128500000Y-68380000D01*
X128380000Y-68380000D01*
X128380000Y-68500000D01*
X128380000Y-68540000D01*
X128380000Y-68620000D01*
X128280000Y-68620000D01*
X128303088Y-68615470D01*
X128316646Y-68592338D01*
X128320000Y-68540000D01*
X128317736Y-68493824D01*
X128306170Y-68466708D01*
X128280000Y-68460000D01*
X128254143Y-68453426D01*
X128240000Y-68420000D01*
X128233427Y-68394142D01*
X128200000Y-68380000D01*
X128174143Y-68386573D01*
X128160000Y-68420000D01*
X128000000Y-68420000D01*
X128004530Y-68396912D01*
X128027662Y-68383354D01*
X128080000Y-68380000D01*
X128103000Y-68379455D01*
X128146790Y-68370859D01*
X128160000Y-68350000D01*
X128158549Y-68341375D01*
X128135627Y-68324953D01*
X128080000Y-68320000D01*
X128000000Y-68320000D01*
X128000000Y-68200000D01*
X128080000Y-68200000D01*
X128086574Y-68225857D01*
X128120000Y-68240000D01*
X128145858Y-68246573D01*
X128160000Y-68280000D01*
X128166574Y-68305857D01*
X128200000Y-68320000D01*
X128225858Y-68313426D01*
X128240000Y-68280000D01*
X128233427Y-68254142D01*
X128200000Y-68240000D01*
X128174143Y-68233426D01*
X128160000Y-68200000D01*
X128153427Y-68174142D01*
X128120000Y-68160000D01*
X128094143Y-68166573D01*
X128080000Y-68200000D01*
X128000000Y-68200000D01*
X128000000Y-68090000D01*
X128000000Y-67860000D01*
X128120000Y-67860000D01*
X128173151Y-67860735D01*
X128216388Y-67865587D01*
X128235622Y-67877659D01*
X128240000Y-67900000D01*
X128233427Y-67925857D01*
X128200000Y-67940000D01*
X128185967Y-67941173D01*
X128169243Y-67953315D01*
X128161737Y-67986431D01*
X128160000Y-68050000D01*
X128160427Y-68088591D01*
X128164842Y-68134582D01*
X128176885Y-68155225D01*
X128200000Y-68160000D01*
X128223088Y-68155470D01*
X128236646Y-68132338D01*
X128240000Y-68080000D01*
X128242265Y-68033824D01*
X128253831Y-68006708D01*
X128280000Y-68000000D01*
X128303088Y-68004529D01*
X128316646Y-68027661D01*
X128320000Y-68080000D01*
X128320545Y-68102999D01*
X128329141Y-68146789D01*
X128350000Y-68160000D01*
X128367495Y-68167424D01*
X128380000Y-68200000D01*
X128374432Y-68223326D01*
X128350000Y-68240000D01*
X128332506Y-68247424D01*
X128320000Y-68280000D01*
X128325569Y-68303326D01*
X128350000Y-68320000D01*
X128367495Y-68312575D01*
X128380000Y-68280000D01*
X128460000Y-68280000D01*
X128464530Y-68303087D01*
X128487662Y-68316645D01*
X128540000Y-68320000D01*
X128586176Y-68317735D01*
X128613292Y-68306169D01*
X128620000Y-68280000D01*
X128625569Y-68256673D01*
X128650000Y-68240000D01*
X128667495Y-68232575D01*
X128680000Y-68200000D01*
X128686574Y-68174142D01*
X128720000Y-68160000D01*
X128743088Y-68164529D01*
X128756646Y-68187661D01*
X128760000Y-68240000D01*
X128757736Y-68286175D01*
X128746170Y-68313291D01*
X128720000Y-68320000D01*
X128696674Y-68325568D01*
X128680000Y-68350000D01*
X128687425Y-68367494D01*
X128720000Y-68380000D01*
X128743088Y-68384529D01*
X128756646Y-68407661D01*
X128760000Y-68460000D01*
X128761962Y-68500000D01*
X128762265Y-68506175D01*
X128773831Y-68533291D01*
X128800000Y-68540000D01*
X128823088Y-68535470D01*
X128836646Y-68512338D01*
X128840000Y-68460000D01*
X128837736Y-68413824D01*
X128826170Y-68386708D01*
X128800000Y-68380000D01*
X128776674Y-68374431D01*
X128760000Y-68350000D01*
X128920000Y-68350000D01*
X128927425Y-68367494D01*
X128960000Y-68380000D01*
X128983327Y-68374431D01*
X129000000Y-68350000D01*
X128992576Y-68332505D01*
X128960000Y-68320000D01*
X128936674Y-68325568D01*
X128920000Y-68350000D01*
X128760000Y-68350000D01*
X128767425Y-68332505D01*
X128800000Y-68320000D01*
X128810547Y-68319411D01*
X128826450Y-68311378D01*
X128835319Y-68287496D01*
X128839165Y-68239718D01*
X128840000Y-68160000D01*
X128839853Y-68117814D01*
X128837845Y-68054201D01*
X128831875Y-68018725D01*
X128819930Y-68003340D01*
X128800000Y-68000000D01*
X128776674Y-67994431D01*
X128760000Y-67970000D01*
X128767425Y-67952505D01*
X128800000Y-67940000D01*
X128823327Y-67945568D01*
X128840000Y-67970000D01*
X128847425Y-67987494D01*
X128880000Y-68000000D01*
X128905858Y-68006573D01*
X128920000Y-68040000D01*
X128926574Y-68065857D01*
X128960000Y-68080000D01*
X128985858Y-68086573D01*
X129000000Y-68120000D01*
X128993427Y-68145857D01*
X128960000Y-68160000D01*
X128934143Y-68166573D01*
X128920000Y-68200000D01*
X128926574Y-68225857D01*
X128960000Y-68240000D01*
X128985858Y-68233426D01*
X129000000Y-68200000D01*
X129005569Y-68176673D01*
X129030000Y-68160000D01*
X129047495Y-68152575D01*
X129060000Y-68120000D01*
X129066574Y-68094142D01*
X129100000Y-68080000D01*
X129118058Y-68077711D01*
X129135526Y-68058245D01*
X129140000Y-68010000D01*
X129138693Y-67978398D01*
X129127569Y-67947830D01*
X129100000Y-67940000D01*
X129074143Y-67933426D01*
X129060000Y-67900000D01*
X129066574Y-67874142D01*
X129100000Y-67860000D01*
X129125858Y-67853426D01*
X129140000Y-67820000D01*
X129133427Y-67794142D01*
X129100000Y-67780000D01*
X129074143Y-67786573D01*
X129060000Y-67820000D01*
X129054432Y-67843326D01*
X129030000Y-67860000D01*
X129012506Y-67867424D01*
X129000000Y-67900000D01*
X129005569Y-67923326D01*
X129030000Y-67940000D01*
X129043991Y-67943484D01*
X129060000Y-67970000D01*
X129059874Y-67972732D01*
X129041774Y-67993494D01*
X128990000Y-68000000D01*
X128920000Y-68000000D01*
X128920000Y-67890000D01*
X128920000Y-67780000D01*
X128840000Y-67780000D01*
X128816394Y-67779843D01*
X128777376Y-67774736D01*
X128762422Y-67754818D01*
X128760000Y-67710000D01*
X128760000Y-67640000D01*
X128880000Y-67640000D01*
X129000000Y-67640000D01*
X129000000Y-67560000D01*
X128997736Y-67513824D01*
X128986170Y-67486708D01*
X128960000Y-67480000D01*
X129060000Y-67480000D01*
X129060000Y-67590000D01*
X129060000Y-67700000D01*
X129140000Y-67700000D01*
X129163000Y-67699455D01*
X129206790Y-67690859D01*
X129220000Y-67670000D01*
X129227425Y-67652505D01*
X129260000Y-67640000D01*
X129274034Y-67641173D01*
X129290758Y-67653315D01*
X129298264Y-67686431D01*
X129300000Y-67750000D01*
X129302594Y-67815471D01*
X129303811Y-67820000D01*
X129311909Y-67850124D01*
X129330000Y-67860000D01*
X129347856Y-67850489D01*
X129357307Y-67816336D01*
X129360000Y-67750000D01*
X129357407Y-67684528D01*
X129348092Y-67649875D01*
X129330000Y-67640000D01*
X129312506Y-67632575D01*
X129300000Y-67600000D01*
X129440000Y-67600000D01*
X129446574Y-67625857D01*
X129480000Y-67640000D01*
X129503327Y-67645568D01*
X129520000Y-67670000D01*
X129527425Y-67687494D01*
X129560000Y-67700000D01*
X129583327Y-67694431D01*
X129600000Y-67670000D01*
X129607425Y-67652505D01*
X129640000Y-67640000D01*
X129665858Y-67633426D01*
X129680000Y-67600000D01*
X129673427Y-67574142D01*
X129640000Y-67560000D01*
X129614143Y-67566573D01*
X129600000Y-67600000D01*
X129593427Y-67625857D01*
X129560000Y-67640000D01*
X129534143Y-67633426D01*
X129520000Y-67600000D01*
X129513427Y-67574142D01*
X129480000Y-67560000D01*
X129454143Y-67566573D01*
X129440000Y-67600000D01*
X129300000Y-67600000D01*
X129305569Y-67576673D01*
X129330000Y-67560000D01*
X129347495Y-67552575D01*
X129360000Y-67520000D01*
X129359765Y-67512799D01*
X129353287Y-67495134D01*
X129331693Y-67485252D01*
X129286694Y-67480944D01*
X129210000Y-67480000D01*
X129060000Y-67480000D01*
X128960000Y-67480000D01*
X128934143Y-67486573D01*
X128920000Y-67520000D01*
X128913427Y-67545857D01*
X128880000Y-67560000D01*
X128856913Y-67555470D01*
X128843355Y-67532338D01*
X128840000Y-67480000D01*
X128840000Y-67400000D01*
X128760000Y-67400000D01*
X128680000Y-67400000D01*
X128680000Y-67520000D01*
X128679941Y-67534458D01*
X128676773Y-67598114D01*
X128667420Y-67630784D01*
X128650000Y-67640000D01*
X128636010Y-67643484D01*
X128620000Y-67670000D01*
X128623485Y-67683990D01*
X128650000Y-67700000D01*
X128667495Y-67707424D01*
X128680000Y-67740000D01*
X128686574Y-67765857D01*
X128720000Y-67780000D01*
X128743088Y-67784529D01*
X128756646Y-67807661D01*
X128760000Y-67860000D01*
X128757736Y-67906175D01*
X128746170Y-67933291D01*
X128720000Y-67940000D01*
X128694143Y-67933426D01*
X128680000Y-67900000D01*
X128674432Y-67876673D01*
X128650000Y-67860000D01*
X128632506Y-67867424D01*
X128620000Y-67900000D01*
X128625569Y-67923326D01*
X128650000Y-67940000D01*
X128663991Y-67943484D01*
X128680000Y-67970000D01*
X128687425Y-67987494D01*
X128720000Y-68000000D01*
X128745858Y-68006573D01*
X128760000Y-68040000D01*
X128757712Y-68058057D01*
X128738246Y-68075525D01*
X128690000Y-68080000D01*
X128658399Y-68078692D01*
X128627831Y-68067568D01*
X128620000Y-68040000D01*
X128613427Y-68014142D01*
X128580000Y-68000000D01*
X128554143Y-68006573D01*
X128540000Y-68040000D01*
X128546574Y-68065857D01*
X128580000Y-68080000D01*
X128605858Y-68086573D01*
X128620000Y-68120000D01*
X128613427Y-68145857D01*
X128580000Y-68160000D01*
X128554143Y-68166573D01*
X128540000Y-68200000D01*
X128533427Y-68225857D01*
X128500000Y-68240000D01*
X128474143Y-68246573D01*
X128460000Y-68280000D01*
X128380000Y-68280000D01*
X128386574Y-68254142D01*
X128420000Y-68240000D01*
X128445858Y-68233426D01*
X128460000Y-68200000D01*
X128466574Y-68174142D01*
X128500000Y-68160000D01*
X128525858Y-68153426D01*
X128540000Y-68120000D01*
X128535471Y-68096912D01*
X128512339Y-68083354D01*
X128460000Y-68080000D01*
X128413825Y-68077735D01*
X128386709Y-68066169D01*
X128380000Y-68040000D01*
X128386574Y-68014142D01*
X128420000Y-68000000D01*
X128443327Y-67994431D01*
X128460000Y-67970000D01*
X128459874Y-67967267D01*
X128441774Y-67946505D01*
X128390000Y-67940000D01*
X128358399Y-67938692D01*
X128327831Y-67927568D01*
X128320000Y-67900000D01*
X128322289Y-67881942D01*
X128341755Y-67864474D01*
X128390000Y-67860000D01*
X128421602Y-67858692D01*
X128452170Y-67847568D01*
X128460000Y-67820000D01*
X128453427Y-67794142D01*
X128420000Y-67780000D01*
X128394143Y-67773426D01*
X128380000Y-67740000D01*
X128460000Y-67740000D01*
X128464530Y-67763087D01*
X128487662Y-67776645D01*
X128540000Y-67780000D01*
X128586176Y-67777735D01*
X128613292Y-67766169D01*
X128620000Y-67740000D01*
X128615471Y-67716912D01*
X128592339Y-67703354D01*
X128540000Y-67700000D01*
X128493825Y-67702264D01*
X128466709Y-67713830D01*
X128460000Y-67740000D01*
X128380000Y-67740000D01*
X128374432Y-67716673D01*
X128350000Y-67700000D01*
X128336010Y-67696515D01*
X128320000Y-67670000D01*
X128312576Y-67652505D01*
X128280000Y-67640000D01*
X128256674Y-67645568D01*
X128240000Y-67670000D01*
X128232576Y-67687494D01*
X128200000Y-67700000D01*
X128176674Y-67694431D01*
X128160000Y-67670000D01*
X128152576Y-67652505D01*
X128120000Y-67640000D01*
X128094143Y-67633426D01*
X128080000Y-67600000D01*
X128082207Y-67582283D01*
X128096763Y-67567870D01*
X128132978Y-67561459D01*
X128200000Y-67560000D01*
X128253151Y-67560735D01*
X128296388Y-67565587D01*
X128315622Y-67577659D01*
X128320000Y-67600000D01*
X128320236Y-67607200D01*
X128326714Y-67624865D01*
X128348308Y-67634747D01*
X128393307Y-67639055D01*
X128470000Y-67640000D01*
X128620000Y-67640000D01*
X128620000Y-67560000D01*
X128620000Y-67480000D01*
X128500000Y-67480000D01*
X128380000Y-67480000D01*
X128380000Y-67370000D01*
X128380000Y-67360000D01*
X128460000Y-67360000D01*
X128466574Y-67385857D01*
X128500000Y-67400000D01*
X128525858Y-67393426D01*
X128540000Y-67360000D01*
X128533427Y-67334142D01*
X128500000Y-67320000D01*
X128474143Y-67326573D01*
X128460000Y-67360000D01*
X128380000Y-67360000D01*
X128380000Y-67260000D01*
X128460000Y-67260000D01*
X128483000Y-67260544D01*
X128526790Y-67269140D01*
X128540000Y-67290000D01*
X128547425Y-67307494D01*
X128580000Y-67320000D01*
X128603327Y-67314431D01*
X128620000Y-67290000D01*
X128623485Y-67276009D01*
X128650000Y-67260000D01*
X128663991Y-67263484D01*
X128680000Y-67290000D01*
X128687425Y-67307494D01*
X128720000Y-67320000D01*
X128743327Y-67314431D01*
X128760000Y-67290000D01*
X128761452Y-67281375D01*
X128784374Y-67264953D01*
X128840000Y-67260000D01*
X128886176Y-67257735D01*
X128913292Y-67246169D01*
X128920000Y-67220000D01*
X128919777Y-67213204D01*
X128915343Y-67199757D01*
X128900621Y-67190532D01*
X128869667Y-67184735D01*
X128816541Y-67181576D01*
X128735299Y-67180262D01*
X128620000Y-67180000D01*
X128569035Y-67180029D01*
X128468183Y-67180620D01*
X128398992Y-67182583D01*
X128355520Y-67186711D01*
X128331826Y-67193794D01*
X128321966Y-67204626D01*
X128320000Y-67220000D01*
X128313427Y-67245857D01*
X128280000Y-67260000D01*
X128256674Y-67265568D01*
X128240000Y-67290000D01*
X128247425Y-67307494D01*
X128280000Y-67320000D01*
X128303088Y-67324529D01*
X128316646Y-67347661D01*
X128317437Y-67360000D01*
X128320000Y-67400000D01*
X128320000Y-67480000D01*
X128160000Y-67480000D01*
X128000000Y-67480000D01*
X128000000Y-67360000D01*
X128160000Y-67360000D01*
X128166574Y-67385857D01*
X128200000Y-67400000D01*
X128225858Y-67393426D01*
X128240000Y-67360000D01*
X128233427Y-67334142D01*
X128200000Y-67320000D01*
X128174143Y-67326573D01*
X128160000Y-67360000D01*
X128000000Y-67360000D01*
X128000000Y-67330000D01*
X128000063Y-67302998D01*
X128001791Y-67236753D01*
X128007549Y-67199697D01*
X128019549Y-67183542D01*
X128040000Y-67180000D01*
X128058058Y-67182288D01*
X128075526Y-67201754D01*
X128080000Y-67250000D01*
X128081308Y-67281601D01*
X128092432Y-67312169D01*
X128120000Y-67320000D01*
X128143327Y-67314431D01*
X128160000Y-67290000D01*
X128167425Y-67272505D01*
X128200000Y-67260000D01*
X128225858Y-67253426D01*
X128240000Y-67220000D01*
X128246574Y-67194142D01*
X128280000Y-67180000D01*
X128305858Y-67173426D01*
X128320000Y-67140000D01*
X128313427Y-67114142D01*
X128280000Y-67100000D01*
X128265967Y-67098826D01*
X128249243Y-67086684D01*
X128241737Y-67053568D01*
X128240000Y-66990000D01*
X128240427Y-66951408D01*
X128244842Y-66905417D01*
X128256885Y-66884774D01*
X128280000Y-66880000D01*
X128380000Y-66880000D01*
X128380000Y-66990000D01*
X128380000Y-67100000D01*
X128500000Y-67100000D01*
X128620000Y-67100000D01*
X128620000Y-66990000D01*
X128620000Y-66880000D01*
X128500000Y-66880000D01*
X128380000Y-66880000D01*
X128280000Y-66880000D01*
X128294034Y-66878826D01*
X128310758Y-66866684D01*
X128318264Y-66833568D01*
X128320000Y-66770000D01*
X128322594Y-66704528D01*
X128331909Y-66669875D01*
X128350000Y-66660000D01*
X128367495Y-66652575D01*
X128380000Y-66620000D01*
X128386574Y-66594142D01*
X128420000Y-66580000D01*
X128445858Y-66573426D01*
X128460000Y-66540000D01*
X128453427Y-66514142D01*
X128420000Y-66500000D01*
X128394143Y-66506573D01*
X128380000Y-66540000D01*
X128374432Y-66563326D01*
X128350000Y-66580000D01*
X128332506Y-66587424D01*
X128320000Y-66620000D01*
X128313427Y-66645857D01*
X128280000Y-66660000D01*
X128254143Y-66653426D01*
X128240000Y-66620000D01*
X128233427Y-66594142D01*
X128200000Y-66580000D01*
X128174143Y-66573426D01*
X128160000Y-66540000D01*
X128153427Y-66514142D01*
X128120000Y-66500000D01*
X128094143Y-66493426D01*
X128080000Y-66460000D01*
X128073427Y-66434142D01*
X128040000Y-66420000D01*
X128025967Y-66418826D01*
X128009243Y-66406684D01*
X128001737Y-66373568D01*
X128000820Y-66340000D01*
X128160000Y-66340000D01*
X128160000Y-66420000D01*
X128160000Y-66500000D01*
X128240000Y-66500000D01*
X128320000Y-66500000D01*
X128320000Y-66420000D01*
X128320157Y-66396393D01*
X128325264Y-66357375D01*
X128345182Y-66342421D01*
X128390000Y-66340000D01*
X128410656Y-66340178D01*
X128444797Y-66346015D01*
X128457881Y-66368778D01*
X128460000Y-66420000D01*
X128462265Y-66466175D01*
X128473831Y-66493291D01*
X128500000Y-66500000D01*
X128523088Y-66495470D01*
X128536646Y-66472338D01*
X128540000Y-66420000D01*
X128542265Y-66373824D01*
X128553831Y-66346708D01*
X128580000Y-66340000D01*
X128603327Y-66334431D01*
X128620000Y-66310000D01*
X128623485Y-66296009D01*
X128650000Y-66280000D01*
X128663991Y-66283484D01*
X128680000Y-66310000D01*
X128687425Y-66327494D01*
X128720000Y-66340000D01*
X128745858Y-66346573D01*
X128760000Y-66380000D01*
X128753427Y-66405857D01*
X128720000Y-66420000D01*
X128696913Y-66424529D01*
X128683355Y-66447661D01*
X128680000Y-66500000D01*
X128680000Y-66580000D01*
X128570000Y-66580000D01*
X128531409Y-66580426D01*
X128485418Y-66584841D01*
X128464775Y-66596884D01*
X128460000Y-66620000D01*
X128466574Y-66645857D01*
X128500000Y-66660000D01*
X128523327Y-66665568D01*
X128540000Y-66690000D01*
X128532576Y-66707494D01*
X128500000Y-66720000D01*
X128474143Y-66726573D01*
X128460000Y-66760000D01*
X128464530Y-66783087D01*
X128487662Y-66796645D01*
X128540000Y-66800000D01*
X128586176Y-66797735D01*
X128613292Y-66786169D01*
X128620000Y-66760000D01*
X128625569Y-66736673D01*
X128650000Y-66720000D01*
X128663991Y-66716515D01*
X128680000Y-66690000D01*
X128687425Y-66672505D01*
X128720000Y-66660000D01*
X128738058Y-66662288D01*
X128755526Y-66681754D01*
X128760000Y-66730000D01*
X128758693Y-66761601D01*
X128747569Y-66792169D01*
X128720000Y-66800000D01*
X128694143Y-66806573D01*
X128680000Y-66840000D01*
X128686574Y-66865857D01*
X128720000Y-66880000D01*
X128734034Y-66881173D01*
X128750758Y-66893315D01*
X128758264Y-66926431D01*
X128760000Y-66990000D01*
X128760427Y-67028591D01*
X128764842Y-67074582D01*
X128776885Y-67095225D01*
X128800000Y-67100000D01*
X128825858Y-67093426D01*
X128840000Y-67060000D01*
X128846574Y-67034142D01*
X128880000Y-67020000D01*
X128903327Y-67014431D01*
X128920000Y-66990000D01*
X128912576Y-66972505D01*
X128880000Y-66960000D01*
X128854143Y-66953426D01*
X128840000Y-66920000D01*
X128846574Y-66894142D01*
X128880000Y-66880000D01*
X128905858Y-66873426D01*
X128920000Y-66840000D01*
X128913427Y-66814142D01*
X128880000Y-66800000D01*
X128862161Y-66797465D01*
X128850123Y-66784620D01*
X128843458Y-66754041D01*
X128840605Y-66698307D01*
X128840548Y-66690000D01*
X128920000Y-66690000D01*
X128920127Y-66692732D01*
X128938227Y-66713494D01*
X128990000Y-66720000D01*
X129021602Y-66721307D01*
X129052170Y-66732431D01*
X129060000Y-66760000D01*
X129066574Y-66785857D01*
X129100000Y-66800000D01*
X129125858Y-66806573D01*
X129140000Y-66840000D01*
X129133427Y-66865857D01*
X129100000Y-66880000D01*
X129074143Y-66886573D01*
X129060000Y-66920000D01*
X129066574Y-66945857D01*
X129100000Y-66960000D01*
X129123327Y-66965568D01*
X129140000Y-66990000D01*
X129139874Y-66992732D01*
X129121774Y-67013494D01*
X129070000Y-67020000D01*
X129038399Y-67021307D01*
X129007831Y-67032431D01*
X129000000Y-67060000D01*
X128993427Y-67085857D01*
X128960000Y-67100000D01*
X128934143Y-67106573D01*
X128920000Y-67140000D01*
X128922289Y-67158057D01*
X128941755Y-67175525D01*
X128990000Y-67180000D01*
X129021602Y-67178692D01*
X129052170Y-67167568D01*
X129060000Y-67140000D01*
X129066574Y-67114142D01*
X129100000Y-67100000D01*
X129123088Y-67104529D01*
X129136646Y-67127661D01*
X129140000Y-67180000D01*
X129139844Y-67203606D01*
X129134737Y-67242624D01*
X129114819Y-67257578D01*
X129070000Y-67260000D01*
X129063625Y-67260054D01*
X129015180Y-67267811D01*
X129000000Y-67290000D01*
X128992576Y-67307494D01*
X128960000Y-67320000D01*
X128934143Y-67326573D01*
X128920000Y-67360000D01*
X128926574Y-67385857D01*
X128960000Y-67400000D01*
X128985858Y-67393426D01*
X129000000Y-67360000D01*
X129000236Y-67352799D01*
X129006714Y-67335134D01*
X129028308Y-67325252D01*
X129073307Y-67320944D01*
X129150000Y-67320000D01*
X129177002Y-67320062D01*
X129243247Y-67321790D01*
X129280303Y-67327548D01*
X129296458Y-67339548D01*
X129300000Y-67360000D01*
X129302289Y-67378057D01*
X129321755Y-67395525D01*
X129370000Y-67400000D01*
X129401602Y-67398692D01*
X129432170Y-67387568D01*
X129440000Y-67360000D01*
X129433427Y-67334142D01*
X129400000Y-67320000D01*
X129520000Y-67320000D01*
X129520000Y-67400000D01*
X129522265Y-67446175D01*
X129533831Y-67473291D01*
X129560000Y-67480000D01*
X129585858Y-67473426D01*
X129600000Y-67440000D01*
X129606574Y-67414142D01*
X129640000Y-67400000D01*
X129665858Y-67393426D01*
X129680000Y-67360000D01*
X129675471Y-67336912D01*
X129652339Y-67323354D01*
X129600000Y-67320000D01*
X129520000Y-67320000D01*
X129400000Y-67320000D01*
X129376674Y-67314431D01*
X129360000Y-67290000D01*
X129367425Y-67272505D01*
X129400000Y-67260000D01*
X129425858Y-67253426D01*
X129440000Y-67220000D01*
X129446574Y-67194142D01*
X129480000Y-67180000D01*
X129505858Y-67173426D01*
X129520000Y-67140000D01*
X129524530Y-67116912D01*
X129547662Y-67103354D01*
X129600000Y-67100000D01*
X129646176Y-67102264D01*
X129673292Y-67113830D01*
X129680000Y-67140000D01*
X129673427Y-67165857D01*
X129640000Y-67180000D01*
X129614143Y-67186573D01*
X129600000Y-67220000D01*
X129606574Y-67245857D01*
X129640000Y-67260000D01*
X129663327Y-67265568D01*
X129680000Y-67290000D01*
X129689511Y-67307855D01*
X129723664Y-67317306D01*
X129790000Y-67320000D01*
X129900000Y-67320000D01*
X129900000Y-67360000D01*
X129900000Y-67400000D01*
X129900000Y-67480000D01*
X129790000Y-67480000D01*
X129751409Y-67480426D01*
X129705418Y-67484841D01*
X129684775Y-67496884D01*
X129680000Y-67520000D01*
X129685569Y-67543326D01*
X129710000Y-67560000D01*
X129727495Y-67567424D01*
X129740000Y-67600000D01*
X129734432Y-67623326D01*
X129710000Y-67640000D01*
X129707268Y-67640126D01*
X129686506Y-67658226D01*
X129680000Y-67710000D01*
X129679822Y-67730655D01*
X129673985Y-67764796D01*
X129651222Y-67777880D01*
X129600000Y-67780000D01*
X129553825Y-67782264D01*
X129526709Y-67793830D01*
X129520000Y-67820000D01*
X129513427Y-67845857D01*
X129480000Y-67860000D01*
X129454143Y-67866573D01*
X129440000Y-67900000D01*
X129433427Y-67925857D01*
X129400000Y-67940000D01*
X129376674Y-67945568D01*
X129360000Y-67970000D01*
X129356516Y-67983990D01*
X129330000Y-68000000D01*
X129321376Y-68001451D01*
X129304954Y-68024373D01*
X129300000Y-68080000D01*
X129300157Y-68103606D01*
X129305264Y-68142624D01*
X129325182Y-68157578D01*
X129370000Y-68160000D01*
X129401602Y-68158692D01*
X129432170Y-68147568D01*
X129440000Y-68120000D01*
X129446574Y-68094142D01*
X129480000Y-68080000D01*
X129503088Y-68084529D01*
X129516646Y-68107661D01*
X129520000Y-68160000D01*
X129522265Y-68206175D01*
X129533831Y-68233291D01*
X129560000Y-68240000D01*
X129585858Y-68233426D01*
X129600000Y-68200000D01*
X129602289Y-68181942D01*
X129621755Y-68164474D01*
X129670000Y-68160000D01*
X129701602Y-68161307D01*
X129732170Y-68172431D01*
X129740000Y-68200000D01*
X129734432Y-68223326D01*
X129710000Y-68240000D01*
X129692506Y-68247424D01*
X129680000Y-68280000D01*
X129685569Y-68303326D01*
X129710000Y-68320000D01*
X129723991Y-68323484D01*
X129740000Y-68350000D01*
X129736516Y-68363990D01*
X129710000Y-68380000D01*
X129701376Y-68381451D01*
X129684954Y-68404373D01*
X129680000Y-68460000D01*
X129680545Y-68482999D01*
X129689141Y-68526789D01*
X129710000Y-68540000D01*
X129727495Y-68547424D01*
X129740000Y-68580000D01*
X129734432Y-68603326D01*
X129724653Y-68610000D01*
X129710000Y-68620000D01*
X129707268Y-68620126D01*
X129686506Y-68638226D01*
X129680000Y-68690000D01*
X129680009Y-68695328D01*
X129683844Y-68739436D01*
X129703084Y-68756903D01*
X129750000Y-68760000D01*
X129781602Y-68761307D01*
X129812170Y-68772431D01*
X129820000Y-68800000D01*
X129824530Y-68823087D01*
X129847662Y-68836645D01*
X129900000Y-68840000D01*
X129946176Y-68842264D01*
X129973292Y-68853830D01*
X129980000Y-68880000D01*
X129982289Y-68898057D01*
X130001755Y-68915525D01*
X130050000Y-68920000D01*
X130081602Y-68918692D01*
X130112170Y-68907568D01*
X130120000Y-68880000D01*
X130126574Y-68854142D01*
X130160000Y-68840000D01*
X130185858Y-68833426D01*
X130200000Y-68800000D01*
X130206574Y-68774142D01*
X130240000Y-68760000D01*
X130265858Y-68766573D01*
X130280000Y-68800000D01*
X130285569Y-68823326D01*
X130310000Y-68840000D01*
X130327495Y-68832575D01*
X130340000Y-68800000D01*
X130344530Y-68776912D01*
X130367662Y-68763354D01*
X130420000Y-68760000D01*
X130466176Y-68762264D01*
X130493292Y-68773830D01*
X130500000Y-68800000D01*
X130506574Y-68825857D01*
X130540000Y-68840000D01*
X130565858Y-68833426D01*
X130580000Y-68800000D01*
X130573427Y-68774142D01*
X130540000Y-68760000D01*
X130521943Y-68757711D01*
X130504475Y-68738245D01*
X130500000Y-68690000D01*
X130498693Y-68658398D01*
X130487569Y-68627830D01*
X130460000Y-68620000D01*
X130436674Y-68625568D01*
X130420000Y-68650000D01*
X130412576Y-68667494D01*
X130380000Y-68680000D01*
X130354143Y-68686573D01*
X130340000Y-68720000D01*
X130334432Y-68743326D01*
X130310000Y-68760000D01*
X130292506Y-68752575D01*
X130280000Y-68720000D01*
X130285569Y-68696673D01*
X130310000Y-68680000D01*
X130312733Y-68679873D01*
X130333495Y-68661773D01*
X130340000Y-68610000D01*
X130340179Y-68589344D01*
X130346016Y-68555203D01*
X130368779Y-68542119D01*
X130420000Y-68540000D01*
X130500000Y-68540000D01*
X130500000Y-68430000D01*
X130500427Y-68391408D01*
X130504842Y-68345417D01*
X130516885Y-68324774D01*
X130540000Y-68320000D01*
X130563327Y-68325568D01*
X130580000Y-68350000D01*
X130587425Y-68367494D01*
X130620000Y-68380000D01*
X130645858Y-68386573D01*
X130660000Y-68420000D01*
X130653427Y-68445857D01*
X130620000Y-68460000D01*
X130605967Y-68461173D01*
X130589243Y-68473315D01*
X130581737Y-68506431D01*
X130580000Y-68570000D01*
X130580427Y-68608591D01*
X130584842Y-68654582D01*
X130596885Y-68675225D01*
X130620000Y-68680000D01*
X130634034Y-68678826D01*
X130650758Y-68666684D01*
X130658264Y-68633568D01*
X130660000Y-68570000D01*
X130662594Y-68504528D01*
X130671909Y-68469875D01*
X130690000Y-68460000D01*
X130692733Y-68459873D01*
X130713495Y-68441773D01*
X130720000Y-68390000D01*
X130721308Y-68358398D01*
X130732432Y-68327830D01*
X130760000Y-68320000D01*
X130783327Y-68325568D01*
X130800000Y-68350000D01*
X130807425Y-68367494D01*
X130840000Y-68380000D01*
X130863327Y-68374431D01*
X130880000Y-68350000D01*
X130889511Y-68332144D01*
X130923664Y-68322693D01*
X130990000Y-68320000D01*
X131055472Y-68322593D01*
X131090125Y-68331908D01*
X131100000Y-68350000D01*
X131107425Y-68367494D01*
X131140000Y-68380000D01*
X131158058Y-68377711D01*
X131175526Y-68358245D01*
X131180000Y-68310000D01*
X131180000Y-68240000D01*
X131070000Y-68240000D01*
X131031409Y-68239573D01*
X130985418Y-68235158D01*
X130964775Y-68223115D01*
X130960000Y-68200000D01*
X130953427Y-68174142D01*
X130920000Y-68160000D01*
X130896913Y-68164529D01*
X130883355Y-68187661D01*
X130880000Y-68240000D01*
X130877736Y-68286175D01*
X130866170Y-68313291D01*
X130840000Y-68320000D01*
X130814143Y-68313426D01*
X130800000Y-68280000D01*
X130793427Y-68254142D01*
X130760000Y-68240000D01*
X130734143Y-68233426D01*
X130720000Y-68200000D01*
X130726574Y-68174142D01*
X130760000Y-68160000D01*
X130785858Y-68153426D01*
X130800000Y-68120000D01*
X130797712Y-68101942D01*
X130778246Y-68084474D01*
X130730000Y-68080000D01*
X130698399Y-68081307D01*
X130667831Y-68092431D01*
X130660000Y-68120000D01*
X130655471Y-68143087D01*
X130632339Y-68156645D01*
X130580000Y-68160000D01*
X130500000Y-68160000D01*
X130500000Y-68240000D01*
X130500000Y-68320000D01*
X130390000Y-68320000D01*
X130351409Y-68319573D01*
X130305418Y-68315158D01*
X130284775Y-68303115D01*
X130280000Y-68280000D01*
X130285569Y-68256673D01*
X130310000Y-68240000D01*
X130327495Y-68232575D01*
X130340000Y-68200000D01*
X130346574Y-68174142D01*
X130380000Y-68160000D01*
X130403088Y-68155470D01*
X130416646Y-68132338D01*
X130420000Y-68080000D01*
X130422265Y-68033824D01*
X130433831Y-68006708D01*
X130460000Y-68000000D01*
X130485858Y-68006573D01*
X130500000Y-68040000D01*
X130506574Y-68065857D01*
X130540000Y-68080000D01*
X130558058Y-68077711D01*
X130575526Y-68058245D01*
X130580000Y-68010000D01*
X130578693Y-67978398D01*
X130567569Y-67947830D01*
X130540000Y-67940000D01*
X130514143Y-67933426D01*
X130500000Y-67900000D01*
X130493427Y-67874142D01*
X130460000Y-67860000D01*
X130441943Y-67862288D01*
X130424475Y-67881754D01*
X130420000Y-67930000D01*
X130419992Y-67935328D01*
X130416157Y-67979436D01*
X130396917Y-67996903D01*
X130350000Y-68000000D01*
X130343625Y-67999945D01*
X130295180Y-67992188D01*
X130280000Y-67970000D01*
X130283485Y-67956009D01*
X130310000Y-67940000D01*
X130318625Y-67938548D01*
X130335047Y-67915626D01*
X130340000Y-67860000D01*
X130340000Y-67780000D01*
X130530000Y-67780000D01*
X130614736Y-67779466D01*
X130671919Y-67776762D01*
X130703578Y-67770324D01*
X130717131Y-67758591D01*
X130720000Y-67740000D01*
X130724530Y-67716912D01*
X130747662Y-67703354D01*
X130800000Y-67700000D01*
X130846176Y-67702264D01*
X130873292Y-67713830D01*
X130880000Y-67740000D01*
X130873427Y-67765857D01*
X130840000Y-67780000D01*
X130814143Y-67786573D01*
X130800000Y-67820000D01*
X130793427Y-67845857D01*
X130760000Y-67860000D01*
X130734143Y-67866573D01*
X130720000Y-67900000D01*
X130714432Y-67923326D01*
X130690000Y-67940000D01*
X130676010Y-67943484D01*
X130660000Y-67970000D01*
X130660127Y-67972732D01*
X130678227Y-67993494D01*
X130730000Y-68000000D01*
X130736376Y-67999945D01*
X130784821Y-67992188D01*
X130800000Y-67970000D01*
X130801452Y-67961375D01*
X130824374Y-67944953D01*
X130880000Y-67940000D01*
X130926176Y-67937735D01*
X130953292Y-67926169D01*
X130960000Y-67900000D01*
X130953427Y-67874142D01*
X130920000Y-67860000D01*
X130894143Y-67853426D01*
X130880000Y-67820000D01*
X130886574Y-67794142D01*
X130920000Y-67780000D01*
X130945858Y-67773426D01*
X130960000Y-67740000D01*
X130962535Y-67722160D01*
X130975380Y-67710122D01*
X131005959Y-67703457D01*
X131061693Y-67700604D01*
X131150000Y-67700000D01*
X131177557Y-67699934D01*
X131258684Y-67698208D01*
X131308330Y-67693350D01*
X131333201Y-67684300D01*
X131340000Y-67670000D01*
X131332576Y-67652505D01*
X131300000Y-67640000D01*
X131274143Y-67633426D01*
X131260000Y-67600000D01*
X131253427Y-67574142D01*
X131220000Y-67560000D01*
X131212800Y-67559764D01*
X131195135Y-67553286D01*
X131185253Y-67531692D01*
X131180945Y-67486693D01*
X131180000Y-67410000D01*
X131179938Y-67382998D01*
X131178210Y-67316753D01*
X131172452Y-67279697D01*
X131160452Y-67263542D01*
X131140000Y-67260000D01*
X131116674Y-67265568D01*
X131100000Y-67290000D01*
X131092576Y-67307494D01*
X131060000Y-67320000D01*
X131036674Y-67314431D01*
X131020000Y-67290000D01*
X131016516Y-67276009D01*
X130990000Y-67260000D01*
X130976010Y-67263484D01*
X130960000Y-67290000D01*
X130952576Y-67307494D01*
X130920000Y-67320000D01*
X130901943Y-67317711D01*
X130884475Y-67298245D01*
X130880000Y-67250000D01*
X130880000Y-67220000D01*
X131400000Y-67220000D01*
X131404530Y-67243087D01*
X131427662Y-67256645D01*
X131480000Y-67260000D01*
X131526176Y-67257735D01*
X131553292Y-67246169D01*
X131560000Y-67220000D01*
X131555471Y-67196912D01*
X131532339Y-67183354D01*
X131480000Y-67180000D01*
X131433825Y-67182264D01*
X131406709Y-67193830D01*
X131400000Y-67220000D01*
X130880000Y-67220000D01*
X130880000Y-67180000D01*
X131030000Y-67180000D01*
X131057002Y-67179937D01*
X131123247Y-67178209D01*
X131160303Y-67172451D01*
X131176458Y-67160451D01*
X131180000Y-67140000D01*
X131186574Y-67114142D01*
X131220000Y-67100000D01*
X131245858Y-67106573D01*
X131260000Y-67140000D01*
X131266574Y-67165857D01*
X131300000Y-67180000D01*
X131325858Y-67173426D01*
X131340000Y-67140000D01*
X131333427Y-67114142D01*
X131300000Y-67100000D01*
X131274143Y-67093426D01*
X131260000Y-67060000D01*
X131266574Y-67034142D01*
X131300000Y-67020000D01*
X131314034Y-67018826D01*
X131330758Y-67006684D01*
X131338264Y-66973568D01*
X131340000Y-66910000D01*
X131340000Y-66880000D01*
X131400000Y-66880000D01*
X131400000Y-66990000D01*
X131400000Y-67100000D01*
X131520000Y-67100000D01*
X131640000Y-67100000D01*
X131640000Y-66990000D01*
X131640000Y-66880000D01*
X131520000Y-66880000D01*
X131400000Y-66880000D01*
X131340000Y-66880000D01*
X131340000Y-66800000D01*
X131450000Y-66800000D01*
X131488592Y-66799573D01*
X131534583Y-66795158D01*
X131555226Y-66783115D01*
X131560000Y-66760000D01*
X131557466Y-66742160D01*
X131544621Y-66730122D01*
X131514042Y-66723457D01*
X131458308Y-66720604D01*
X131370000Y-66720000D01*
X131342444Y-66719934D01*
X131261317Y-66718208D01*
X131211671Y-66713350D01*
X131186800Y-66704300D01*
X131180000Y-66690000D01*
X131172576Y-66672505D01*
X131140000Y-66660000D01*
X131116674Y-66665568D01*
X131100000Y-66690000D01*
X131092576Y-66707494D01*
X131060000Y-66720000D01*
X131034143Y-66726573D01*
X131020000Y-66760000D01*
X131024530Y-66783087D01*
X131047662Y-66796645D01*
X131100000Y-66800000D01*
X131146176Y-66802264D01*
X131173292Y-66813830D01*
X131180000Y-66840000D01*
X131186574Y-66865857D01*
X131220000Y-66880000D01*
X131245858Y-66886573D01*
X131260000Y-66920000D01*
X131257794Y-66937716D01*
X131243238Y-66952129D01*
X131207023Y-66958540D01*
X131140000Y-66960000D01*
X131086850Y-66959264D01*
X131043613Y-66954412D01*
X131024379Y-66942340D01*
X131020000Y-66920000D01*
X131014432Y-66896673D01*
X130990000Y-66880000D01*
X130972506Y-66872575D01*
X130960000Y-66840000D01*
X130953427Y-66814142D01*
X130920000Y-66800000D01*
X130894143Y-66793426D01*
X130880000Y-66760000D01*
X130873427Y-66734142D01*
X130840000Y-66720000D01*
X130814143Y-66726573D01*
X130800000Y-66760000D01*
X130793427Y-66785857D01*
X130760000Y-66800000D01*
X130734143Y-66806573D01*
X130720000Y-66840000D01*
X130726574Y-66865857D01*
X130760000Y-66880000D01*
X130785858Y-66886573D01*
X130800000Y-66920000D01*
X130797712Y-66938057D01*
X130778246Y-66955525D01*
X130730000Y-66960000D01*
X130723625Y-66960054D01*
X130675180Y-66967811D01*
X130660000Y-66990000D01*
X130652576Y-67007494D01*
X130620000Y-67020000D01*
X130602284Y-67022206D01*
X130587871Y-67036762D01*
X130581460Y-67072977D01*
X130580000Y-67140000D01*
X130579265Y-67193150D01*
X130574413Y-67236387D01*
X130562341Y-67255621D01*
X130540000Y-67260000D01*
X130532800Y-67259764D01*
X130515135Y-67253286D01*
X130505253Y-67231692D01*
X130500945Y-67186693D01*
X130500000Y-67110000D01*
X130500063Y-67082998D01*
X130501791Y-67016753D01*
X130507549Y-66979697D01*
X130519549Y-66963542D01*
X130540000Y-66960000D01*
X130565858Y-66953426D01*
X130580000Y-66920000D01*
X130586574Y-66894142D01*
X130620000Y-66880000D01*
X130645858Y-66873426D01*
X130660000Y-66840000D01*
X130653427Y-66814142D01*
X130620000Y-66800000D01*
X130594143Y-66793426D01*
X130580000Y-66760000D01*
X130573427Y-66734142D01*
X130540000Y-66720000D01*
X130514143Y-66726573D01*
X130500000Y-66760000D01*
X130493427Y-66785857D01*
X130460000Y-66800000D01*
X130441943Y-66797711D01*
X130424475Y-66778245D01*
X130420000Y-66730000D01*
X130420000Y-66660000D01*
X130540000Y-66660000D01*
X130593151Y-66659264D01*
X130636388Y-66654412D01*
X130655622Y-66642340D01*
X130660000Y-66620000D01*
X130653427Y-66594142D01*
X130620000Y-66580000D01*
X130594143Y-66573426D01*
X130580000Y-66540000D01*
X130586574Y-66514142D01*
X130620000Y-66500000D01*
X130645858Y-66506573D01*
X130660000Y-66540000D01*
X130665569Y-66563326D01*
X130690000Y-66580000D01*
X130707495Y-66587424D01*
X130720000Y-66620000D01*
X130724530Y-66643087D01*
X130747662Y-66656645D01*
X130800000Y-66660000D01*
X130846176Y-66657735D01*
X130873292Y-66646169D01*
X130880000Y-66620000D01*
X130873427Y-66594142D01*
X130840000Y-66580000D01*
X130814143Y-66573426D01*
X130800000Y-66540000D01*
X130806574Y-66514142D01*
X130840000Y-66500000D01*
X130865858Y-66493426D01*
X130880000Y-66460000D01*
X130873427Y-66434142D01*
X130840000Y-66420000D01*
X130814143Y-66413426D01*
X130800000Y-66380000D01*
X130793427Y-66354142D01*
X130760000Y-66340000D01*
X130734143Y-66346573D01*
X130720000Y-66380000D01*
X130726574Y-66405857D01*
X130760000Y-66420000D01*
X130785858Y-66426573D01*
X130800000Y-66460000D01*
X130793427Y-66485857D01*
X130760000Y-66500000D01*
X130734143Y-66493426D01*
X130720000Y-66460000D01*
X130714432Y-66436673D01*
X130690000Y-66420000D01*
X130687268Y-66419873D01*
X130666506Y-66401773D01*
X130660000Y-66350000D01*
X130659822Y-66329344D01*
X130653985Y-66295203D01*
X130631222Y-66282119D01*
X130580000Y-66280000D01*
X130557001Y-66280544D01*
X130513211Y-66289140D01*
X130500000Y-66310000D01*
X130492576Y-66327494D01*
X130460000Y-66340000D01*
X130442284Y-66342206D01*
X130427871Y-66356762D01*
X130421460Y-66392977D01*
X130420000Y-66460000D01*
X130419265Y-66513150D01*
X130414413Y-66556387D01*
X130402341Y-66575621D01*
X130380000Y-66580000D01*
X130356913Y-66575470D01*
X130343355Y-66552338D01*
X130340000Y-66500000D01*
X130339456Y-66477000D01*
X130330860Y-66433210D01*
X130310000Y-66420000D01*
X130292506Y-66427424D01*
X130280000Y-66460000D01*
X130273427Y-66485857D01*
X130240000Y-66500000D01*
X130214143Y-66493426D01*
X130200000Y-66460000D01*
X130193427Y-66434142D01*
X130160000Y-66420000D01*
X130134143Y-66413426D01*
X130120000Y-66380000D01*
X130117712Y-66361942D01*
X130098246Y-66344474D01*
X130050000Y-66340000D01*
X130018399Y-66341307D01*
X129987831Y-66352431D01*
X129980000Y-66380000D01*
X129982289Y-66398057D01*
X130001755Y-66415525D01*
X130050000Y-66420000D01*
X130070656Y-66420178D01*
X130104797Y-66426015D01*
X130117881Y-66448778D01*
X130120000Y-66500000D01*
X130117736Y-66546175D01*
X130106170Y-66573291D01*
X130080000Y-66580000D01*
X130054143Y-66586573D01*
X130040000Y-66620000D01*
X130034432Y-66643326D01*
X130010000Y-66660000D01*
X129996010Y-66663484D01*
X129980000Y-66690000D01*
X129972576Y-66707494D01*
X129940000Y-66720000D01*
X129914143Y-66726573D01*
X129900000Y-66760000D01*
X129906574Y-66785857D01*
X129940000Y-66800000D01*
X129965858Y-66793426D01*
X129980000Y-66760000D01*
X129982289Y-66741942D01*
X130001755Y-66724474D01*
X130050000Y-66720000D01*
X130056376Y-66719945D01*
X130104821Y-66712188D01*
X130120000Y-66690000D01*
X130127425Y-66672505D01*
X130160000Y-66660000D01*
X130178058Y-66662288D01*
X130195526Y-66681754D01*
X130200000Y-66730000D01*
X130200000Y-66800000D01*
X130310000Y-66800000D01*
X130420000Y-66800000D01*
X130420000Y-66880000D01*
X130417736Y-66926175D01*
X130406170Y-66953291D01*
X130380000Y-66960000D01*
X130356674Y-66965568D01*
X130340000Y-66990000D01*
X130336516Y-67003990D01*
X130310000Y-67020000D01*
X130296010Y-67016515D01*
X130280000Y-66990000D01*
X130272576Y-66972505D01*
X130240000Y-66960000D01*
X130216674Y-66965568D01*
X130200000Y-66990000D01*
X130207425Y-67007494D01*
X130240000Y-67020000D01*
X130265858Y-67026573D01*
X130280000Y-67060000D01*
X130282289Y-67078057D01*
X130301755Y-67095525D01*
X130350000Y-67100000D01*
X130381602Y-67101307D01*
X130412170Y-67112431D01*
X130420000Y-67140000D01*
X130417712Y-67158057D01*
X130398246Y-67175525D01*
X130350000Y-67180000D01*
X130344672Y-67180008D01*
X130300564Y-67183843D01*
X130283097Y-67203083D01*
X130280000Y-67250000D01*
X130280055Y-67256375D01*
X130287812Y-67304820D01*
X130310000Y-67320000D01*
X130327495Y-67327424D01*
X130340000Y-67360000D01*
X130346574Y-67385857D01*
X130380000Y-67400000D01*
X130403088Y-67404529D01*
X130416646Y-67427661D01*
X130420000Y-67480000D01*
X130422265Y-67526175D01*
X130433831Y-67553291D01*
X130460000Y-67560000D01*
X130485858Y-67566573D01*
X130500000Y-67600000D01*
X130495471Y-67623087D01*
X130472339Y-67636645D01*
X130420000Y-67640000D01*
X130397001Y-67640544D01*
X130353211Y-67649140D01*
X130340000Y-67670000D01*
X130336516Y-67683990D01*
X130310000Y-67700000D01*
X130292506Y-67707424D01*
X130280000Y-67740000D01*
X130273427Y-67765857D01*
X130240000Y-67780000D01*
X130214143Y-67786573D01*
X130200000Y-67820000D01*
X130193427Y-67845857D01*
X130160000Y-67860000D01*
X130134143Y-67866573D01*
X130120000Y-67900000D01*
X130113427Y-67925857D01*
X130080000Y-67940000D01*
X130054143Y-67933426D01*
X130040000Y-67900000D01*
X130037712Y-67881942D01*
X130018246Y-67864474D01*
X129970000Y-67860000D01*
X129938399Y-67858692D01*
X129907831Y-67847568D01*
X129900000Y-67820000D01*
X129902289Y-67801942D01*
X129921755Y-67784474D01*
X129970000Y-67780000D01*
X129975329Y-67779991D01*
X130019437Y-67776156D01*
X130036904Y-67756916D01*
X130040000Y-67710000D01*
X130041308Y-67678398D01*
X130052432Y-67647830D01*
X130080000Y-67640000D01*
X130103327Y-67645568D01*
X130120000Y-67670000D01*
X130121452Y-67678624D01*
X130144374Y-67695046D01*
X130200000Y-67700000D01*
X130223000Y-67699455D01*
X130266790Y-67690859D01*
X130280000Y-67670000D01*
X130283485Y-67656009D01*
X130310000Y-67640000D01*
X130318625Y-67638548D01*
X130335047Y-67615626D01*
X130340000Y-67560000D01*
X130339456Y-67537000D01*
X130330860Y-67493210D01*
X130310000Y-67480000D01*
X130301376Y-67478548D01*
X130284954Y-67455626D01*
X130280000Y-67400000D01*
X130277736Y-67353824D01*
X130266170Y-67326708D01*
X130240000Y-67320000D01*
X130221943Y-67317711D01*
X130204475Y-67298245D01*
X130200000Y-67250000D01*
X130198693Y-67218398D01*
X130187569Y-67187830D01*
X130160000Y-67180000D01*
X130134143Y-67186573D01*
X130120000Y-67220000D01*
X130118827Y-67234033D01*
X130106685Y-67250757D01*
X130073569Y-67258263D01*
X130010000Y-67260000D01*
X129971409Y-67259573D01*
X129925418Y-67255158D01*
X129904775Y-67243115D01*
X129900000Y-67220000D01*
X129895471Y-67196912D01*
X129872339Y-67183354D01*
X129820000Y-67180000D01*
X129773825Y-67177735D01*
X129746709Y-67166169D01*
X129740000Y-67140000D01*
X129734432Y-67116673D01*
X129710000Y-67100000D01*
X129900000Y-67100000D01*
X130010000Y-67100000D01*
X130120000Y-67100000D01*
X130120000Y-66990000D01*
X130120000Y-66880000D01*
X130010000Y-66880000D01*
X129900000Y-66880000D01*
X129900000Y-66990000D01*
X129900000Y-67100000D01*
X129710000Y-67100000D01*
X129692145Y-67090489D01*
X129682694Y-67056336D01*
X129680000Y-66990000D01*
X129740000Y-66990000D01*
X129747425Y-67007494D01*
X129780000Y-67020000D01*
X129803327Y-67014431D01*
X129820000Y-66990000D01*
X129812576Y-66972505D01*
X129780000Y-66960000D01*
X129756674Y-66965568D01*
X129740000Y-66990000D01*
X129680000Y-66990000D01*
X129682594Y-66924528D01*
X129691909Y-66889875D01*
X129710000Y-66880000D01*
X129718625Y-66878548D01*
X129735047Y-66855626D01*
X129740000Y-66800000D01*
X129740000Y-66720000D01*
X129550000Y-66720000D01*
X129465265Y-66720533D01*
X129408082Y-66723237D01*
X129376423Y-66729675D01*
X129362870Y-66741408D01*
X129360000Y-66760000D01*
X129354432Y-66783326D01*
X129330000Y-66800000D01*
X129312506Y-66807424D01*
X129300000Y-66840000D01*
X129293427Y-66865857D01*
X129260000Y-66880000D01*
X129236913Y-66875470D01*
X129223355Y-66852338D01*
X129220000Y-66800000D01*
X129222265Y-66753824D01*
X129233831Y-66726708D01*
X129260000Y-66720000D01*
X129283327Y-66714431D01*
X129300000Y-66690000D01*
X129292576Y-66672505D01*
X129260000Y-66660000D01*
X129234143Y-66653426D01*
X129220000Y-66620000D01*
X129221174Y-66605966D01*
X129233316Y-66589242D01*
X129266432Y-66581736D01*
X129330000Y-66580000D01*
X129368592Y-66579573D01*
X129414583Y-66575158D01*
X129435226Y-66563115D01*
X129440000Y-66540000D01*
X129444530Y-66516912D01*
X129467662Y-66503354D01*
X129520000Y-66500000D01*
X129566176Y-66502264D01*
X129593292Y-66513830D01*
X129600000Y-66540000D01*
X129593427Y-66565857D01*
X129560000Y-66580000D01*
X129534143Y-66586573D01*
X129520000Y-66620000D01*
X129526574Y-66645857D01*
X129560000Y-66660000D01*
X129585858Y-66653426D01*
X129600000Y-66620000D01*
X129606574Y-66594142D01*
X129640000Y-66580000D01*
X129665858Y-66586573D01*
X129680000Y-66620000D01*
X129685569Y-66643326D01*
X129710000Y-66660000D01*
X129713615Y-66659763D01*
X129729529Y-66647088D01*
X129737697Y-66609678D01*
X129740000Y-66540000D01*
X129740736Y-66486849D01*
X129745588Y-66443612D01*
X129757660Y-66424378D01*
X129780000Y-66420000D01*
X129803088Y-66424529D01*
X129816646Y-66447661D01*
X129820000Y-66500000D01*
X129820000Y-66580000D01*
X129900000Y-66580000D01*
X129946176Y-66577735D01*
X129973292Y-66566169D01*
X129980000Y-66540000D01*
X129973427Y-66514142D01*
X129940000Y-66500000D01*
X129925967Y-66498826D01*
X129909243Y-66486684D01*
X129901737Y-66453568D01*
X129900000Y-66390000D01*
X129900427Y-66351408D01*
X129904842Y-66305417D01*
X129916885Y-66284774D01*
X129940000Y-66280000D01*
X129965858Y-66273426D01*
X129980000Y-66240000D01*
X130040000Y-66240000D01*
X130046574Y-66265857D01*
X130080000Y-66280000D01*
X130103327Y-66285568D01*
X130120000Y-66310000D01*
X130121452Y-66318624D01*
X130144374Y-66335046D01*
X130200000Y-66340000D01*
X130223607Y-66339843D01*
X130262625Y-66334736D01*
X130277579Y-66314818D01*
X130280000Y-66270000D01*
X130278693Y-66238398D01*
X130267569Y-66207830D01*
X130240000Y-66200000D01*
X130214143Y-66193426D01*
X130200000Y-66160000D01*
X130193427Y-66134142D01*
X130160000Y-66120000D01*
X130134143Y-66126573D01*
X130120000Y-66160000D01*
X130113427Y-66185857D01*
X130080000Y-66200000D01*
X130054143Y-66206573D01*
X130040000Y-66240000D01*
X129980000Y-66240000D01*
X129985569Y-66216673D01*
X130010000Y-66200000D01*
X130027495Y-66192575D01*
X130040000Y-66160000D01*
X130034432Y-66136673D01*
X130010000Y-66120000D01*
X129992506Y-66112575D01*
X129980000Y-66080000D01*
X129975471Y-66056912D01*
X129952339Y-66043354D01*
X129900000Y-66040000D01*
X129853825Y-66042264D01*
X129826709Y-66053830D01*
X129820000Y-66080000D01*
X129817712Y-66098057D01*
X129798246Y-66115525D01*
X129750000Y-66120000D01*
X129718399Y-66121307D01*
X129687831Y-66132431D01*
X129680000Y-66160000D01*
X129673427Y-66185857D01*
X129640000Y-66200000D01*
X129632800Y-66199764D01*
X129615135Y-66193286D01*
X129605253Y-66171692D01*
X129600945Y-66126693D01*
X129600000Y-66050000D01*
X129600063Y-66022998D01*
X129600402Y-66010000D01*
X130040000Y-66010000D01*
X130040237Y-66013614D01*
X130052912Y-66029528D01*
X130090322Y-66037696D01*
X130160000Y-66040000D01*
X130213151Y-66040735D01*
X130256388Y-66045587D01*
X130275622Y-66057659D01*
X130280000Y-66080000D01*
X130285569Y-66103326D01*
X130310000Y-66120000D01*
X130327495Y-66127424D01*
X130340000Y-66160000D01*
X130346574Y-66185857D01*
X130380000Y-66200000D01*
X130405858Y-66193426D01*
X130420000Y-66160000D01*
X130426574Y-66134142D01*
X130460000Y-66120000D01*
X130485858Y-66126573D01*
X130500000Y-66160000D01*
X130501174Y-66174033D01*
X130513316Y-66190757D01*
X130546432Y-66198263D01*
X130610000Y-66200000D01*
X130648592Y-66200426D01*
X130694583Y-66204841D01*
X130715226Y-66216884D01*
X130720000Y-66240000D01*
X130726574Y-66265857D01*
X130736366Y-66270000D01*
X130760000Y-66280000D01*
X130785858Y-66273426D01*
X130800000Y-66240000D01*
X130806574Y-66214142D01*
X130840000Y-66200000D01*
X130858058Y-66202288D01*
X130875526Y-66221754D01*
X130880000Y-66270000D01*
X130881308Y-66301601D01*
X130892432Y-66332169D01*
X130920000Y-66340000D01*
X130934034Y-66338826D01*
X130950758Y-66326684D01*
X130958264Y-66293568D01*
X130960000Y-66230000D01*
X130960000Y-66120000D01*
X130880000Y-66120000D01*
X130833825Y-66122264D01*
X130806709Y-66133830D01*
X130800000Y-66160000D01*
X130793427Y-66185857D01*
X130760000Y-66200000D01*
X130734143Y-66193426D01*
X130720000Y-66160000D01*
X130714432Y-66136673D01*
X130690000Y-66120000D01*
X130672506Y-66112575D01*
X130660000Y-66080000D01*
X130653427Y-66054142D01*
X130620000Y-66040000D01*
X130594143Y-66046573D01*
X130580000Y-66080000D01*
X130573427Y-66105857D01*
X130540000Y-66120000D01*
X130514143Y-66113426D01*
X130500000Y-66080000D01*
X130506574Y-66054142D01*
X130540000Y-66040000D01*
X130563327Y-66034431D01*
X130580000Y-66010000D01*
X130720000Y-66010000D01*
X130727425Y-66027494D01*
X130760000Y-66040000D01*
X130880000Y-66040000D01*
X130950000Y-66040000D01*
X130970656Y-66040178D01*
X131004797Y-66046015D01*
X131017881Y-66068778D01*
X131020000Y-66120000D01*
X131022265Y-66166175D01*
X131033831Y-66193291D01*
X131060000Y-66200000D01*
X131074034Y-66198826D01*
X131090758Y-66186684D01*
X131098264Y-66153568D01*
X131100000Y-66090000D01*
X131100000Y-65980000D01*
X131030000Y-65980000D01*
X130998399Y-65978692D01*
X130967831Y-65967568D01*
X130960000Y-65940000D01*
X130965569Y-65916673D01*
X130990000Y-65900000D01*
X131007495Y-65892575D01*
X131020000Y-65860000D01*
X131017712Y-65841942D01*
X130998246Y-65824474D01*
X130950000Y-65820000D01*
X130880000Y-65820000D01*
X130880000Y-65930000D01*
X130880000Y-66010000D01*
X130880000Y-66040000D01*
X130760000Y-66040000D01*
X130783327Y-66034431D01*
X130800000Y-66010000D01*
X130792576Y-65992505D01*
X130760000Y-65980000D01*
X130736674Y-65985568D01*
X130720000Y-66010000D01*
X130580000Y-66010000D01*
X130587425Y-65992505D01*
X130620000Y-65980000D01*
X130645858Y-65973426D01*
X130660000Y-65940000D01*
X130665569Y-65916673D01*
X130690000Y-65900000D01*
X130707495Y-65892575D01*
X130720000Y-65860000D01*
X130718827Y-65845966D01*
X130706685Y-65829242D01*
X130673569Y-65821736D01*
X130610000Y-65820000D01*
X130571409Y-65819573D01*
X130525418Y-65815158D01*
X130504775Y-65803115D01*
X130500000Y-65780000D01*
X130493427Y-65754142D01*
X130460000Y-65740000D01*
X130436913Y-65744529D01*
X130423355Y-65767661D01*
X130420000Y-65820000D01*
X130417736Y-65866175D01*
X130406170Y-65893291D01*
X130380000Y-65900000D01*
X130354143Y-65893426D01*
X130340000Y-65860000D01*
X130334432Y-65836673D01*
X130310000Y-65820000D01*
X130292506Y-65812575D01*
X130280000Y-65780000D01*
X130273427Y-65754142D01*
X130240000Y-65740000D01*
X130214143Y-65746573D01*
X130200000Y-65780000D01*
X130206574Y-65805857D01*
X130240000Y-65820000D01*
X130265858Y-65826573D01*
X130280000Y-65860000D01*
X130285569Y-65883326D01*
X130310000Y-65900000D01*
X130327495Y-65907424D01*
X130340000Y-65940000D01*
X130339765Y-65947200D01*
X130333287Y-65964865D01*
X130311693Y-65974747D01*
X130266694Y-65979055D01*
X130190000Y-65980000D01*
X130132419Y-65980687D01*
X130076253Y-65984887D01*
X130047858Y-65994175D01*
X130040000Y-66010000D01*
X129600402Y-66010000D01*
X129601791Y-65956753D01*
X129607549Y-65919697D01*
X129619549Y-65903542D01*
X129640000Y-65900000D01*
X129665858Y-65906573D01*
X129680000Y-65940000D01*
X129685569Y-65963326D01*
X129710000Y-65980000D01*
X129727495Y-65972575D01*
X129740000Y-65940000D01*
X129734432Y-65916673D01*
X129710000Y-65900000D01*
X129692506Y-65892575D01*
X129680000Y-65860000D01*
X129682289Y-65841942D01*
X129701755Y-65824474D01*
X129750000Y-65820000D01*
X129770656Y-65820178D01*
X129804797Y-65826015D01*
X129817881Y-65848778D01*
X129820000Y-65900000D01*
X129822265Y-65946175D01*
X129833831Y-65973291D01*
X129860000Y-65980000D01*
X129877717Y-65977793D01*
X129892130Y-65963237D01*
X129898541Y-65927022D01*
X129900000Y-65860000D01*
X129980000Y-65860000D01*
X129982289Y-65878057D01*
X130001755Y-65895525D01*
X130050000Y-65900000D01*
X130081602Y-65898692D01*
X130112170Y-65887568D01*
X130120000Y-65860000D01*
X130117712Y-65841942D01*
X130098246Y-65824474D01*
X130050000Y-65820000D01*
X130018399Y-65821307D01*
X129987831Y-65832431D01*
X129980000Y-65860000D01*
X129900000Y-65860000D01*
X129900000Y-65740000D01*
X129970000Y-65740000D01*
X130001602Y-65738692D01*
X130032170Y-65727568D01*
X130040000Y-65700000D01*
X130037712Y-65681942D01*
X130018246Y-65664474D01*
X129970000Y-65660000D01*
X129938399Y-65661307D01*
X129907831Y-65672431D01*
X129900000Y-65700000D01*
X129893427Y-65725857D01*
X129860000Y-65740000D01*
X129834143Y-65733426D01*
X129820000Y-65700000D01*
X129813427Y-65674142D01*
X129780000Y-65660000D01*
X129754143Y-65666573D01*
X129740000Y-65700000D01*
X129734432Y-65723326D01*
X129710000Y-65740000D01*
X129692506Y-65747424D01*
X129680000Y-65780000D01*
X129673427Y-65805857D01*
X129640000Y-65820000D01*
X129614143Y-65813426D01*
X129600000Y-65780000D01*
X129593427Y-65754142D01*
X129560000Y-65740000D01*
X129534143Y-65746573D01*
X129520000Y-65780000D01*
X129513427Y-65805857D01*
X129480000Y-65820000D01*
X129454143Y-65826573D01*
X129440000Y-65860000D01*
X129446574Y-65885857D01*
X129480000Y-65900000D01*
X129494034Y-65901173D01*
X129510758Y-65913315D01*
X129518264Y-65946431D01*
X129520000Y-66010000D01*
X129519574Y-66048591D01*
X129515159Y-66094582D01*
X129503116Y-66115225D01*
X129480000Y-66120000D01*
X129461943Y-66117711D01*
X129444475Y-66098245D01*
X129440000Y-66050000D01*
X129438693Y-66018398D01*
X129427569Y-65987830D01*
X129400000Y-65980000D01*
X129381943Y-65982288D01*
X129364475Y-66001754D01*
X129360000Y-66050000D01*
X129359946Y-66056375D01*
X129352189Y-66104820D01*
X129330000Y-66120000D01*
X129318484Y-66123436D01*
X129307251Y-66144435D01*
X129301572Y-66190879D01*
X129300000Y-66270000D01*
X129299938Y-66297001D01*
X129298210Y-66363246D01*
X129295607Y-66380000D01*
X129292452Y-66400302D01*
X129280452Y-66416457D01*
X129260000Y-66420000D01*
X129234143Y-66426573D01*
X129220000Y-66460000D01*
X129213427Y-66485857D01*
X129180000Y-66500000D01*
X129156913Y-66504529D01*
X129143355Y-66527661D01*
X129140000Y-66580000D01*
X129142265Y-66626175D01*
X129153831Y-66653291D01*
X129180000Y-66660000D01*
X129203327Y-66665568D01*
X129220000Y-66690000D01*
X129218549Y-66698624D01*
X129195627Y-66715046D01*
X129140000Y-66720000D01*
X129117001Y-66719455D01*
X129073211Y-66710859D01*
X129060000Y-66690000D01*
X129059874Y-66687267D01*
X129041774Y-66666505D01*
X128990000Y-66660000D01*
X128983625Y-66660054D01*
X128935180Y-66667811D01*
X128920000Y-66690000D01*
X128840548Y-66690000D01*
X128840000Y-66610000D01*
X128840534Y-66525264D01*
X128843238Y-66468081D01*
X128849676Y-66436422D01*
X128861409Y-66422869D01*
X128880000Y-66420000D01*
X128905858Y-66426573D01*
X128920000Y-66460000D01*
X128926574Y-66485857D01*
X128960000Y-66500000D01*
X128985858Y-66506573D01*
X129000000Y-66540000D01*
X129005569Y-66563326D01*
X129030000Y-66580000D01*
X129038625Y-66578548D01*
X129055047Y-66555626D01*
X129060000Y-66500000D01*
X129062265Y-66453824D01*
X129073831Y-66426708D01*
X129100000Y-66420000D01*
X129125858Y-66413426D01*
X129140000Y-66380000D01*
X129137712Y-66361942D01*
X129118246Y-66344474D01*
X129070000Y-66340000D01*
X129064672Y-66339991D01*
X129020564Y-66336156D01*
X129003097Y-66316916D01*
X129000000Y-66270000D01*
X128998693Y-66238398D01*
X128987569Y-66207830D01*
X128960000Y-66200000D01*
X128941943Y-66202288D01*
X128924475Y-66221754D01*
X128920000Y-66270000D01*
X128918693Y-66301601D01*
X128907569Y-66332169D01*
X128880000Y-66340000D01*
X128856674Y-66334431D01*
X128840000Y-66310000D01*
X128838549Y-66301375D01*
X128815627Y-66284953D01*
X128760000Y-66280000D01*
X128713825Y-66277735D01*
X128686709Y-66266169D01*
X128680000Y-66240000D01*
X128674432Y-66216673D01*
X128650000Y-66200000D01*
X128632506Y-66192575D01*
X128620000Y-66160000D01*
X128613427Y-66134142D01*
X128580000Y-66120000D01*
X128554143Y-66113426D01*
X128540000Y-66080000D01*
X128533427Y-66054142D01*
X128500000Y-66040000D01*
X128481943Y-66037711D01*
X128464475Y-66018245D01*
X128460000Y-65970000D01*
X128460179Y-65949344D01*
X128466016Y-65915203D01*
X128488779Y-65902119D01*
X128540000Y-65900000D01*
X128586176Y-65897735D01*
X128613292Y-65886169D01*
X128620000Y-65860000D01*
X128615471Y-65836912D01*
X128592339Y-65823354D01*
X128540000Y-65820000D01*
X128493825Y-65822264D01*
X128466709Y-65833830D01*
X128460000Y-65860000D01*
X128453427Y-65885857D01*
X128420000Y-65900000D01*
X128401943Y-65902288D01*
X128384475Y-65921754D01*
X128380000Y-65970000D01*
X128381308Y-66001601D01*
X128392432Y-66032169D01*
X128420000Y-66040000D01*
X128437717Y-66042206D01*
X128452130Y-66056762D01*
X128458541Y-66092977D01*
X128460000Y-66160000D01*
X128460000Y-66280000D01*
X128390000Y-66280000D01*
X128383625Y-66280054D01*
X128335180Y-66287811D01*
X128320000Y-66310000D01*
X128318549Y-66318624D01*
X128295627Y-66335046D01*
X128240000Y-66340000D01*
X128160000Y-66340000D01*
X128000820Y-66340000D01*
X128000000Y-66310000D01*
X128000427Y-66271408D01*
X128004842Y-66225417D01*
X128016885Y-66204774D01*
X128040000Y-66200000D01*
X128065858Y-66193426D01*
X128080000Y-66160000D01*
X128073427Y-66134142D01*
X128040000Y-66120000D01*
X128014143Y-66113426D01*
X128000000Y-66080000D01*
X128004530Y-66056912D01*
X128027662Y-66043354D01*
X128080000Y-66040000D01*
X128160000Y-66040000D01*
X128160000Y-66120000D01*
X128157736Y-66166175D01*
X128146170Y-66193291D01*
X128120000Y-66200000D01*
X128094143Y-66206573D01*
X128080000Y-66240000D01*
X128084530Y-66263087D01*
X128107662Y-66276645D01*
X128160000Y-66280000D01*
X128206176Y-66277735D01*
X128233292Y-66266169D01*
X128240000Y-66240000D01*
X128246574Y-66214142D01*
X128280000Y-66200000D01*
X128289780Y-66199480D01*
X128303798Y-66192975D01*
X128312652Y-66173542D01*
X128317519Y-66134413D01*
X128319576Y-66068821D01*
X128320000Y-65970000D01*
X128319910Y-65913769D01*
X128318779Y-65833166D01*
X128315399Y-65782255D01*
X128308594Y-65754268D01*
X128297187Y-65742439D01*
X128280000Y-65740000D01*
X128261943Y-65737711D01*
X128244475Y-65718245D01*
X128240000Y-65670000D01*
X128240000Y-65600000D01*
X128350000Y-65600000D01*
X128415472Y-65602593D01*
X128450125Y-65611908D01*
X128460000Y-65630000D01*
X128452576Y-65647494D01*
X128420000Y-65660000D01*
X128394143Y-65666573D01*
X128380000Y-65700000D01*
X128384530Y-65723087D01*
X128407662Y-65736645D01*
X128460000Y-65740000D01*
X128506176Y-65737735D01*
X128533292Y-65726169D01*
X128540000Y-65700000D01*
X128546574Y-65674142D01*
X128580000Y-65660000D01*
X128603088Y-65664529D01*
X128616646Y-65687661D01*
X128620000Y-65740000D01*
X128620000Y-65820000D01*
X128730000Y-65820000D01*
X128768592Y-65820426D01*
X128814583Y-65824841D01*
X128835226Y-65836884D01*
X128840000Y-65860000D01*
X128835471Y-65883087D01*
X128812339Y-65896645D01*
X128760000Y-65900000D01*
X128713825Y-65902264D01*
X128686709Y-65913830D01*
X128680000Y-65940000D01*
X128686574Y-65965857D01*
X128720000Y-65980000D01*
X128743327Y-65985568D01*
X128760000Y-66010000D01*
X128752576Y-66027494D01*
X128720000Y-66040000D01*
X128696913Y-66044529D01*
X128683355Y-66067661D01*
X128680000Y-66120000D01*
X128682265Y-66166175D01*
X128693831Y-66193291D01*
X128720000Y-66200000D01*
X128745858Y-66193426D01*
X128760000Y-66160000D01*
X128764530Y-66136912D01*
X128787662Y-66123354D01*
X128840000Y-66120000D01*
X128920000Y-66120000D01*
X128920000Y-66010000D01*
X128920427Y-65971408D01*
X128924842Y-65925417D01*
X128936885Y-65904774D01*
X128960000Y-65900000D01*
X128974034Y-65901173D01*
X128990758Y-65913315D01*
X128998264Y-65946431D01*
X129000000Y-66010000D01*
X129002594Y-66075471D01*
X129011909Y-66110124D01*
X129030000Y-66120000D01*
X129047495Y-66127424D01*
X129060000Y-66160000D01*
X129066574Y-66185857D01*
X129100000Y-66200000D01*
X129125858Y-66206573D01*
X129140000Y-66240000D01*
X129146574Y-66265857D01*
X129180000Y-66280000D01*
X129203088Y-66275470D01*
X129216646Y-66252338D01*
X129220000Y-66200000D01*
X129220000Y-66120000D01*
X129140000Y-66120000D01*
X129093825Y-66117735D01*
X129066709Y-66106169D01*
X129060000Y-66080000D01*
X129062207Y-66062283D01*
X129076763Y-66047870D01*
X129112978Y-66041459D01*
X129180000Y-66040000D01*
X129194459Y-66039940D01*
X129258115Y-66036772D01*
X129290785Y-66027419D01*
X129300000Y-66010000D01*
X129298549Y-66001375D01*
X129275627Y-65984953D01*
X129220000Y-65980000D01*
X129173825Y-65977735D01*
X129146709Y-65966169D01*
X129140000Y-65940000D01*
X129133427Y-65914142D01*
X129100000Y-65900000D01*
X129074143Y-65893426D01*
X129060000Y-65860000D01*
X129057712Y-65841942D01*
X129038246Y-65824474D01*
X128990000Y-65820000D01*
X128969345Y-65819821D01*
X128935204Y-65813984D01*
X128922120Y-65791221D01*
X128920000Y-65740000D01*
X128918039Y-65700000D01*
X129000000Y-65700000D01*
X129005569Y-65723326D01*
X129030000Y-65740000D01*
X129047495Y-65747424D01*
X129060000Y-65780000D01*
X129066574Y-65805857D01*
X129100000Y-65820000D01*
X129125858Y-65826573D01*
X129140000Y-65860000D01*
X129146574Y-65885857D01*
X129180000Y-65900000D01*
X129203088Y-65895470D01*
X129216646Y-65872338D01*
X129220000Y-65820000D01*
X129222265Y-65773824D01*
X129233831Y-65746708D01*
X129260000Y-65740000D01*
X129283088Y-65744529D01*
X129296646Y-65767661D01*
X129300000Y-65820000D01*
X129300545Y-65842999D01*
X129309141Y-65886789D01*
X129330000Y-65900000D01*
X129338625Y-65898548D01*
X129355047Y-65875626D01*
X129360000Y-65820000D01*
X129362265Y-65773824D01*
X129373831Y-65746708D01*
X129400000Y-65740000D01*
X129418058Y-65737711D01*
X129435526Y-65718245D01*
X129440000Y-65670000D01*
X129441308Y-65638398D01*
X129452432Y-65607830D01*
X129480000Y-65600000D01*
X129503088Y-65595470D01*
X129516646Y-65572338D01*
X129520000Y-65520000D01*
X129522265Y-65473824D01*
X129533831Y-65446708D01*
X129560000Y-65440000D01*
X129585858Y-65446573D01*
X129600000Y-65480000D01*
X129606574Y-65505857D01*
X129640000Y-65520000D01*
X129665858Y-65526573D01*
X129680000Y-65560000D01*
X129673427Y-65585857D01*
X129640000Y-65600000D01*
X129616674Y-65605568D01*
X129600000Y-65630000D01*
X129607425Y-65647494D01*
X129640000Y-65660000D01*
X129663327Y-65654431D01*
X129680000Y-65630000D01*
X129683485Y-65616009D01*
X129710000Y-65600000D01*
X129900000Y-65600000D01*
X130010000Y-65600000D01*
X130120000Y-65600000D01*
X130120000Y-65480000D01*
X130120000Y-65360000D01*
X130010000Y-65360000D01*
X129900000Y-65360000D01*
X129900000Y-65480000D01*
X129900000Y-65600000D01*
X129710000Y-65600000D01*
X129727495Y-65592575D01*
X129740000Y-65560000D01*
X129746574Y-65534142D01*
X129780000Y-65520000D01*
X129805858Y-65513426D01*
X129820000Y-65480000D01*
X129813427Y-65454142D01*
X129780000Y-65440000D01*
X129754143Y-65446573D01*
X129740000Y-65480000D01*
X129734432Y-65503326D01*
X129710000Y-65520000D01*
X129692506Y-65512575D01*
X129680000Y-65480000D01*
X129685569Y-65456673D01*
X129710000Y-65440000D01*
X129727495Y-65432575D01*
X129740000Y-65400000D01*
X129734432Y-65376673D01*
X129710000Y-65360000D01*
X129696010Y-65356515D01*
X129680000Y-65330000D01*
X129683485Y-65316009D01*
X129710000Y-65300000D01*
X129727495Y-65292575D01*
X129740000Y-65260000D01*
X129734432Y-65236673D01*
X129710000Y-65220000D01*
X129692506Y-65212575D01*
X129680000Y-65180000D01*
X129675471Y-65156912D01*
X129652339Y-65143354D01*
X129600000Y-65140000D01*
X129553825Y-65142264D01*
X129526709Y-65153830D01*
X129520000Y-65180000D01*
X129515471Y-65203087D01*
X129492339Y-65216645D01*
X129440000Y-65220000D01*
X129416394Y-65220156D01*
X129377376Y-65225263D01*
X129362422Y-65245181D01*
X129360000Y-65290000D01*
X129359992Y-65295328D01*
X129356157Y-65339436D01*
X129336917Y-65356903D01*
X129290000Y-65360000D01*
X129258399Y-65361307D01*
X129227831Y-65372431D01*
X129220000Y-65400000D01*
X129213427Y-65425857D01*
X129180000Y-65440000D01*
X129154143Y-65446573D01*
X129140000Y-65480000D01*
X129133427Y-65505857D01*
X129100000Y-65520000D01*
X129081943Y-65522288D01*
X129064475Y-65541754D01*
X129060000Y-65590000D01*
X129059946Y-65596375D01*
X129052189Y-65644820D01*
X129030000Y-65660000D01*
X129012506Y-65667424D01*
X129000000Y-65700000D01*
X128918039Y-65700000D01*
X128917736Y-65693824D01*
X128906170Y-65666708D01*
X128880000Y-65660000D01*
X128856674Y-65654431D01*
X128840000Y-65630000D01*
X128832576Y-65612505D01*
X128800000Y-65600000D01*
X128781943Y-65602288D01*
X128764475Y-65621754D01*
X128760000Y-65670000D01*
X128758693Y-65701601D01*
X128747569Y-65732169D01*
X128720000Y-65740000D01*
X128694143Y-65733426D01*
X128680000Y-65700000D01*
X128674432Y-65676673D01*
X128650000Y-65660000D01*
X128636010Y-65656515D01*
X128620000Y-65630000D01*
X128623485Y-65616009D01*
X128650000Y-65600000D01*
X128667495Y-65592575D01*
X128680000Y-65560000D01*
X128674432Y-65536673D01*
X128650000Y-65520000D01*
X128632506Y-65512575D01*
X128620000Y-65480000D01*
X128625569Y-65456673D01*
X128650000Y-65440000D01*
X128667495Y-65447424D01*
X128680000Y-65480000D01*
X128686574Y-65505857D01*
X128720000Y-65520000D01*
X128727201Y-65519764D01*
X128744866Y-65513286D01*
X128754748Y-65491692D01*
X128759056Y-65446693D01*
X128760000Y-65370000D01*
X128759938Y-65342998D01*
X128758210Y-65276753D01*
X128752452Y-65239697D01*
X128740452Y-65223542D01*
X128720000Y-65220000D01*
X128694143Y-65226573D01*
X128680000Y-65260000D01*
X128674432Y-65283326D01*
X128650000Y-65300000D01*
X128632506Y-65292575D01*
X128620000Y-65260000D01*
X128625569Y-65236673D01*
X128650000Y-65220000D01*
X128658625Y-65218548D01*
X128675047Y-65195626D01*
X128676438Y-65180000D01*
X128760000Y-65180000D01*
X128766574Y-65205857D01*
X128800000Y-65220000D01*
X128825858Y-65213426D01*
X128840000Y-65180000D01*
X128833427Y-65154142D01*
X128800000Y-65140000D01*
X128774143Y-65146573D01*
X128760000Y-65180000D01*
X128676438Y-65180000D01*
X128680000Y-65140000D01*
X128682265Y-65093824D01*
X128693831Y-65066708D01*
X128720000Y-65060000D01*
X128743327Y-65054431D01*
X128760000Y-65030000D01*
X128763597Y-65019321D01*
X128782027Y-65009649D01*
X128821752Y-65003747D01*
X128889001Y-65000801D01*
X128990000Y-65000000D01*
X129071870Y-65000469D01*
X129146018Y-65002872D01*
X129191271Y-65008054D01*
X129213856Y-65016826D01*
X129220000Y-65030000D01*
X129212576Y-65047494D01*
X129180000Y-65060000D01*
X129154143Y-65066573D01*
X129140000Y-65100000D01*
X129137712Y-65118057D01*
X129118246Y-65135525D01*
X129070000Y-65140000D01*
X129038399Y-65138692D01*
X129007831Y-65127568D01*
X129000000Y-65100000D01*
X128995471Y-65076912D01*
X128972339Y-65063354D01*
X128920000Y-65060000D01*
X128873825Y-65062264D01*
X128846709Y-65073830D01*
X128840000Y-65100000D01*
X128846574Y-65125857D01*
X128880000Y-65140000D01*
X128894034Y-65141173D01*
X128910758Y-65153315D01*
X128916806Y-65180000D01*
X128918264Y-65186431D01*
G37*
G36*
X129425858Y-68926573D02*
G01*
X129440000Y-68960000D01*
X129433427Y-68985857D01*
X129400000Y-69000000D01*
X129374143Y-68993426D01*
X129360000Y-68960000D01*
X129366574Y-68934142D01*
X129400000Y-68920000D01*
X129425858Y-68926573D01*
G37*
G36*
X129220000Y-68840000D02*
G01*
X129222265Y-68886175D01*
X129233831Y-68913291D01*
X129260000Y-68920000D01*
X129285858Y-68926573D01*
X129300000Y-68960000D01*
X129293427Y-68985857D01*
X129260000Y-69000000D01*
X129234143Y-68993426D01*
X129220000Y-68960000D01*
X129213427Y-68934142D01*
X129180000Y-68920000D01*
X129154143Y-68926573D01*
X129140000Y-68960000D01*
X129133427Y-68985857D01*
X129100000Y-69000000D01*
X129074143Y-68993426D01*
X129060000Y-68960000D01*
X129066574Y-68934142D01*
X129100000Y-68920000D01*
X129125858Y-68913426D01*
X129140000Y-68880000D01*
X129133427Y-68854142D01*
X129100000Y-68840000D01*
X129074143Y-68833426D01*
X129060000Y-68800000D01*
X129064530Y-68776912D01*
X129087662Y-68763354D01*
X129140000Y-68760000D01*
X129220000Y-68760000D01*
X129220000Y-68840000D01*
G37*
G36*
X129125858Y-68546573D02*
G01*
X129140000Y-68580000D01*
X129133427Y-68605857D01*
X129100000Y-68620000D01*
X129074143Y-68613426D01*
X129060000Y-68580000D01*
X129066574Y-68554142D01*
X129100000Y-68540000D01*
X129125858Y-68546573D01*
G37*
G36*
X132000000Y-68090000D02*
G01*
X131999313Y-68147581D01*
X131995113Y-68203747D01*
X131985825Y-68232142D01*
X131970000Y-68240000D01*
X131952506Y-68247424D01*
X131940000Y-68280000D01*
X131935471Y-68303087D01*
X131912339Y-68316645D01*
X131860000Y-68320000D01*
X131837001Y-68320544D01*
X131793211Y-68329140D01*
X131780000Y-68350000D01*
X131772576Y-68367494D01*
X131740000Y-68380000D01*
X131716674Y-68374431D01*
X131700000Y-68350000D01*
X131707425Y-68332505D01*
X131740000Y-68320000D01*
X131765858Y-68313426D01*
X131780000Y-68280000D01*
X131777466Y-68262160D01*
X131764621Y-68250122D01*
X131734042Y-68243457D01*
X131678308Y-68240604D01*
X131590000Y-68240000D01*
X131505265Y-68239466D01*
X131448082Y-68236762D01*
X131416423Y-68230324D01*
X131402870Y-68218591D01*
X131400000Y-68200000D01*
X131780000Y-68200000D01*
X131786574Y-68225857D01*
X131820000Y-68240000D01*
X131845858Y-68233426D01*
X131860000Y-68200000D01*
X131866574Y-68174142D01*
X131900000Y-68160000D01*
X131923088Y-68155470D01*
X131936646Y-68132338D01*
X131940000Y-68080000D01*
X131937736Y-68033824D01*
X131926170Y-68006708D01*
X131900000Y-68000000D01*
X131876913Y-68004529D01*
X131863355Y-68027661D01*
X131860000Y-68080000D01*
X131857736Y-68126175D01*
X131846170Y-68153291D01*
X131820000Y-68160000D01*
X131794143Y-68166573D01*
X131780000Y-68200000D01*
X131400000Y-68200000D01*
X131394432Y-68176673D01*
X131370000Y-68160000D01*
X131352506Y-68152575D01*
X131340000Y-68120000D01*
X131345569Y-68096673D01*
X131370000Y-68080000D01*
X131387495Y-68072575D01*
X131400000Y-68040000D01*
X131404530Y-68016912D01*
X131427662Y-68003354D01*
X131480000Y-68000000D01*
X131503000Y-67999455D01*
X131546790Y-67990859D01*
X131560000Y-67970000D01*
X131567425Y-67952505D01*
X131600000Y-67940000D01*
X131618058Y-67942288D01*
X131635526Y-67961754D01*
X131640000Y-68010000D01*
X131639822Y-68030655D01*
X131633985Y-68064796D01*
X131611222Y-68077880D01*
X131560000Y-68080000D01*
X131513825Y-68082264D01*
X131486709Y-68093830D01*
X131480000Y-68120000D01*
X131484530Y-68143087D01*
X131507662Y-68156645D01*
X131560000Y-68160000D01*
X131606176Y-68157735D01*
X131633292Y-68146169D01*
X131640000Y-68120000D01*
X131645569Y-68096673D01*
X131670000Y-68080000D01*
X131687495Y-68072575D01*
X131700000Y-68040000D01*
X131706574Y-68014142D01*
X131740000Y-68000000D01*
X131763327Y-67994431D01*
X131780000Y-67970000D01*
X131787425Y-67952505D01*
X131820000Y-67940000D01*
X131845858Y-67933426D01*
X131860000Y-67900000D01*
X131866574Y-67874142D01*
X131900000Y-67860000D01*
X131925858Y-67866573D01*
X131940000Y-67900000D01*
X131945569Y-67923326D01*
X131970000Y-67940000D01*
X131981517Y-67943436D01*
X131992750Y-67964435D01*
X131998429Y-68010879D01*
X131999801Y-68080000D01*
X132000000Y-68090000D01*
G37*
G36*
X131503000Y-68320544D02*
G01*
X131546790Y-68329140D01*
X131560000Y-68350000D01*
X131558549Y-68358624D01*
X131535627Y-68375046D01*
X131480000Y-68380000D01*
X131457001Y-68379455D01*
X131413211Y-68370859D01*
X131400000Y-68350000D01*
X131401452Y-68341375D01*
X131424374Y-68324953D01*
X131480000Y-68320000D01*
X131503000Y-68320544D01*
G37*
G36*
X131273151Y-68000735D02*
G01*
X131316388Y-68005587D01*
X131335622Y-68017659D01*
X131340000Y-68040000D01*
X131337794Y-68057716D01*
X131323238Y-68072129D01*
X131287023Y-68078540D01*
X131220000Y-68080000D01*
X131166850Y-68079264D01*
X131123613Y-68074412D01*
X131104379Y-68062340D01*
X131100000Y-68040000D01*
X131102207Y-68022283D01*
X131116763Y-68007870D01*
X131152978Y-68001459D01*
X131220000Y-68000000D01*
X131273151Y-68000735D01*
G37*
G36*
X131245858Y-67866573D02*
G01*
X131260000Y-67900000D01*
X131253427Y-67925857D01*
X131220000Y-67940000D01*
X131194143Y-67933426D01*
X131180000Y-67900000D01*
X131186574Y-67874142D01*
X131220000Y-67860000D01*
X131245858Y-67866573D01*
G37*
G36*
X131987495Y-67707424D02*
G01*
X132000000Y-67740000D01*
X131994432Y-67763326D01*
X131970000Y-67780000D01*
X131952506Y-67772575D01*
X131940000Y-67740000D01*
X131945569Y-67716673D01*
X131970000Y-67700000D01*
X131987495Y-67707424D01*
G37*
G36*
X128145858Y-67706573D02*
G01*
X128160000Y-67740000D01*
X128153427Y-67765857D01*
X128120000Y-67780000D01*
X128094143Y-67773426D01*
X128080000Y-67740000D01*
X128086574Y-67714142D01*
X128120000Y-67700000D01*
X128145858Y-67706573D01*
G37*
G36*
X128173151Y-66720735D02*
G01*
X128216388Y-66725587D01*
X128235622Y-66737659D01*
X128240000Y-66760000D01*
X128233427Y-66785857D01*
X128200000Y-66800000D01*
X128185967Y-66801173D01*
X128169243Y-66813315D01*
X128161737Y-66846431D01*
X128160000Y-66910000D01*
X128159574Y-66948591D01*
X128155159Y-66994582D01*
X128143116Y-67015225D01*
X128120000Y-67020000D01*
X128094143Y-67026573D01*
X128080000Y-67060000D01*
X128073427Y-67085857D01*
X128040000Y-67100000D01*
X128021943Y-67097711D01*
X128004475Y-67078245D01*
X128000000Y-67030000D01*
X128001308Y-66998398D01*
X128012432Y-66967830D01*
X128040000Y-66960000D01*
X128065858Y-66953426D01*
X128080000Y-66920000D01*
X128073427Y-66894142D01*
X128040000Y-66880000D01*
X128016913Y-66875470D01*
X128003355Y-66852338D01*
X128000000Y-66800000D01*
X128000000Y-66720000D01*
X128120000Y-66720000D01*
X128173151Y-66720735D01*
G37*
G36*
X128065858Y-66586573D02*
G01*
X128080000Y-66620000D01*
X128073427Y-66645857D01*
X128040000Y-66660000D01*
X128014143Y-66653426D01*
X128000000Y-66620000D01*
X128006574Y-66594142D01*
X128040000Y-66580000D01*
X128065858Y-66586573D01*
G37*
G36*
X128160000Y-65710000D02*
G01*
X128160427Y-65748591D01*
X128164842Y-65794582D01*
X128176885Y-65815225D01*
X128200000Y-65820000D01*
X128225858Y-65826573D01*
X128240000Y-65860000D01*
X128233427Y-65885857D01*
X128200000Y-65900000D01*
X128174143Y-65906573D01*
X128160000Y-65940000D01*
X128153427Y-65965857D01*
X128120000Y-65980000D01*
X128094143Y-65973426D01*
X128080000Y-65940000D01*
X128086574Y-65914142D01*
X128120000Y-65900000D01*
X128145858Y-65893426D01*
X128160000Y-65860000D01*
X128153427Y-65834142D01*
X128120000Y-65820000D01*
X128094143Y-65813426D01*
X128080000Y-65780000D01*
X128073427Y-65754142D01*
X128040000Y-65740000D01*
X128021943Y-65737711D01*
X128004475Y-65718245D01*
X128000000Y-65670000D01*
X128000179Y-65649344D01*
X128006016Y-65615203D01*
X128028779Y-65602119D01*
X128080000Y-65600000D01*
X128160000Y-65600000D01*
X128160000Y-65710000D01*
G37*
G36*
X131543327Y-65605568D02*
G01*
X131560000Y-65630000D01*
X131552576Y-65647494D01*
X131520000Y-65660000D01*
X131496674Y-65654431D01*
X131480000Y-65630000D01*
X131487425Y-65612505D01*
X131520000Y-65600000D01*
X131543327Y-65605568D01*
G37*
G36*
X132000000Y-65260000D02*
G01*
X132000000Y-65520000D01*
X131740000Y-65520000D01*
X131480000Y-65520000D01*
X131480000Y-65260000D01*
X131480000Y-65060000D01*
X131560000Y-65060000D01*
X131560000Y-65250000D01*
X131560000Y-65440000D01*
X131750000Y-65440000D01*
X131940000Y-65440000D01*
X131940000Y-65250000D01*
X131940000Y-65060000D01*
X131750000Y-65060000D01*
X131560000Y-65060000D01*
X131480000Y-65060000D01*
X131480000Y-65000000D01*
X131740000Y-65000000D01*
X132000000Y-65000000D01*
X132000000Y-65250000D01*
X132000000Y-65260000D01*
G37*
G36*
X128540000Y-65260000D02*
G01*
X128540000Y-65520000D01*
X128270000Y-65520000D01*
X128000000Y-65520000D01*
X128000000Y-65260000D01*
X128000000Y-65060000D01*
X128080000Y-65060000D01*
X128080000Y-65250000D01*
X128080000Y-65440000D01*
X128270000Y-65440000D01*
X128460000Y-65440000D01*
X128460000Y-65250000D01*
X128460000Y-65060000D01*
X128270000Y-65060000D01*
X128080000Y-65060000D01*
X128000000Y-65060000D01*
X128000000Y-65000000D01*
X128270000Y-65000000D01*
X128540000Y-65000000D01*
X128540000Y-65250000D01*
X128540000Y-65260000D01*
G37*
G36*
X131093427Y-65205857D02*
G01*
X131060000Y-65220000D01*
X131041943Y-65222288D01*
X131024475Y-65241754D01*
X131020000Y-65290000D01*
X131019946Y-65296375D01*
X131012189Y-65344820D01*
X130990000Y-65360000D01*
X130987268Y-65359873D01*
X130966506Y-65341773D01*
X130960000Y-65290000D01*
X130958693Y-65258398D01*
X130947569Y-65227830D01*
X130920000Y-65220000D01*
X130894143Y-65213426D01*
X130880000Y-65180000D01*
X130960000Y-65180000D01*
X130965569Y-65203326D01*
X130990000Y-65220000D01*
X131007495Y-65212575D01*
X131020000Y-65180000D01*
X131014432Y-65156673D01*
X130990000Y-65140000D01*
X130972506Y-65147424D01*
X130960000Y-65180000D01*
X130880000Y-65180000D01*
X130886574Y-65154142D01*
X130920000Y-65140000D01*
X130945858Y-65133426D01*
X130960000Y-65100000D01*
X130953427Y-65074142D01*
X130920000Y-65060000D01*
X130896674Y-65054431D01*
X130880000Y-65030000D01*
X130880127Y-65027267D01*
X130898227Y-65006505D01*
X130950000Y-65000000D01*
X130955329Y-65000008D01*
X130999437Y-65003843D01*
X131016904Y-65023083D01*
X131020000Y-65070000D01*
X131021308Y-65101601D01*
X131032432Y-65132169D01*
X131060000Y-65140000D01*
X131085858Y-65146573D01*
X131100000Y-65180000D01*
X131093427Y-65205857D01*
G37*
G36*
X131203000Y-65000544D02*
G01*
X131246790Y-65009140D01*
X131260000Y-65030000D01*
X131258549Y-65038624D01*
X131235627Y-65055046D01*
X131180000Y-65060000D01*
X131157001Y-65059455D01*
X131113211Y-65050859D01*
X131100000Y-65030000D01*
X131101452Y-65021375D01*
X131124374Y-65004953D01*
X131180000Y-65000000D01*
X131203000Y-65000544D01*
G37*
G36*
X130023991Y-65003484D02*
G01*
X130040000Y-65030000D01*
X130036516Y-65043990D01*
X130010000Y-65060000D01*
X129996010Y-65056515D01*
X129980000Y-65030000D01*
X129983485Y-65016009D01*
X130010000Y-65000000D01*
X130023991Y-65003484D01*
G37*
G36*
X131860000Y-68730000D02*
G01*
X131860000Y-68840000D01*
X131750000Y-68840000D01*
X131640000Y-68840000D01*
X131640000Y-68730000D01*
X131640000Y-68620000D01*
X131750000Y-68620000D01*
X131860000Y-68620000D01*
X131860000Y-68730000D01*
G37*
G36*
X130105858Y-68766573D02*
G01*
X130120000Y-68800000D01*
X130113427Y-68825857D01*
X130080000Y-68840000D01*
X130054143Y-68833426D01*
X130040000Y-68800000D01*
X130046574Y-68774142D01*
X130080000Y-68760000D01*
X130105858Y-68766573D01*
G37*
G36*
X130334432Y-68143326D02*
G01*
X130310000Y-68160000D01*
X130292506Y-68167424D01*
X130280000Y-68200000D01*
X130273427Y-68225857D01*
X130240000Y-68240000D01*
X130221943Y-68242288D01*
X130204475Y-68261754D01*
X130200000Y-68310000D01*
X130200009Y-68315328D01*
X130203844Y-68359436D01*
X130223084Y-68376903D01*
X130270000Y-68380000D01*
X130301602Y-68381307D01*
X130332170Y-68392431D01*
X130340000Y-68420000D01*
X130334432Y-68443326D01*
X130310000Y-68460000D01*
X130292506Y-68467424D01*
X130280000Y-68500000D01*
X130273427Y-68525857D01*
X130240000Y-68540000D01*
X130221943Y-68542288D01*
X130204475Y-68561754D01*
X130200000Y-68610000D01*
X130200000Y-68680000D01*
X130090000Y-68680000D01*
X130051409Y-68680426D01*
X130005418Y-68684841D01*
X129984775Y-68696884D01*
X129980000Y-68720000D01*
X129973427Y-68745857D01*
X129940000Y-68760000D01*
X129914143Y-68753426D01*
X129900000Y-68720000D01*
X129895471Y-68696912D01*
X129872339Y-68683354D01*
X129820000Y-68680000D01*
X129797001Y-68679455D01*
X129753211Y-68670859D01*
X129740000Y-68650000D01*
X129747425Y-68632505D01*
X129780000Y-68620000D01*
X129789780Y-68619480D01*
X129803798Y-68612975D01*
X129812652Y-68593542D01*
X129817519Y-68554413D01*
X129819576Y-68488821D01*
X129820000Y-68390000D01*
X129820016Y-68380000D01*
X129900000Y-68380000D01*
X129900000Y-68500000D01*
X129900000Y-68620000D01*
X130010000Y-68620000D01*
X130120000Y-68620000D01*
X130120000Y-68500000D01*
X130120000Y-68380000D01*
X130010000Y-68380000D01*
X129900000Y-68380000D01*
X129820016Y-68380000D01*
X129820091Y-68333769D01*
X129820845Y-68280000D01*
X130040000Y-68280000D01*
X130046574Y-68305857D01*
X130080000Y-68320000D01*
X130105858Y-68313426D01*
X130120000Y-68280000D01*
X130126574Y-68254142D01*
X130160000Y-68240000D01*
X130185858Y-68233426D01*
X130200000Y-68200000D01*
X130206574Y-68174142D01*
X130240000Y-68160000D01*
X130265858Y-68153426D01*
X130280000Y-68120000D01*
X130273427Y-68094142D01*
X130240000Y-68080000D01*
X130214143Y-68073426D01*
X130200000Y-68040000D01*
X130193427Y-68014142D01*
X130160000Y-68000000D01*
X130134143Y-68006573D01*
X130120000Y-68040000D01*
X130126574Y-68065857D01*
X130160000Y-68080000D01*
X130185858Y-68086573D01*
X130200000Y-68120000D01*
X130193427Y-68145857D01*
X130160000Y-68160000D01*
X130134143Y-68166573D01*
X130120000Y-68200000D01*
X130113427Y-68225857D01*
X130080000Y-68240000D01*
X130054143Y-68246573D01*
X130040000Y-68280000D01*
X129820845Y-68280000D01*
X129821222Y-68253166D01*
X129824602Y-68202255D01*
X129831407Y-68174268D01*
X129842814Y-68162439D01*
X129860000Y-68160000D01*
X129885858Y-68153426D01*
X129900000Y-68120000D01*
X129897466Y-68102160D01*
X129884621Y-68090122D01*
X129854042Y-68083457D01*
X129798308Y-68080604D01*
X129710000Y-68080000D01*
X129520000Y-68080000D01*
X129520000Y-68010000D01*
X129521308Y-67978398D01*
X129532432Y-67947830D01*
X129560000Y-67940000D01*
X129583327Y-67945568D01*
X129600000Y-67970000D01*
X129607425Y-67987494D01*
X129640000Y-68000000D01*
X129663327Y-67994431D01*
X129680000Y-67970000D01*
X129672576Y-67952505D01*
X129640000Y-67940000D01*
X129614143Y-67933426D01*
X129600000Y-67900000D01*
X129602289Y-67881942D01*
X129621755Y-67864474D01*
X129670000Y-67860000D01*
X129701602Y-67858692D01*
X129732170Y-67847568D01*
X129740000Y-67820000D01*
X129746574Y-67794142D01*
X129780000Y-67780000D01*
X129794034Y-67778826D01*
X129810758Y-67766684D01*
X129818264Y-67733568D01*
X129820000Y-67670000D01*
X129820000Y-67560000D01*
X129930000Y-67560000D01*
X129968592Y-67560426D01*
X130014583Y-67564841D01*
X130035226Y-67576884D01*
X130040000Y-67600000D01*
X130034432Y-67623326D01*
X130010000Y-67640000D01*
X129996010Y-67643484D01*
X129980000Y-67670000D01*
X129972576Y-67687494D01*
X129940000Y-67700000D01*
X129914143Y-67706573D01*
X129900000Y-67740000D01*
X129893427Y-67765857D01*
X129860000Y-67780000D01*
X129836913Y-67784529D01*
X129823355Y-67807661D01*
X129820000Y-67860000D01*
X129817736Y-67906175D01*
X129806170Y-67933291D01*
X129780000Y-67940000D01*
X129756674Y-67945568D01*
X129740000Y-67970000D01*
X129741452Y-67978624D01*
X129764374Y-67995046D01*
X129820000Y-68000000D01*
X129843000Y-67999455D01*
X129886790Y-67990859D01*
X129900000Y-67970000D01*
X129907425Y-67952505D01*
X129940000Y-67940000D01*
X129954034Y-67941173D01*
X129970758Y-67953315D01*
X129978264Y-67986431D01*
X129980000Y-68050000D01*
X129979574Y-68088591D01*
X129975159Y-68134582D01*
X129963116Y-68155225D01*
X129940000Y-68160000D01*
X129914143Y-68166573D01*
X129900000Y-68200000D01*
X129902289Y-68218057D01*
X129921755Y-68235525D01*
X129970000Y-68240000D01*
X130040000Y-68240000D01*
X130040000Y-68120000D01*
X130040736Y-68066849D01*
X130045588Y-68023612D01*
X130057660Y-68004378D01*
X130080000Y-68000000D01*
X130103327Y-67994431D01*
X130120000Y-67970000D01*
X130127425Y-67952505D01*
X130160000Y-67940000D01*
X130185858Y-67933426D01*
X130200000Y-67900000D01*
X130206574Y-67874142D01*
X130240000Y-67860000D01*
X130265858Y-67866573D01*
X130280000Y-67900000D01*
X130273427Y-67925857D01*
X130240000Y-67940000D01*
X130216674Y-67945568D01*
X130200000Y-67970000D01*
X130207425Y-67987494D01*
X130240000Y-68000000D01*
X130265858Y-68006573D01*
X130280000Y-68040000D01*
X130285569Y-68063326D01*
X130310000Y-68080000D01*
X130327495Y-68087424D01*
X130340000Y-68120000D01*
X130334432Y-68143326D01*
G37*
G36*
X129425858Y-68006573D02*
G01*
X129440000Y-68040000D01*
X129433427Y-68065857D01*
X129400000Y-68080000D01*
X129374143Y-68073426D01*
X129360000Y-68040000D01*
X129366574Y-68014142D01*
X129400000Y-68000000D01*
X129425858Y-68006573D01*
G37*
G36*
X130877736Y-67146175D02*
G01*
X130866170Y-67173291D01*
X130840000Y-67180000D01*
X130821943Y-67182288D01*
X130804475Y-67201754D01*
X130800000Y-67250000D01*
X130798693Y-67281601D01*
X130787569Y-67312169D01*
X130760000Y-67320000D01*
X130736913Y-67324529D01*
X130723355Y-67347661D01*
X130720000Y-67400000D01*
X130719456Y-67422999D01*
X130710860Y-67466789D01*
X130690000Y-67480000D01*
X130672506Y-67487424D01*
X130660000Y-67520000D01*
X130665569Y-67543326D01*
X130690000Y-67560000D01*
X130707495Y-67552575D01*
X130720000Y-67520000D01*
X130726574Y-67494142D01*
X130760000Y-67480000D01*
X130785858Y-67473426D01*
X130800000Y-67440000D01*
X130806574Y-67414142D01*
X130840000Y-67400000D01*
X130865858Y-67406573D01*
X130880000Y-67440000D01*
X130886574Y-67465857D01*
X130920000Y-67480000D01*
X130945858Y-67486573D01*
X130960000Y-67520000D01*
X130961174Y-67534033D01*
X130973316Y-67550757D01*
X131006432Y-67558263D01*
X131070000Y-67560000D01*
X131108592Y-67560426D01*
X131154583Y-67564841D01*
X131175226Y-67576884D01*
X131180000Y-67600000D01*
X131179777Y-67606795D01*
X131175343Y-67620242D01*
X131160621Y-67629467D01*
X131129667Y-67635264D01*
X131076541Y-67638423D01*
X130995299Y-67639737D01*
X130880000Y-67640000D01*
X130829035Y-67639970D01*
X130728183Y-67639379D01*
X130658992Y-67637416D01*
X130615520Y-67633288D01*
X130591826Y-67626205D01*
X130581966Y-67615373D01*
X130580000Y-67600000D01*
X130573427Y-67574142D01*
X130540000Y-67560000D01*
X130514143Y-67553426D01*
X130500000Y-67520000D01*
X130506574Y-67494142D01*
X130540000Y-67480000D01*
X130563088Y-67475470D01*
X130576646Y-67452338D01*
X130580000Y-67400000D01*
X130580157Y-67376393D01*
X130585264Y-67337375D01*
X130605182Y-67322421D01*
X130650000Y-67320000D01*
X130655329Y-67319991D01*
X130699437Y-67316156D01*
X130716904Y-67296916D01*
X130720000Y-67250000D01*
X130719946Y-67243624D01*
X130712189Y-67195179D01*
X130690000Y-67180000D01*
X130672506Y-67172575D01*
X130660000Y-67140000D01*
X130720000Y-67140000D01*
X130726574Y-67165857D01*
X130760000Y-67180000D01*
X130785858Y-67173426D01*
X130800000Y-67140000D01*
X130793427Y-67114142D01*
X130760000Y-67100000D01*
X130734143Y-67106573D01*
X130720000Y-67140000D01*
X130660000Y-67140000D01*
X130665569Y-67116673D01*
X130690000Y-67100000D01*
X130707495Y-67092575D01*
X130720000Y-67060000D01*
X130726574Y-67034142D01*
X130760000Y-67020000D01*
X130783327Y-67014431D01*
X130800000Y-66990000D01*
X130809511Y-66972144D01*
X130843664Y-66962693D01*
X130910000Y-66960000D01*
X130975472Y-66962593D01*
X131010125Y-66971908D01*
X131020000Y-66990000D01*
X131027425Y-67007494D01*
X131060000Y-67020000D01*
X131085858Y-67026573D01*
X131100000Y-67060000D01*
X131097712Y-67078057D01*
X131078246Y-67095525D01*
X131030000Y-67100000D01*
X130998399Y-67098692D01*
X130967831Y-67087568D01*
X130960000Y-67060000D01*
X130953427Y-67034142D01*
X130920000Y-67020000D01*
X130896913Y-67024529D01*
X130883355Y-67047661D01*
X130880000Y-67100000D01*
X130878039Y-67140000D01*
X130877736Y-67146175D01*
G37*
G36*
X130265858Y-67566573D02*
G01*
X130280000Y-67600000D01*
X130273427Y-67625857D01*
X130240000Y-67640000D01*
X130214143Y-67633426D01*
X130200000Y-67600000D01*
X130206574Y-67574142D01*
X130240000Y-67560000D01*
X130265858Y-67566573D01*
G37*
G36*
X131007495Y-67327424D02*
G01*
X131020000Y-67360000D01*
X131026574Y-67385857D01*
X131060000Y-67400000D01*
X131085858Y-67406573D01*
X131100000Y-67440000D01*
X131093427Y-67465857D01*
X131060000Y-67480000D01*
X131034143Y-67473426D01*
X131020000Y-67440000D01*
X131014432Y-67416673D01*
X130990000Y-67400000D01*
X130972506Y-67392575D01*
X130960000Y-67360000D01*
X130965569Y-67336673D01*
X130990000Y-67320000D01*
X131007495Y-67327424D01*
G37*
G36*
X130105858Y-67326573D02*
G01*
X130120000Y-67360000D01*
X130113427Y-67385857D01*
X130080000Y-67400000D01*
X130054143Y-67406573D01*
X130040000Y-67440000D01*
X130034432Y-67463326D01*
X130010000Y-67480000D01*
X129992506Y-67472575D01*
X129980000Y-67440000D01*
X129985569Y-67416673D01*
X130010000Y-67400000D01*
X130027495Y-67392575D01*
X130040000Y-67360000D01*
X130046574Y-67334142D01*
X130080000Y-67320000D01*
X130105858Y-67326573D01*
G37*
G36*
X129425858Y-66806573D02*
G01*
X129440000Y-66840000D01*
X129446574Y-66865857D01*
X129480000Y-66880000D01*
X129505858Y-66886573D01*
X129520000Y-66920000D01*
X129513427Y-66945857D01*
X129480000Y-66960000D01*
X129454143Y-66953426D01*
X129440000Y-66920000D01*
X129433427Y-66894142D01*
X129400000Y-66880000D01*
X129381943Y-66882288D01*
X129364475Y-66901754D01*
X129360000Y-66950000D01*
X129359946Y-66956375D01*
X129352189Y-67004820D01*
X129330000Y-67020000D01*
X129321376Y-67021451D01*
X129304954Y-67044373D01*
X129300000Y-67100000D01*
X129297736Y-67146175D01*
X129286170Y-67173291D01*
X129260000Y-67180000D01*
X129234143Y-67173426D01*
X129220000Y-67140000D01*
X129213427Y-67114142D01*
X129180000Y-67100000D01*
X129154143Y-67093426D01*
X129140000Y-67060000D01*
X129146574Y-67034142D01*
X129180000Y-67020000D01*
X129203327Y-67014431D01*
X129220000Y-66990000D01*
X129227425Y-66972505D01*
X129260000Y-66960000D01*
X129285858Y-66953426D01*
X129300000Y-66920000D01*
X129305569Y-66896673D01*
X129330000Y-66880000D01*
X129347495Y-66872575D01*
X129360000Y-66840000D01*
X129366574Y-66814142D01*
X129400000Y-66800000D01*
X129425858Y-66806573D01*
G37*
G36*
X129486176Y-67022264D02*
G01*
X129513292Y-67033830D01*
X129520000Y-67060000D01*
X129515471Y-67083087D01*
X129492339Y-67096645D01*
X129440000Y-67100000D01*
X129393825Y-67097735D01*
X129366709Y-67086169D01*
X129360000Y-67060000D01*
X129364530Y-67036912D01*
X129387662Y-67023354D01*
X129440000Y-67020000D01*
X129486176Y-67022264D01*
G37*
G36*
X129205858Y-66886573D02*
G01*
X129220000Y-66920000D01*
X129213427Y-66945857D01*
X129180000Y-66960000D01*
X129154143Y-66953426D01*
X129140000Y-66920000D01*
X129146574Y-66894142D01*
X129180000Y-66880000D01*
X129205858Y-66886573D01*
G37*
G36*
X130565858Y-66806573D02*
G01*
X130580000Y-66840000D01*
X130573427Y-66865857D01*
X130540000Y-66880000D01*
X130514143Y-66873426D01*
X130500000Y-66840000D01*
X130506574Y-66814142D01*
X130540000Y-66800000D01*
X130565858Y-66806573D01*
G37*
G36*
X130301602Y-66581307D02*
G01*
X130332170Y-66592431D01*
X130340000Y-66620000D01*
X130337712Y-66638057D01*
X130318246Y-66655525D01*
X130270000Y-66660000D01*
X130238399Y-66658692D01*
X130207831Y-66647568D01*
X130200000Y-66620000D01*
X130202289Y-66601942D01*
X130221755Y-66584474D01*
X130270000Y-66580000D01*
X130301602Y-66581307D01*
G37*
G36*
X129712733Y-66280126D02*
G01*
X129733495Y-66298226D01*
X129740000Y-66350000D01*
X129739946Y-66356375D01*
X129732189Y-66404820D01*
X129710000Y-66420000D01*
X129692506Y-66427424D01*
X129680000Y-66460000D01*
X129673427Y-66485857D01*
X129640000Y-66500000D01*
X129616913Y-66495470D01*
X129603355Y-66472338D01*
X129600000Y-66420000D01*
X129597736Y-66373824D01*
X129586170Y-66346708D01*
X129560000Y-66340000D01*
X129536674Y-66334431D01*
X129520000Y-66310000D01*
X129527425Y-66292505D01*
X129560000Y-66280000D01*
X129583327Y-66285568D01*
X129600000Y-66310000D01*
X129607425Y-66327494D01*
X129640000Y-66340000D01*
X129663327Y-66334431D01*
X129680000Y-66310000D01*
X129683485Y-66296009D01*
X129710000Y-66280000D01*
X129712733Y-66280126D01*
G37*
G36*
X129401602Y-66421307D02*
G01*
X129432170Y-66432431D01*
X129440000Y-66460000D01*
X129437712Y-66478057D01*
X129418246Y-66495525D01*
X129370000Y-66500000D01*
X129338399Y-66498692D01*
X129307831Y-66487568D01*
X129300000Y-66460000D01*
X129302289Y-66441942D01*
X129321755Y-66424474D01*
X129370000Y-66420000D01*
X129401602Y-66421307D01*
G37*
G36*
X129423327Y-66285568D02*
G01*
X129440000Y-66310000D01*
X129432576Y-66327494D01*
X129400000Y-66340000D01*
X129376674Y-66334431D01*
X129360000Y-66310000D01*
X129367425Y-66292505D01*
X129400000Y-66280000D01*
X129423327Y-66285568D01*
G37*
G36*
X129883088Y-66124529D02*
G01*
X129896646Y-66147661D01*
X129900000Y-66200000D01*
X129897736Y-66246175D01*
X129886170Y-66273291D01*
X129860000Y-66280000D01*
X129836913Y-66275470D01*
X129823355Y-66252338D01*
X129820000Y-66200000D01*
X129822265Y-66153824D01*
X129833831Y-66126708D01*
X129860000Y-66120000D01*
X129883088Y-66124529D01*
G37*
G36*
X129585858Y-65826573D02*
G01*
X129600000Y-65860000D01*
X129593427Y-65885857D01*
X129560000Y-65900000D01*
X129534143Y-65893426D01*
X129520000Y-65860000D01*
X129526574Y-65834142D01*
X129560000Y-65820000D01*
X129585858Y-65826573D01*
G37*
G36*
X128525858Y-68466573D02*
G01*
X128540000Y-68500000D01*
X128533427Y-68525857D01*
X128500000Y-68540000D01*
X128474143Y-68533426D01*
X128460000Y-68500000D01*
X128466574Y-68474142D01*
X128500000Y-68460000D01*
X128525858Y-68466573D01*
G37*
G36*
X129205858Y-67566573D02*
G01*
X129220000Y-67600000D01*
X129213427Y-67625857D01*
X129180000Y-67640000D01*
X129154143Y-67633426D01*
X129140000Y-67600000D01*
X129146574Y-67574142D01*
X129180000Y-67560000D01*
X129205858Y-67566573D01*
G37*
G36*
X131543327Y-66965568D02*
G01*
X131560000Y-66990000D01*
X131552576Y-67007494D01*
X131520000Y-67020000D01*
X131496674Y-67014431D01*
X131480000Y-66990000D01*
X131487425Y-66972505D01*
X131520000Y-66960000D01*
X131543327Y-66965568D01*
G37*
G36*
X130023991Y-66963484D02*
G01*
X130040000Y-66990000D01*
X130036516Y-67003990D01*
X130010000Y-67020000D01*
X129996010Y-67016515D01*
X129980000Y-66990000D01*
X129983485Y-66976009D01*
X130010000Y-66960000D01*
X130023991Y-66963484D01*
G37*
G36*
X128523327Y-66965568D02*
G01*
X128540000Y-66990000D01*
X128532576Y-67007494D01*
X128500000Y-67020000D01*
X128476674Y-67014431D01*
X128460000Y-66990000D01*
X128467425Y-66972505D01*
X128500000Y-66960000D01*
X128523327Y-66965568D01*
G37*
G36*
X130485858Y-65906573D02*
G01*
X130500000Y-65940000D01*
X130493427Y-65965857D01*
X130460000Y-65980000D01*
X130441943Y-65982288D01*
X130424475Y-66001754D01*
X130420000Y-66050000D01*
X130418693Y-66081601D01*
X130407569Y-66112169D01*
X130380000Y-66120000D01*
X130361943Y-66117711D01*
X130344475Y-66098245D01*
X130340000Y-66050000D01*
X130341308Y-66018398D01*
X130352432Y-65987830D01*
X130380000Y-65980000D01*
X130405858Y-65973426D01*
X130420000Y-65940000D01*
X130426574Y-65914142D01*
X130460000Y-65900000D01*
X130485858Y-65906573D01*
G37*
G36*
X129283088Y-65444529D02*
G01*
X129296646Y-65467661D01*
X129300000Y-65520000D01*
X129300545Y-65542999D01*
X129309141Y-65586789D01*
X129330000Y-65600000D01*
X129332733Y-65600126D01*
X129353495Y-65618226D01*
X129360000Y-65670000D01*
X129359946Y-65676375D01*
X129352189Y-65724820D01*
X129330000Y-65740000D01*
X129312506Y-65732575D01*
X129300000Y-65700000D01*
X129295471Y-65676912D01*
X129272339Y-65663354D01*
X129220000Y-65660000D01*
X129196394Y-65659843D01*
X129157376Y-65654736D01*
X129142422Y-65634818D01*
X129140000Y-65590000D01*
X129141308Y-65558398D01*
X129152432Y-65527830D01*
X129180000Y-65520000D01*
X129205858Y-65513426D01*
X129220000Y-65480000D01*
X129226574Y-65454142D01*
X129260000Y-65440000D01*
X129283088Y-65444529D01*
G37*
G36*
X129498058Y-65302288D02*
G01*
X129515526Y-65321754D01*
X129520000Y-65370000D01*
X129518693Y-65401601D01*
X129507569Y-65432169D01*
X129480000Y-65440000D01*
X129454143Y-65446573D01*
X129440000Y-65480000D01*
X129433427Y-65505857D01*
X129400000Y-65520000D01*
X129374143Y-65513426D01*
X129360000Y-65480000D01*
X129366574Y-65454142D01*
X129400000Y-65440000D01*
X129418058Y-65437711D01*
X129435526Y-65418245D01*
X129440000Y-65370000D01*
X129441308Y-65338398D01*
X129452432Y-65307830D01*
X129480000Y-65300000D01*
X129498058Y-65302288D01*
G37*
G36*
X130027495Y-65447424D02*
G01*
X130040000Y-65480000D01*
X130034432Y-65503326D01*
X130010000Y-65520000D01*
X129992506Y-65512575D01*
X129980000Y-65480000D01*
X129985569Y-65456673D01*
X130010000Y-65440000D01*
X130027495Y-65447424D01*
G37*
G36*
X131860000Y-65250000D02*
G01*
X131860000Y-65360000D01*
X131750000Y-65360000D01*
X131640000Y-65360000D01*
X131640000Y-65250000D01*
X131640000Y-65140000D01*
X131750000Y-65140000D01*
X131860000Y-65140000D01*
X131860000Y-65250000D01*
G37*
G36*
X128380000Y-65250000D02*
G01*
X128380000Y-65360000D01*
X128270000Y-65360000D01*
X128160000Y-65360000D01*
X128160000Y-65250000D01*
X128160000Y-65140000D01*
X128270000Y-65140000D01*
X128380000Y-65140000D01*
X128380000Y-65250000D01*
G37*
G36*
X130027495Y-68467424D02*
G01*
X130040000Y-68500000D01*
X130034432Y-68523326D01*
X130010000Y-68540000D01*
X129992506Y-68532575D01*
X129980000Y-68500000D01*
X129985569Y-68476673D01*
X130010000Y-68460000D01*
X130027495Y-68467424D01*
G37*
G36*
X128700000Y-70470000D02*
G01*
X128700000Y-70680000D01*
X128490000Y-70680000D01*
X128280000Y-70680000D01*
X128280000Y-70470000D01*
X128280000Y-70260000D01*
X128490000Y-70260000D01*
X128700000Y-70260000D01*
X128700000Y-70470000D01*
G37*
G36*
X131740000Y-70470000D02*
G01*
X131740000Y-70680000D01*
X131530000Y-70680000D01*
X131320000Y-70680000D01*
X131320000Y-70470000D01*
X131320000Y-70260000D01*
X131530000Y-70260000D01*
X131740000Y-70260000D01*
X131740000Y-70470000D01*
G37*
G36*
X129595329Y-71360008D02*
G01*
X129639437Y-71363843D01*
X129656904Y-71383083D01*
X129660000Y-71430000D01*
X129659992Y-71435328D01*
X129656157Y-71479436D01*
X129636917Y-71496903D01*
X129590000Y-71500000D01*
X129584672Y-71499991D01*
X129540564Y-71496156D01*
X129523097Y-71476916D01*
X129520000Y-71430000D01*
X129520009Y-71424671D01*
X129523844Y-71380563D01*
X129543084Y-71363096D01*
X129590000Y-71360000D01*
X129595329Y-71360008D01*
G37*
G36*
X130640000Y-71990000D02*
G01*
X130643155Y-72036304D01*
X130659689Y-72056097D01*
X130700000Y-72060000D01*
X130760000Y-72060000D01*
X130760000Y-72200000D01*
X130760000Y-72340000D01*
X130700000Y-72340000D01*
X130640000Y-72340000D01*
X130640000Y-72200000D01*
X130640000Y-72060000D01*
X130500000Y-72060000D01*
X130360000Y-72060000D01*
X130360000Y-71990000D01*
X130360000Y-71920000D01*
X130500000Y-71920000D01*
X130640000Y-71920000D01*
X130640000Y-71990000D01*
G37*
G36*
X131115329Y-72480008D02*
G01*
X131159437Y-72483843D01*
X131176904Y-72503083D01*
X131180000Y-72550000D01*
X131179992Y-72555328D01*
X131176157Y-72599436D01*
X131156917Y-72616903D01*
X131110000Y-72620000D01*
X131104672Y-72619991D01*
X131060564Y-72616156D01*
X131043097Y-72596916D01*
X131040000Y-72550000D01*
X131040009Y-72544671D01*
X131043844Y-72500563D01*
X131063084Y-72483096D01*
X131110000Y-72480000D01*
X131115329Y-72480008D01*
G37*
G36*
X128915329Y-73020008D02*
G01*
X128959437Y-73023843D01*
X128976904Y-73043083D01*
X128980000Y-73090000D01*
X128979992Y-73095328D01*
X128976157Y-73139436D01*
X128956917Y-73156903D01*
X128910000Y-73160000D01*
X128904672Y-73159991D01*
X128860564Y-73156156D01*
X128843097Y-73136916D01*
X128840000Y-73090000D01*
X128840009Y-73084671D01*
X128843844Y-73040563D01*
X128863084Y-73023096D01*
X128910000Y-73020000D01*
X128915329Y-73020008D01*
G37*
G36*
X131740000Y-73510000D02*
G01*
X131740000Y-73720000D01*
X131530000Y-73720000D01*
X131320000Y-73720000D01*
X131320000Y-73510000D01*
X131320000Y-73300000D01*
X131530000Y-73300000D01*
X131740000Y-73300000D01*
X131740000Y-73510000D01*
G37*
G36*
X128980000Y-70480000D02*
G01*
X128980000Y-70960000D01*
X128490000Y-70960000D01*
X128000000Y-70960000D01*
X128000000Y-70480000D01*
X128000000Y-70120000D01*
X128140000Y-70120000D01*
X128140000Y-70470000D01*
X128140000Y-70820000D01*
X128490000Y-70820000D01*
X128840000Y-70820000D01*
X128840000Y-70470000D01*
X128840000Y-70120000D01*
X128490000Y-70120000D01*
X128140000Y-70120000D01*
X128000000Y-70120000D01*
X128000000Y-70000000D01*
X128490000Y-70000000D01*
X128980000Y-70000000D01*
X128980000Y-70470000D01*
X128980000Y-70480000D01*
G37*
G36*
X132000000Y-70480000D02*
G01*
X132000000Y-70960000D01*
X131520000Y-70960000D01*
X131040000Y-70960000D01*
X131040000Y-70480000D01*
X131040000Y-70120000D01*
X131180000Y-70120000D01*
X131180000Y-70470000D01*
X131180000Y-70820000D01*
X131530000Y-70820000D01*
X131880000Y-70820000D01*
X131880000Y-70470000D01*
X131880000Y-70120000D01*
X131530000Y-70120000D01*
X131180000Y-70120000D01*
X131040000Y-70120000D01*
X131040000Y-70000000D01*
X131520000Y-70000000D01*
X132000000Y-70000000D01*
X132000000Y-70470000D01*
X132000000Y-70480000D01*
G37*
G36*
X129359690Y-72483679D02*
G01*
X129376656Y-72502969D01*
X129380000Y-72550000D01*
X129376846Y-72596304D01*
X129360312Y-72616097D01*
X129320000Y-72620000D01*
X129280311Y-72616320D01*
X129263345Y-72597030D01*
X129260000Y-72550000D01*
X129263155Y-72503695D01*
X129279689Y-72483902D01*
X129320000Y-72480000D01*
X129359690Y-72483679D01*
G37*
G36*
X130900000Y-73440000D02*
G01*
X130900000Y-73580000D01*
X130830000Y-73580000D01*
X130760000Y-73580000D01*
X130760000Y-73440000D01*
X130760000Y-73300000D01*
X130830000Y-73300000D01*
X130900000Y-73300000D01*
X130900000Y-73440000D01*
G37*
G36*
X129260000Y-73650000D02*
G01*
X129259992Y-73655328D01*
X129256157Y-73699436D01*
X129236917Y-73716903D01*
X129190000Y-73720000D01*
X129184672Y-73720008D01*
X129140564Y-73723843D01*
X129123097Y-73743083D01*
X129120000Y-73790000D01*
X129120009Y-73795328D01*
X129123844Y-73839436D01*
X129143084Y-73856903D01*
X129190000Y-73860000D01*
X129195329Y-73860008D01*
X129239437Y-73863843D01*
X129256904Y-73883083D01*
X129260000Y-73930000D01*
X129259992Y-73935328D01*
X129256157Y-73979436D01*
X129236917Y-73996903D01*
X129190000Y-74000000D01*
X129184672Y-73999991D01*
X129140564Y-73996156D01*
X129123097Y-73976916D01*
X129120000Y-73930000D01*
X129119992Y-73924671D01*
X129116157Y-73880563D01*
X129096917Y-73863096D01*
X129050000Y-73860000D01*
X128980000Y-73860000D01*
X128980000Y-73720000D01*
X128980000Y-73580000D01*
X129120000Y-73580000D01*
X129260000Y-73580000D01*
X129260000Y-73650000D01*
G37*
G36*
X129455329Y-73580008D02*
G01*
X129499437Y-73583843D01*
X129516904Y-73603083D01*
X129520000Y-73650000D01*
X129520009Y-73655328D01*
X129523844Y-73699436D01*
X129543084Y-73716903D01*
X129590000Y-73720000D01*
X129595329Y-73720008D01*
X129639437Y-73723843D01*
X129656904Y-73743083D01*
X129660000Y-73790000D01*
X129659992Y-73795328D01*
X129656157Y-73839436D01*
X129636917Y-73856903D01*
X129590000Y-73860000D01*
X129584672Y-73860008D01*
X129540564Y-73863843D01*
X129523097Y-73883083D01*
X129520000Y-73930000D01*
X129519992Y-73935328D01*
X129516157Y-73979436D01*
X129496917Y-73996903D01*
X129450000Y-74000000D01*
X129380000Y-74000000D01*
X129380000Y-73790000D01*
X129380000Y-73580000D01*
X129450000Y-73580000D01*
X129455329Y-73580008D01*
G37*
G36*
X129260000Y-72130000D02*
G01*
X129263155Y-72176304D01*
X129279689Y-72196097D01*
X129320000Y-72200000D01*
X129359690Y-72203679D01*
X129376656Y-72222969D01*
X129380000Y-72270000D01*
X129380000Y-72340000D01*
X129250000Y-72340000D01*
X129120000Y-72340000D01*
X129120000Y-72270000D01*
X129119992Y-72264671D01*
X129116157Y-72220563D01*
X129096917Y-72203096D01*
X129050000Y-72200000D01*
X129044672Y-72199991D01*
X129000564Y-72196156D01*
X128983097Y-72176916D01*
X128980000Y-72130000D01*
X128980000Y-72060000D01*
X129120000Y-72060000D01*
X129260000Y-72060000D01*
X129260000Y-72130000D01*
G37*
G36*
X130900000Y-70540000D02*
G01*
X130830000Y-70540000D01*
X130760000Y-70540000D01*
X130760000Y-70680000D01*
X130760000Y-70820000D01*
X130830000Y-70820000D01*
X130835329Y-70820008D01*
X130879437Y-70823843D01*
X130896904Y-70843083D01*
X130900000Y-70890000D01*
X130899992Y-70895328D01*
X130896157Y-70939436D01*
X130876917Y-70956903D01*
X130830000Y-70960000D01*
X130824672Y-70960008D01*
X130780564Y-70963843D01*
X130763097Y-70983083D01*
X130760000Y-71030000D01*
X130760000Y-71100000D01*
X130630000Y-71100000D01*
X130500000Y-71100000D01*
X130500000Y-70890000D01*
X130640000Y-70890000D01*
X130643155Y-70936304D01*
X130659689Y-70956097D01*
X130700000Y-70960000D01*
X130739690Y-70956320D01*
X130756656Y-70937030D01*
X130760000Y-70890000D01*
X130756846Y-70843695D01*
X130740312Y-70823902D01*
X130700000Y-70820000D01*
X130660311Y-70823679D01*
X130643345Y-70842969D01*
X130640000Y-70890000D01*
X130500000Y-70890000D01*
X130500000Y-70680000D01*
X130430000Y-70680000D01*
X130360000Y-70680000D01*
X130360000Y-70750000D01*
X130360000Y-70820000D01*
X130360000Y-70960000D01*
X130290000Y-70960000D01*
X130284672Y-70959991D01*
X130240564Y-70956156D01*
X130223097Y-70936916D01*
X130220000Y-70890000D01*
X130219992Y-70884671D01*
X130216157Y-70840563D01*
X130196917Y-70823096D01*
X130150000Y-70820000D01*
X130144672Y-70820008D01*
X130100564Y-70823843D01*
X130083097Y-70843083D01*
X130080000Y-70890000D01*
X130079992Y-70895328D01*
X130076157Y-70939436D01*
X130056917Y-70956903D01*
X130010000Y-70960000D01*
X130004672Y-70959991D01*
X129960564Y-70956156D01*
X129943097Y-70936916D01*
X129940000Y-70890000D01*
X129939992Y-70884671D01*
X129936157Y-70840563D01*
X129916917Y-70823096D01*
X129870000Y-70820000D01*
X129800000Y-70820000D01*
X129800000Y-71030000D01*
X129800000Y-71240000D01*
X129870000Y-71240000D01*
X129875329Y-71239991D01*
X129919437Y-71236156D01*
X129936904Y-71216916D01*
X129940000Y-71170000D01*
X129940000Y-71100000D01*
X130080000Y-71100000D01*
X130220000Y-71100000D01*
X130220000Y-71230000D01*
X130220000Y-71360000D01*
X130290000Y-71360000D01*
X130336305Y-71356845D01*
X130356098Y-71340311D01*
X130360000Y-71300000D01*
X130363680Y-71260310D01*
X130382970Y-71243344D01*
X130430000Y-71240000D01*
X130476305Y-71243154D01*
X130496098Y-71259688D01*
X130500000Y-71300000D01*
X130496321Y-71339689D01*
X130477031Y-71356655D01*
X130430000Y-71360000D01*
X130424672Y-71360008D01*
X130380564Y-71363843D01*
X130363097Y-71383083D01*
X130360000Y-71430000D01*
X130360009Y-71435328D01*
X130363844Y-71479436D01*
X130383084Y-71496903D01*
X130430000Y-71500000D01*
X130435329Y-71500008D01*
X130479437Y-71503843D01*
X130496904Y-71523083D01*
X130500000Y-71570000D01*
X130500009Y-71575328D01*
X130503844Y-71619436D01*
X130523084Y-71636903D01*
X130570000Y-71640000D01*
X130640000Y-71640000D01*
X130640000Y-71440000D01*
X130640000Y-71240000D01*
X130770000Y-71240000D01*
X130900000Y-71240000D01*
X130900000Y-71300000D01*
X130896321Y-71339689D01*
X130877031Y-71356655D01*
X130830000Y-71360000D01*
X130824672Y-71360008D01*
X130780564Y-71363843D01*
X130763097Y-71383083D01*
X130760000Y-71430000D01*
X130760009Y-71435328D01*
X130763844Y-71479436D01*
X130783084Y-71496903D01*
X130830000Y-71500000D01*
X130835329Y-71500008D01*
X130879437Y-71503843D01*
X130896904Y-71523083D01*
X130900000Y-71570000D01*
X130899992Y-71575328D01*
X130896157Y-71619436D01*
X130876917Y-71636903D01*
X130830000Y-71640000D01*
X130824672Y-71640008D01*
X130780564Y-71643843D01*
X130763097Y-71663083D01*
X130760000Y-71710000D01*
X130760000Y-71780000D01*
X130900000Y-71780000D01*
X131040000Y-71780000D01*
X131040000Y-71710000D01*
X131040009Y-71704671D01*
X131043844Y-71660563D01*
X131063084Y-71643096D01*
X131110000Y-71640000D01*
X131115329Y-71639991D01*
X131159437Y-71636156D01*
X131176904Y-71616916D01*
X131180000Y-71570000D01*
X131180000Y-71500000D01*
X131040000Y-71500000D01*
X130900000Y-71500000D01*
X130900000Y-71430000D01*
X130900000Y-71360000D01*
X131040000Y-71360000D01*
X131180000Y-71360000D01*
X131180000Y-71300000D01*
X131180000Y-71240000D01*
X131040000Y-71240000D01*
X130900000Y-71240000D01*
X130900000Y-71170000D01*
X130900000Y-71100000D01*
X131040000Y-71100000D01*
X131180000Y-71100000D01*
X131180000Y-71170000D01*
X131180009Y-71175328D01*
X131183844Y-71219436D01*
X131203084Y-71236903D01*
X131250000Y-71240000D01*
X131255329Y-71239991D01*
X131299437Y-71236156D01*
X131316904Y-71216916D01*
X131320000Y-71170000D01*
X131320000Y-71100000D01*
X131460000Y-71100000D01*
X131600000Y-71100000D01*
X131600000Y-71170000D01*
X131600009Y-71175328D01*
X131603844Y-71219436D01*
X131623084Y-71236903D01*
X131670000Y-71240000D01*
X131716305Y-71243154D01*
X131736098Y-71259688D01*
X131740000Y-71300000D01*
X131743680Y-71339689D01*
X131762970Y-71356655D01*
X131810000Y-71360000D01*
X131856305Y-71356845D01*
X131876098Y-71340311D01*
X131880000Y-71300000D01*
X131881839Y-71268332D01*
X131897503Y-71244955D01*
X131940000Y-71240000D01*
X132000000Y-71240000D01*
X132000000Y-71510000D01*
X132000000Y-71780000D01*
X131870000Y-71780000D01*
X131740000Y-71780000D01*
X131740000Y-71570000D01*
X131740000Y-71360000D01*
X131600000Y-71360000D01*
X131460000Y-71360000D01*
X131460000Y-71500000D01*
X131460000Y-71640000D01*
X131530000Y-71640000D01*
X131535329Y-71640008D01*
X131579437Y-71643843D01*
X131596904Y-71663083D01*
X131600000Y-71710000D01*
X131599992Y-71715328D01*
X131596157Y-71759436D01*
X131576917Y-71776903D01*
X131530000Y-71780000D01*
X131524672Y-71780008D01*
X131480564Y-71783843D01*
X131463097Y-71803083D01*
X131460000Y-71850000D01*
X131460000Y-71920000D01*
X131730000Y-71920000D01*
X132000000Y-71920000D01*
X132000000Y-72270000D01*
X132000000Y-72400000D01*
X132000000Y-72880000D01*
X131870000Y-72880000D01*
X131740000Y-72880000D01*
X131740000Y-72680000D01*
X131740000Y-72480000D01*
X131670000Y-72480000D01*
X131664672Y-72479991D01*
X131620564Y-72476156D01*
X131603097Y-72456916D01*
X131600000Y-72410000D01*
X131599992Y-72404671D01*
X131596157Y-72360563D01*
X131576917Y-72343096D01*
X131530000Y-72340000D01*
X131460000Y-72340000D01*
X131460000Y-72200000D01*
X131460000Y-72130000D01*
X131600000Y-72130000D01*
X131600009Y-72135328D01*
X131603844Y-72179436D01*
X131623084Y-72196903D01*
X131670000Y-72200000D01*
X131675329Y-72200008D01*
X131719437Y-72203843D01*
X131736904Y-72223083D01*
X131740000Y-72270000D01*
X131740009Y-72275328D01*
X131743844Y-72319436D01*
X131763084Y-72336903D01*
X131810000Y-72340000D01*
X131815329Y-72339991D01*
X131859437Y-72336156D01*
X131876904Y-72316916D01*
X131880000Y-72270000D01*
X131879992Y-72264671D01*
X131876157Y-72220563D01*
X131856917Y-72203096D01*
X131810000Y-72200000D01*
X131804672Y-72199991D01*
X131760564Y-72196156D01*
X131743097Y-72176916D01*
X131740000Y-72130000D01*
X131739992Y-72124671D01*
X131736157Y-72080563D01*
X131716917Y-72063096D01*
X131670000Y-72060000D01*
X131664672Y-72060008D01*
X131620564Y-72063843D01*
X131603097Y-72083083D01*
X131600000Y-72130000D01*
X131460000Y-72130000D01*
X131460000Y-72060000D01*
X131390000Y-72060000D01*
X131384672Y-72060008D01*
X131340564Y-72063843D01*
X131323097Y-72083083D01*
X131320000Y-72130000D01*
X131319992Y-72135328D01*
X131316157Y-72179436D01*
X131296917Y-72196903D01*
X131250000Y-72200000D01*
X131244672Y-72200008D01*
X131200564Y-72203843D01*
X131183097Y-72223083D01*
X131180000Y-72270000D01*
X131180009Y-72275328D01*
X131183844Y-72319436D01*
X131203084Y-72336903D01*
X131250000Y-72340000D01*
X131255329Y-72340008D01*
X131299437Y-72343843D01*
X131316904Y-72363083D01*
X131320000Y-72410000D01*
X131320009Y-72415328D01*
X131323844Y-72459436D01*
X131343084Y-72476903D01*
X131390000Y-72480000D01*
X131395329Y-72480008D01*
X131439437Y-72483843D01*
X131456904Y-72503083D01*
X131460000Y-72550000D01*
X131460009Y-72555328D01*
X131463844Y-72599436D01*
X131483084Y-72616903D01*
X131530000Y-72620000D01*
X131576305Y-72623154D01*
X131596098Y-72639688D01*
X131600000Y-72680000D01*
X131600000Y-72740000D01*
X131390000Y-72740000D01*
X131180000Y-72740000D01*
X131180000Y-72810000D01*
X131180000Y-72880000D01*
X131040000Y-72880000D01*
X130900000Y-72880000D01*
X130900000Y-73020000D01*
X130900000Y-73160000D01*
X130830000Y-73160000D01*
X130760000Y-73160000D01*
X130760000Y-73020000D01*
X130760000Y-72880000D01*
X130700000Y-72880000D01*
X130660311Y-72883679D01*
X130643345Y-72902969D01*
X130640000Y-72950000D01*
X130639992Y-72955328D01*
X130636157Y-72999436D01*
X130616917Y-73016903D01*
X130570000Y-73020000D01*
X130564672Y-73020008D01*
X130520564Y-73023843D01*
X130503097Y-73043083D01*
X130500000Y-73090000D01*
X130500009Y-73095328D01*
X130503844Y-73139436D01*
X130523084Y-73156903D01*
X130570000Y-73160000D01*
X130640000Y-73160000D01*
X130640000Y-73300000D01*
X130640000Y-73370000D01*
X130640000Y-73440000D01*
X130500000Y-73440000D01*
X130360000Y-73440000D01*
X130360000Y-73510000D01*
X130360000Y-73580000D01*
X130220000Y-73580000D01*
X130080000Y-73580000D01*
X130080000Y-73510000D01*
X130080000Y-73440000D01*
X129940000Y-73440000D01*
X129800000Y-73440000D01*
X129800000Y-73370000D01*
X130080000Y-73370000D01*
X130080009Y-73375328D01*
X130083844Y-73419436D01*
X130103084Y-73436903D01*
X130150000Y-73440000D01*
X130155329Y-73439991D01*
X130199437Y-73436156D01*
X130216904Y-73416916D01*
X130220000Y-73370000D01*
X130219992Y-73364671D01*
X130216157Y-73320563D01*
X130196917Y-73303096D01*
X130150000Y-73300000D01*
X130144672Y-73300008D01*
X130100564Y-73303843D01*
X130083097Y-73323083D01*
X130080000Y-73370000D01*
X129800000Y-73370000D01*
X129799992Y-73364671D01*
X129796157Y-73320563D01*
X129776917Y-73303096D01*
X129730000Y-73300000D01*
X129724672Y-73299991D01*
X129680564Y-73296156D01*
X129663097Y-73276916D01*
X129660000Y-73230000D01*
X129660009Y-73224671D01*
X129663844Y-73180563D01*
X129683084Y-73163096D01*
X129730000Y-73160000D01*
X129800000Y-73160000D01*
X129800000Y-72950000D01*
X129800000Y-72740000D01*
X129660000Y-72740000D01*
X129520000Y-72740000D01*
X129520000Y-72480000D01*
X129800000Y-72480000D01*
X129800000Y-72550000D01*
X129800000Y-72620000D01*
X129940000Y-72620000D01*
X130080000Y-72620000D01*
X130080000Y-72680000D01*
X130083680Y-72719689D01*
X130102970Y-72736655D01*
X130150000Y-72740000D01*
X130220000Y-72740000D01*
X130220000Y-72880000D01*
X130220000Y-73020000D01*
X130150000Y-73020000D01*
X130144672Y-73019991D01*
X130100564Y-73016156D01*
X130083097Y-72996916D01*
X130080000Y-72950000D01*
X130079992Y-72944671D01*
X130076157Y-72900563D01*
X130056917Y-72883096D01*
X130010000Y-72880000D01*
X129940000Y-72880000D01*
X129940000Y-73020000D01*
X129940000Y-73160000D01*
X130080000Y-73160000D01*
X130220000Y-73160000D01*
X130220000Y-73090000D01*
X130220000Y-73020000D01*
X130360000Y-73020000D01*
X130500000Y-73020000D01*
X130500000Y-72950000D01*
X130500009Y-72944671D01*
X130503844Y-72900563D01*
X130523084Y-72883096D01*
X130570000Y-72880000D01*
X130575329Y-72879991D01*
X130619437Y-72876156D01*
X130636904Y-72856916D01*
X130640000Y-72810000D01*
X130643155Y-72763695D01*
X130659689Y-72743902D01*
X130700000Y-72740000D01*
X130731668Y-72738161D01*
X130755045Y-72722497D01*
X130760000Y-72680000D01*
X130758162Y-72648332D01*
X130742498Y-72624955D01*
X130700000Y-72620000D01*
X130668333Y-72621838D01*
X130644956Y-72637502D01*
X130640000Y-72680000D01*
X130640000Y-72740000D01*
X130500000Y-72740000D01*
X130360000Y-72740000D01*
X130360000Y-72680000D01*
X130363680Y-72640310D01*
X130382970Y-72623344D01*
X130430000Y-72620000D01*
X130435329Y-72619991D01*
X130479437Y-72616156D01*
X130496904Y-72596916D01*
X130500000Y-72550000D01*
X130499992Y-72544671D01*
X130496157Y-72500563D01*
X130476917Y-72483096D01*
X130430000Y-72480000D01*
X130424672Y-72479991D01*
X130380564Y-72476156D01*
X130363097Y-72456916D01*
X130360000Y-72410000D01*
X130360000Y-72340000D01*
X130500000Y-72340000D01*
X130640000Y-72340000D01*
X130640000Y-72410000D01*
X130640000Y-72480000D01*
X130770000Y-72480000D01*
X130900000Y-72480000D01*
X130900000Y-72550000D01*
X130900009Y-72555328D01*
X130903844Y-72599436D01*
X130923084Y-72616903D01*
X130970000Y-72620000D01*
X131016305Y-72623154D01*
X131036098Y-72639688D01*
X131040000Y-72680000D01*
X131043680Y-72719689D01*
X131062970Y-72736655D01*
X131110000Y-72740000D01*
X131156305Y-72736845D01*
X131176098Y-72720311D01*
X131180000Y-72680000D01*
X131183680Y-72640310D01*
X131202970Y-72623344D01*
X131250000Y-72620000D01*
X131255329Y-72619991D01*
X131299437Y-72616156D01*
X131316904Y-72596916D01*
X131320000Y-72550000D01*
X131319992Y-72544671D01*
X131316157Y-72500563D01*
X131296917Y-72483096D01*
X131250000Y-72480000D01*
X131244672Y-72479991D01*
X131200564Y-72476156D01*
X131183097Y-72456916D01*
X131180000Y-72410000D01*
X131180000Y-72340000D01*
X131040000Y-72340000D01*
X130900000Y-72340000D01*
X130900000Y-72200000D01*
X130900000Y-72060000D01*
X130830000Y-72060000D01*
X130824672Y-72059991D01*
X130780564Y-72056156D01*
X130763097Y-72036916D01*
X130760000Y-71990000D01*
X130756846Y-71943695D01*
X130740312Y-71923902D01*
X130700000Y-71920000D01*
X130660311Y-71916320D01*
X130643345Y-71897030D01*
X130640000Y-71850000D01*
X131040000Y-71850000D01*
X131040009Y-71855328D01*
X131043844Y-71899436D01*
X131063084Y-71916903D01*
X131110000Y-71920000D01*
X131115329Y-71920008D01*
X131159437Y-71923843D01*
X131176904Y-71943083D01*
X131180000Y-71990000D01*
X131179992Y-71995328D01*
X131176157Y-72039436D01*
X131156917Y-72056903D01*
X131110000Y-72060000D01*
X131104672Y-72060008D01*
X131060564Y-72063843D01*
X131043097Y-72083083D01*
X131040000Y-72130000D01*
X131040009Y-72135328D01*
X131043844Y-72179436D01*
X131063084Y-72196903D01*
X131110000Y-72200000D01*
X131115329Y-72199991D01*
X131159437Y-72196156D01*
X131176904Y-72176916D01*
X131180000Y-72130000D01*
X131180009Y-72124671D01*
X131183844Y-72080563D01*
X131203084Y-72063096D01*
X131250000Y-72060000D01*
X131320000Y-72060000D01*
X131320000Y-71920000D01*
X131320000Y-71780000D01*
X131180000Y-71780000D01*
X131040000Y-71780000D01*
X131040000Y-71850000D01*
X130640000Y-71850000D01*
X130640000Y-71780000D01*
X130430000Y-71780000D01*
X130220000Y-71780000D01*
X130220000Y-71850000D01*
X130219992Y-71855328D01*
X130216157Y-71899436D01*
X130196917Y-71916903D01*
X130150000Y-71920000D01*
X130080000Y-71920000D01*
X130080000Y-72060000D01*
X130080000Y-72200000D01*
X130150000Y-72200000D01*
X130155329Y-72200008D01*
X130199437Y-72203843D01*
X130216904Y-72223083D01*
X130220000Y-72270000D01*
X130219992Y-72275328D01*
X130216157Y-72319436D01*
X130196917Y-72336903D01*
X130150000Y-72340000D01*
X130144672Y-72340008D01*
X130100564Y-72343843D01*
X130083097Y-72363083D01*
X130080000Y-72410000D01*
X130080000Y-72480000D01*
X129940000Y-72480000D01*
X129800000Y-72480000D01*
X129520000Y-72480000D01*
X129520000Y-72400000D01*
X129520000Y-72200000D01*
X129660000Y-72200000D01*
X129660000Y-72270000D01*
X129660000Y-72340000D01*
X129800000Y-72340000D01*
X129940000Y-72340000D01*
X129940000Y-72270000D01*
X129940000Y-72200000D01*
X129800000Y-72200000D01*
X129660000Y-72200000D01*
X129520000Y-72200000D01*
X129520000Y-72060000D01*
X129390000Y-72060000D01*
X129260000Y-72060000D01*
X129260000Y-71990000D01*
X129263155Y-71943695D01*
X129279689Y-71923902D01*
X129320000Y-71920000D01*
X129380000Y-71920000D01*
X129380000Y-71780000D01*
X129380000Y-71640000D01*
X129320000Y-71640000D01*
X129280311Y-71643679D01*
X129263345Y-71662969D01*
X129260000Y-71710000D01*
X129260000Y-71780000D01*
X129120000Y-71780000D01*
X128980000Y-71780000D01*
X128980000Y-71850000D01*
X128979992Y-71855328D01*
X128976157Y-71899436D01*
X128956917Y-71916903D01*
X128910000Y-71920000D01*
X128904672Y-71920008D01*
X128860564Y-71923843D01*
X128843097Y-71943083D01*
X128840000Y-71990000D01*
X128839992Y-71995328D01*
X128836157Y-72039436D01*
X128816917Y-72056903D01*
X128770000Y-72060000D01*
X128764672Y-72060008D01*
X128720564Y-72063843D01*
X128703097Y-72083083D01*
X128700000Y-72130000D01*
X128700009Y-72135328D01*
X128703844Y-72179436D01*
X128723084Y-72196903D01*
X128770000Y-72200000D01*
X128775329Y-72200008D01*
X128819437Y-72203843D01*
X128836904Y-72223083D01*
X128840000Y-72270000D01*
X128839992Y-72275328D01*
X128836157Y-72319436D01*
X128816917Y-72336903D01*
X128770000Y-72340000D01*
X128764672Y-72340008D01*
X128720564Y-72343843D01*
X128703097Y-72363083D01*
X128700000Y-72410000D01*
X128700009Y-72415328D01*
X128703844Y-72459436D01*
X128723084Y-72476903D01*
X128770000Y-72480000D01*
X128775329Y-72480008D01*
X128819437Y-72483843D01*
X128836904Y-72503083D01*
X128840000Y-72550000D01*
X128840000Y-72620000D01*
X128980000Y-72620000D01*
X129120000Y-72620000D01*
X129120000Y-72680000D01*
X129123680Y-72719689D01*
X129142970Y-72736655D01*
X129190000Y-72740000D01*
X129260000Y-72740000D01*
X129260000Y-72880000D01*
X129260000Y-73020000D01*
X129390000Y-73020000D01*
X129520000Y-73020000D01*
X129520000Y-73090000D01*
X129520000Y-73160000D01*
X129520000Y-73300000D01*
X129450000Y-73300000D01*
X129444672Y-73300008D01*
X129400564Y-73303843D01*
X129383097Y-73323083D01*
X129380000Y-73370000D01*
X129380000Y-73440000D01*
X129110000Y-73440000D01*
X128840000Y-73440000D01*
X128840000Y-73580000D01*
X128840000Y-73720000D01*
X128770000Y-73720000D01*
X128764672Y-73720008D01*
X128720564Y-73723843D01*
X128703097Y-73743083D01*
X128700000Y-73790000D01*
X128700009Y-73795328D01*
X128703844Y-73839436D01*
X128723084Y-73856903D01*
X128770000Y-73860000D01*
X128775329Y-73860008D01*
X128819437Y-73863843D01*
X128836904Y-73883083D01*
X128840000Y-73930000D01*
X128840000Y-74000000D01*
X128700000Y-74000000D01*
X128560000Y-74000000D01*
X128560000Y-73860000D01*
X128560000Y-73720000D01*
X128490000Y-73720000D01*
X128484672Y-73720008D01*
X128440564Y-73723843D01*
X128423097Y-73743083D01*
X128420000Y-73790000D01*
X128419992Y-73795328D01*
X128416157Y-73839436D01*
X128396917Y-73856903D01*
X128350000Y-73860000D01*
X128344672Y-73859991D01*
X128300564Y-73856156D01*
X128283097Y-73836916D01*
X128280000Y-73790000D01*
X128279992Y-73784671D01*
X128276157Y-73740563D01*
X128256917Y-73723096D01*
X128210000Y-73720000D01*
X128204672Y-73720008D01*
X128160564Y-73723843D01*
X128143097Y-73743083D01*
X128140000Y-73790000D01*
X128139992Y-73795328D01*
X128136157Y-73839436D01*
X128116917Y-73856903D01*
X128070000Y-73860000D01*
X128000000Y-73860000D01*
X128000000Y-73720000D01*
X128000000Y-73580000D01*
X128070000Y-73580000D01*
X128140000Y-73580000D01*
X128140000Y-73370000D01*
X128140000Y-73160000D01*
X128210000Y-73160000D01*
X128280000Y-73160000D01*
X128280000Y-73300000D01*
X128280000Y-73440000D01*
X128420000Y-73440000D01*
X128560000Y-73440000D01*
X128560000Y-73510000D01*
X128560009Y-73515328D01*
X128563844Y-73559436D01*
X128583084Y-73576903D01*
X128630000Y-73580000D01*
X128635329Y-73579991D01*
X128679437Y-73576156D01*
X128696904Y-73556916D01*
X128700000Y-73510000D01*
X128699992Y-73504671D01*
X128696157Y-73460563D01*
X128676917Y-73443096D01*
X128630000Y-73440000D01*
X128624672Y-73439991D01*
X128580564Y-73436156D01*
X128563097Y-73416916D01*
X128560000Y-73370000D01*
X128559992Y-73364671D01*
X128556157Y-73320563D01*
X128536917Y-73303096D01*
X128490000Y-73300000D01*
X128484672Y-73299991D01*
X128440564Y-73296156D01*
X128423097Y-73276916D01*
X128420000Y-73230000D01*
X128420009Y-73224671D01*
X128423844Y-73180563D01*
X128443084Y-73163096D01*
X128490000Y-73160000D01*
X128495329Y-73159991D01*
X128539437Y-73156156D01*
X128556904Y-73136916D01*
X128560000Y-73090000D01*
X128559992Y-73084671D01*
X128556157Y-73040563D01*
X128536917Y-73023096D01*
X128490000Y-73020000D01*
X128484672Y-73020008D01*
X128440564Y-73023843D01*
X128423097Y-73043083D01*
X128420000Y-73090000D01*
X128419992Y-73095328D01*
X128416157Y-73139436D01*
X128396917Y-73156903D01*
X128350000Y-73160000D01*
X128280000Y-73160000D01*
X128280000Y-72950000D01*
X128280000Y-72880000D01*
X128700000Y-72880000D01*
X128700000Y-73090000D01*
X128700000Y-73300000D01*
X128910000Y-73300000D01*
X129120000Y-73300000D01*
X129120000Y-73090000D01*
X129120000Y-72880000D01*
X128910000Y-72880000D01*
X128700000Y-72880000D01*
X128280000Y-72880000D01*
X128280000Y-72740000D01*
X128210000Y-72740000D01*
X128204672Y-72740008D01*
X128160564Y-72743843D01*
X128143097Y-72763083D01*
X128140000Y-72810000D01*
X128139992Y-72815328D01*
X128136157Y-72859436D01*
X128116917Y-72876903D01*
X128070000Y-72880000D01*
X128064672Y-72879991D01*
X128020564Y-72876156D01*
X128003097Y-72856916D01*
X128000000Y-72810000D01*
X128000009Y-72804671D01*
X128003844Y-72760563D01*
X128023084Y-72743096D01*
X128070000Y-72740000D01*
X128116305Y-72736845D01*
X128136098Y-72720311D01*
X128140000Y-72680000D01*
X128136321Y-72640310D01*
X128117031Y-72623344D01*
X128070000Y-72620000D01*
X128064672Y-72619991D01*
X128020564Y-72616156D01*
X128003097Y-72596916D01*
X128000000Y-72550000D01*
X128000009Y-72544671D01*
X128003844Y-72500563D01*
X128023084Y-72483096D01*
X128070000Y-72480000D01*
X128075329Y-72480008D01*
X128119437Y-72483843D01*
X128136904Y-72503083D01*
X128140000Y-72550000D01*
X128140009Y-72555328D01*
X128143844Y-72599436D01*
X128163084Y-72616903D01*
X128210000Y-72620000D01*
X128215329Y-72619991D01*
X128259437Y-72616156D01*
X128276904Y-72596916D01*
X128280000Y-72550000D01*
X128280009Y-72544671D01*
X128283844Y-72500563D01*
X128303084Y-72483096D01*
X128350000Y-72480000D01*
X128420000Y-72480000D01*
X128420000Y-72610000D01*
X128420000Y-72740000D01*
X128560000Y-72740000D01*
X128700000Y-72740000D01*
X128700000Y-72610000D01*
X128700000Y-72480000D01*
X128560000Y-72480000D01*
X128420000Y-72480000D01*
X128420000Y-72340000D01*
X128420000Y-72270000D01*
X128560000Y-72270000D01*
X128560009Y-72275328D01*
X128563844Y-72319436D01*
X128583084Y-72336903D01*
X128630000Y-72340000D01*
X128635329Y-72339991D01*
X128679437Y-72336156D01*
X128696904Y-72316916D01*
X128700000Y-72270000D01*
X128699992Y-72264671D01*
X128696157Y-72220563D01*
X128676917Y-72203096D01*
X128630000Y-72200000D01*
X128624672Y-72200008D01*
X128580564Y-72203843D01*
X128563097Y-72223083D01*
X128560000Y-72270000D01*
X128420000Y-72270000D01*
X128420000Y-72200000D01*
X128350000Y-72200000D01*
X128344672Y-72200008D01*
X128300564Y-72203843D01*
X128283097Y-72223083D01*
X128280000Y-72270000D01*
X128279992Y-72275328D01*
X128276157Y-72319436D01*
X128256917Y-72336903D01*
X128210000Y-72340000D01*
X128140000Y-72340000D01*
X128140000Y-72200000D01*
X128140000Y-72060000D01*
X128070000Y-72060000D01*
X128000000Y-72060000D01*
X128000000Y-71920000D01*
X128000000Y-71780000D01*
X128070000Y-71780000D01*
X128140000Y-71780000D01*
X128140000Y-71920000D01*
X128140000Y-72060000D01*
X128280000Y-72060000D01*
X128420000Y-72060000D01*
X128420000Y-71990000D01*
X128560000Y-71990000D01*
X128560009Y-71995328D01*
X128563844Y-72039436D01*
X128583084Y-72056903D01*
X128630000Y-72060000D01*
X128635329Y-72059991D01*
X128679437Y-72056156D01*
X128696904Y-72036916D01*
X128700000Y-71990000D01*
X128699992Y-71984671D01*
X128696157Y-71940563D01*
X128676917Y-71923096D01*
X128630000Y-71920000D01*
X128624672Y-71920008D01*
X128580564Y-71923843D01*
X128563097Y-71943083D01*
X128560000Y-71990000D01*
X128420000Y-71990000D01*
X128419992Y-71984671D01*
X128416157Y-71940563D01*
X128396917Y-71923096D01*
X128350000Y-71920000D01*
X128344672Y-71919991D01*
X128300564Y-71916156D01*
X128283097Y-71896916D01*
X128280000Y-71850000D01*
X128279992Y-71844671D01*
X128276157Y-71800563D01*
X128256917Y-71783096D01*
X128210000Y-71780000D01*
X128140000Y-71780000D01*
X128070000Y-71780000D01*
X128075329Y-71779991D01*
X128119437Y-71776156D01*
X128136904Y-71756916D01*
X128140000Y-71710000D01*
X128139992Y-71704671D01*
X128136157Y-71660563D01*
X128116917Y-71643096D01*
X128070000Y-71640000D01*
X128064672Y-71639991D01*
X128020564Y-71636156D01*
X128003097Y-71616916D01*
X128000000Y-71570000D01*
X128000009Y-71564671D01*
X128003844Y-71520563D01*
X128023084Y-71503096D01*
X128070000Y-71500000D01*
X128075329Y-71500008D01*
X128119437Y-71503843D01*
X128136904Y-71523083D01*
X128140000Y-71570000D01*
X128140009Y-71575328D01*
X128143844Y-71619436D01*
X128163084Y-71636903D01*
X128210000Y-71640000D01*
X128215329Y-71640008D01*
X128259437Y-71643843D01*
X128276904Y-71663083D01*
X128280000Y-71710000D01*
X128280009Y-71715328D01*
X128283844Y-71759436D01*
X128303084Y-71776903D01*
X128350000Y-71780000D01*
X128355329Y-71780008D01*
X128399437Y-71783843D01*
X128416904Y-71803083D01*
X128420000Y-71850000D01*
X128420009Y-71855328D01*
X128423844Y-71899436D01*
X128443084Y-71916903D01*
X128490000Y-71920000D01*
X128495329Y-71919991D01*
X128539437Y-71916156D01*
X128556904Y-71896916D01*
X128560000Y-71850000D01*
X128560009Y-71844671D01*
X128563844Y-71800563D01*
X128583084Y-71783096D01*
X128630000Y-71780000D01*
X128635329Y-71780008D01*
X128679437Y-71783843D01*
X128696904Y-71803083D01*
X128700000Y-71850000D01*
X128700009Y-71855328D01*
X128703844Y-71899436D01*
X128723084Y-71916903D01*
X128770000Y-71920000D01*
X128840000Y-71920000D01*
X128840000Y-71780000D01*
X128840000Y-71640000D01*
X128630000Y-71640000D01*
X128420000Y-71640000D01*
X128420000Y-71570000D01*
X128419992Y-71564671D01*
X128416157Y-71520563D01*
X128396917Y-71503096D01*
X128350000Y-71500000D01*
X128344672Y-71499991D01*
X128300564Y-71496156D01*
X128283097Y-71476916D01*
X128280000Y-71430000D01*
X128279992Y-71424671D01*
X128276157Y-71380563D01*
X128256917Y-71363096D01*
X128210000Y-71360000D01*
X128163696Y-71356845D01*
X128143903Y-71340311D01*
X128140000Y-71300000D01*
X128280000Y-71300000D01*
X128283680Y-71339689D01*
X128302970Y-71356655D01*
X128350000Y-71360000D01*
X128355329Y-71360008D01*
X128399437Y-71363843D01*
X128416904Y-71383083D01*
X128420000Y-71430000D01*
X128420000Y-71500000D01*
X128630000Y-71500000D01*
X128840000Y-71500000D01*
X128840000Y-71570000D01*
X128840000Y-71640000D01*
X128980000Y-71640000D01*
X129120000Y-71640000D01*
X129120000Y-71570000D01*
X129120000Y-71500000D01*
X128980000Y-71500000D01*
X128840000Y-71500000D01*
X128840000Y-71430000D01*
X128840000Y-71360000D01*
X128630000Y-71360000D01*
X128420000Y-71360000D01*
X128420000Y-71300000D01*
X128416321Y-71260310D01*
X128397031Y-71243344D01*
X128350000Y-71240000D01*
X128303696Y-71243154D01*
X128283903Y-71259688D01*
X128280000Y-71300000D01*
X128140000Y-71300000D01*
X128143680Y-71260310D01*
X128162970Y-71243344D01*
X128210000Y-71240000D01*
X128215329Y-71239991D01*
X128259437Y-71236156D01*
X128276904Y-71216916D01*
X128280000Y-71170000D01*
X128280000Y-71100000D01*
X128420000Y-71100000D01*
X128560000Y-71100000D01*
X128560000Y-71170000D01*
X128560000Y-71240000D01*
X128700000Y-71240000D01*
X128840000Y-71240000D01*
X128840000Y-71300000D01*
X128840000Y-71360000D01*
X129110000Y-71360000D01*
X129380000Y-71360000D01*
X129380000Y-71300000D01*
X129378162Y-71268332D01*
X129362498Y-71244955D01*
X129320000Y-71240000D01*
X129280311Y-71236320D01*
X129263345Y-71217030D01*
X129260000Y-71170000D01*
X129259992Y-71164671D01*
X129256157Y-71120563D01*
X129236917Y-71103096D01*
X129190000Y-71100000D01*
X129380000Y-71100000D01*
X129380000Y-71170000D01*
X129380009Y-71175328D01*
X129383844Y-71219436D01*
X129403084Y-71236903D01*
X129450000Y-71240000D01*
X129496305Y-71243154D01*
X129516098Y-71259688D01*
X129520000Y-71300000D01*
X129516321Y-71339689D01*
X129497031Y-71356655D01*
X129450000Y-71360000D01*
X129444672Y-71360008D01*
X129400564Y-71363843D01*
X129383097Y-71383083D01*
X129380000Y-71430000D01*
X129380009Y-71435328D01*
X129383844Y-71479436D01*
X129403084Y-71496903D01*
X129450000Y-71500000D01*
X129455329Y-71500008D01*
X129499437Y-71503843D01*
X129516904Y-71523083D01*
X129520000Y-71570000D01*
X129520009Y-71575328D01*
X129523844Y-71619436D01*
X129543084Y-71636903D01*
X129590000Y-71640000D01*
X129595329Y-71640008D01*
X129639437Y-71643843D01*
X129656904Y-71663083D01*
X129660000Y-71710000D01*
X129659992Y-71715328D01*
X129656157Y-71759436D01*
X129636917Y-71776903D01*
X129590000Y-71780000D01*
X129520000Y-71780000D01*
X129520000Y-71920000D01*
X129520000Y-72060000D01*
X129590000Y-72060000D01*
X129660000Y-72060000D01*
X129660000Y-71920000D01*
X129660000Y-71780000D01*
X129730000Y-71780000D01*
X129800000Y-71780000D01*
X129800000Y-71920000D01*
X129800000Y-72060000D01*
X129870000Y-72060000D01*
X129940000Y-72060000D01*
X129940000Y-71850000D01*
X129940000Y-71640000D01*
X130010000Y-71640000D01*
X130015329Y-71639991D01*
X130059437Y-71636156D01*
X130076904Y-71616916D01*
X130080000Y-71570000D01*
X130080009Y-71564671D01*
X130083844Y-71520563D01*
X130103084Y-71503096D01*
X130150000Y-71500000D01*
X130155329Y-71500008D01*
X130199437Y-71503843D01*
X130216904Y-71523083D01*
X130220000Y-71570000D01*
X130220009Y-71575328D01*
X130223844Y-71619436D01*
X130243084Y-71636903D01*
X130290000Y-71640000D01*
X130295329Y-71639991D01*
X130339437Y-71636156D01*
X130356904Y-71616916D01*
X130360000Y-71570000D01*
X130359992Y-71564671D01*
X130356157Y-71520563D01*
X130336917Y-71503096D01*
X130290000Y-71500000D01*
X130284672Y-71499991D01*
X130240564Y-71496156D01*
X130223097Y-71476916D01*
X130220000Y-71430000D01*
X130220000Y-71360000D01*
X130080000Y-71360000D01*
X129940000Y-71360000D01*
X129940000Y-71430000D01*
X129939992Y-71435328D01*
X129936157Y-71479436D01*
X129916917Y-71496903D01*
X129870000Y-71500000D01*
X129800000Y-71500000D01*
X129800000Y-71370000D01*
X129800000Y-71240000D01*
X129730000Y-71240000D01*
X129724672Y-71239991D01*
X129680564Y-71236156D01*
X129663097Y-71216916D01*
X129660000Y-71170000D01*
X129660000Y-71100000D01*
X129520000Y-71100000D01*
X129380000Y-71100000D01*
X129190000Y-71100000D01*
X129120000Y-71100000D01*
X129120000Y-70890000D01*
X129120000Y-70680000D01*
X129190000Y-70680000D01*
X129260000Y-70680000D01*
X129260000Y-70820000D01*
X129260000Y-70960000D01*
X129320000Y-70960000D01*
X129359690Y-70956320D01*
X129376656Y-70937030D01*
X129380000Y-70890000D01*
X129380009Y-70884671D01*
X129383844Y-70840563D01*
X129403084Y-70823096D01*
X129450000Y-70820000D01*
X129455329Y-70820008D01*
X129499437Y-70823843D01*
X129516904Y-70843083D01*
X129520000Y-70890000D01*
X129520009Y-70895328D01*
X129523844Y-70939436D01*
X129543084Y-70956903D01*
X129590000Y-70960000D01*
X129660000Y-70960000D01*
X129660000Y-70750000D01*
X129940000Y-70750000D01*
X129940009Y-70755328D01*
X129943844Y-70799436D01*
X129963084Y-70816903D01*
X130010000Y-70820000D01*
X130015329Y-70819991D01*
X130059437Y-70816156D01*
X130076904Y-70796916D01*
X130080000Y-70750000D01*
X130079992Y-70744671D01*
X130076157Y-70700563D01*
X130056917Y-70683096D01*
X130010000Y-70680000D01*
X130004672Y-70680008D01*
X129960564Y-70683843D01*
X129943097Y-70703083D01*
X129940000Y-70750000D01*
X129660000Y-70750000D01*
X129660000Y-70540000D01*
X129590000Y-70540000D01*
X129584672Y-70540008D01*
X129540564Y-70543843D01*
X129523097Y-70563083D01*
X129520000Y-70610000D01*
X129520000Y-70680000D01*
X129390000Y-70680000D01*
X129260000Y-70680000D01*
X129190000Y-70680000D01*
X129195329Y-70679991D01*
X129239437Y-70676156D01*
X129256904Y-70656916D01*
X129260000Y-70610000D01*
X129259992Y-70604671D01*
X129256157Y-70560563D01*
X129236917Y-70543096D01*
X129190000Y-70540000D01*
X129184672Y-70539991D01*
X129140564Y-70536156D01*
X129123097Y-70516916D01*
X129120000Y-70470000D01*
X129120009Y-70464671D01*
X129123844Y-70420563D01*
X129143084Y-70403096D01*
X129190000Y-70400000D01*
X129260000Y-70400000D01*
X129260000Y-70260000D01*
X129260000Y-70120000D01*
X129190000Y-70120000D01*
X129143696Y-70116845D01*
X129123903Y-70100311D01*
X129120000Y-70060000D01*
X129120000Y-70000000D01*
X129250000Y-70000000D01*
X129380000Y-70000000D01*
X129380000Y-70060000D01*
X129383680Y-70099689D01*
X129402970Y-70116655D01*
X129450000Y-70120000D01*
X129496305Y-70116845D01*
X129516098Y-70100311D01*
X129520000Y-70060000D01*
X129523680Y-70020310D01*
X129542970Y-70003344D01*
X129590000Y-70000000D01*
X129636305Y-70003154D01*
X129656098Y-70019688D01*
X129660000Y-70060000D01*
X129660000Y-70120000D01*
X129800000Y-70120000D01*
X129940000Y-70120000D01*
X129940000Y-70190000D01*
X129940000Y-70260000D01*
X129660000Y-70260000D01*
X129380000Y-70260000D01*
X129380000Y-70330000D01*
X129376846Y-70376304D01*
X129360312Y-70396097D01*
X129320000Y-70400000D01*
X129280311Y-70403679D01*
X129263345Y-70422969D01*
X129260000Y-70470000D01*
X129260000Y-70540000D01*
X129390000Y-70540000D01*
X129520000Y-70540000D01*
X129520000Y-70470000D01*
X129520009Y-70464671D01*
X129523844Y-70420563D01*
X129543084Y-70403096D01*
X129590000Y-70400000D01*
X129595329Y-70400008D01*
X129639437Y-70403843D01*
X129656904Y-70423083D01*
X129660000Y-70470000D01*
X129660009Y-70475328D01*
X129663844Y-70519436D01*
X129683084Y-70536903D01*
X129730000Y-70540000D01*
X129735329Y-70539991D01*
X129779437Y-70536156D01*
X129796904Y-70516916D01*
X129800000Y-70470000D01*
X129800000Y-70400000D01*
X129940000Y-70400000D01*
X130080000Y-70400000D01*
X130080000Y-70470000D01*
X130080009Y-70475328D01*
X130083844Y-70519436D01*
X130103084Y-70536903D01*
X130150000Y-70540000D01*
X130155329Y-70540008D01*
X130199437Y-70543843D01*
X130216904Y-70563083D01*
X130220000Y-70610000D01*
X130220009Y-70615328D01*
X130223844Y-70659436D01*
X130243084Y-70676903D01*
X130290000Y-70680000D01*
X130360000Y-70680000D01*
X130360000Y-70540000D01*
X130360000Y-70400000D01*
X130500000Y-70400000D01*
X130640000Y-70400000D01*
X130640000Y-70470000D01*
X130643155Y-70516304D01*
X130659689Y-70536097D01*
X130700000Y-70540000D01*
X130739690Y-70536320D01*
X130756656Y-70517030D01*
X130760000Y-70470000D01*
X130756846Y-70423695D01*
X130740312Y-70403902D01*
X130700000Y-70400000D01*
X130640000Y-70400000D01*
X130640000Y-70260000D01*
X130640000Y-70120000D01*
X130570000Y-70120000D01*
X130564672Y-70120008D01*
X130520564Y-70123843D01*
X130503097Y-70143083D01*
X130500000Y-70190000D01*
X130499992Y-70195328D01*
X130496157Y-70239436D01*
X130476917Y-70256903D01*
X130430000Y-70260000D01*
X130424672Y-70260008D01*
X130380564Y-70263843D01*
X130363097Y-70283083D01*
X130360000Y-70330000D01*
X130360000Y-70400000D01*
X130220000Y-70400000D01*
X130080000Y-70400000D01*
X130080000Y-70200000D01*
X130080000Y-70000000D01*
X130150000Y-70000000D01*
X130196305Y-70003154D01*
X130216098Y-70019688D01*
X130220000Y-70060000D01*
X130220000Y-70120000D01*
X130360000Y-70120000D01*
X130500000Y-70120000D01*
X130500000Y-70060000D01*
X130500000Y-70000000D01*
X130630000Y-70000000D01*
X130760000Y-70000000D01*
X130760000Y-70130000D01*
X130760000Y-70260000D01*
X130830000Y-70260000D01*
X130900000Y-70260000D01*
X130900000Y-70400000D01*
X130900000Y-70470000D01*
X130900000Y-70540000D01*
G37*
G36*
X130080000Y-73650000D02*
G01*
X130080000Y-73720000D01*
X130220000Y-73720000D01*
X130360000Y-73720000D01*
X130360000Y-73860000D01*
X130360000Y-74000000D01*
X130290000Y-74000000D01*
X130284672Y-73999991D01*
X130240564Y-73996156D01*
X130223097Y-73976916D01*
X130220000Y-73930000D01*
X130219992Y-73924671D01*
X130216157Y-73880563D01*
X130196917Y-73863096D01*
X130150000Y-73860000D01*
X130144672Y-73859991D01*
X130100564Y-73856156D01*
X130083097Y-73836916D01*
X130080000Y-73790000D01*
X130079992Y-73784671D01*
X130076157Y-73740563D01*
X130056917Y-73723096D01*
X130010000Y-73720000D01*
X130004672Y-73720008D01*
X129960564Y-73723843D01*
X129943097Y-73743083D01*
X129940000Y-73790000D01*
X129939992Y-73795328D01*
X129936157Y-73839436D01*
X129916917Y-73856903D01*
X129870000Y-73860000D01*
X129800000Y-73860000D01*
X129800000Y-73720000D01*
X129800000Y-73580000D01*
X129940000Y-73580000D01*
X130080000Y-73580000D01*
X130080000Y-73650000D01*
G37*
G36*
X130760000Y-73860000D02*
G01*
X130760000Y-74000000D01*
X130630000Y-74000000D01*
X130500000Y-74000000D01*
X130500000Y-73930000D01*
X130500009Y-73924671D01*
X130503844Y-73880563D01*
X130523084Y-73863096D01*
X130570000Y-73860000D01*
X130575329Y-73859991D01*
X130619437Y-73856156D01*
X130636904Y-73836916D01*
X130640000Y-73790000D01*
X130643155Y-73743695D01*
X130659689Y-73723902D01*
X130700000Y-73720000D01*
X130760000Y-73720000D01*
X130760000Y-73860000D01*
G37*
G36*
X132000000Y-74000000D02*
G01*
X131520000Y-74000000D01*
X131040000Y-74000000D01*
X131040000Y-73510000D01*
X131040000Y-73160000D01*
X131180000Y-73160000D01*
X131180000Y-73510000D01*
X131180000Y-73860000D01*
X131530000Y-73860000D01*
X131880000Y-73860000D01*
X131880000Y-73510000D01*
X131880000Y-73160000D01*
X131530000Y-73160000D01*
X131180000Y-73160000D01*
X131040000Y-73160000D01*
X131040000Y-73020000D01*
X131520000Y-73020000D01*
X132000000Y-73020000D01*
X132000000Y-73510000D01*
X132000000Y-74000000D01*
G37*
G36*
X118723715Y-137833474D02*
G01*
X118910074Y-137907077D01*
X118991220Y-137967987D01*
X119077184Y-138076420D01*
X119136518Y-138224176D01*
X119173791Y-138423841D01*
X119193571Y-138688000D01*
X119196812Y-138763384D01*
X119205978Y-138924411D01*
X119219287Y-139032613D01*
X119241501Y-139106533D01*
X119277384Y-139164711D01*
X119331699Y-139225689D01*
X119348953Y-139243009D01*
X119519065Y-139356954D01*
X119725482Y-139420116D01*
X119944152Y-139428070D01*
X120151025Y-139376394D01*
X120253027Y-139318265D01*
X120398493Y-139195923D01*
X120537029Y-139041547D01*
X120654139Y-138874023D01*
X120735325Y-138712240D01*
X120766089Y-138575085D01*
X120782132Y-138428028D01*
X120856716Y-138234791D01*
X120982347Y-138082142D01*
X121148227Y-137981850D01*
X121343556Y-137945684D01*
X121517363Y-137964173D01*
X121685822Y-138039103D01*
X121804723Y-138172924D01*
X121875219Y-138367042D01*
X121898462Y-138622862D01*
X121895250Y-138741756D01*
X121861762Y-138991999D01*
X121786489Y-139225588D01*
X121662774Y-139456134D01*
X121483962Y-139697249D01*
X121243397Y-139962545D01*
X121201239Y-140005331D01*
X120945113Y-140234335D01*
X120696331Y-140399250D01*
X120441438Y-140509247D01*
X120422052Y-140515087D01*
X120276363Y-140540664D01*
X120067435Y-140552898D01*
X119788308Y-140552249D01*
X119654028Y-140548918D01*
X119481861Y-140541377D01*
X119354376Y-140528046D01*
X119250695Y-140505158D01*
X119149945Y-140468945D01*
X119031250Y-140415642D01*
X118986942Y-140393736D01*
X118745817Y-140238657D01*
X118513997Y-140035577D01*
X118313784Y-139806267D01*
X118167481Y-139572496D01*
X118153707Y-139543909D01*
X118111573Y-139444986D01*
X118082550Y-139345837D01*
X118063178Y-139226982D01*
X118049994Y-139068939D01*
X118039541Y-138852228D01*
X118036127Y-138764223D01*
X118031125Y-138574917D01*
X118033418Y-138438818D01*
X118044603Y-138337885D01*
X118066279Y-138254074D01*
X118100045Y-138169345D01*
X118200747Y-138012389D01*
X118352929Y-137891350D01*
X118532625Y-137829972D01*
X118723715Y-137833474D01*
G37*
G36*
X119736107Y-136474317D02*
G01*
X119909634Y-136545249D01*
X120058396Y-136680027D01*
X120082453Y-136714775D01*
X120137309Y-136870761D01*
X120136340Y-137045120D01*
X120085289Y-137215785D01*
X119989901Y-137360686D01*
X119855923Y-137457757D01*
X119813649Y-137474409D01*
X119615146Y-137507671D01*
X119430020Y-137468433D01*
X119270616Y-137361354D01*
X119149278Y-137191092D01*
X119135583Y-137161076D01*
X119097274Y-136979835D01*
X119136991Y-136802576D01*
X119254704Y-136629460D01*
X119381045Y-136528164D01*
X119554386Y-136468274D01*
X119736107Y-136474317D01*
G37*
G36*
X121563804Y-136434680D02*
G01*
X121706585Y-136533949D01*
X121807143Y-136684765D01*
X121854107Y-136871868D01*
X121831443Y-137058227D01*
X121734888Y-137224307D01*
X121566308Y-137364833D01*
X121400265Y-137429006D01*
X121236595Y-137426486D01*
X121085617Y-137368288D01*
X120957609Y-137265454D01*
X120862853Y-137129026D01*
X120811626Y-136970045D01*
X120814209Y-136799552D01*
X120880880Y-136628589D01*
X120919141Y-136574221D01*
X121056470Y-136456729D01*
X121221313Y-136395013D01*
X121396235Y-136388016D01*
X121563804Y-136434680D01*
G37*
%TD*%
M02*
